<svg version="1.1" xmlns="http://www.w3.org/2000/svg" viewBox="0 0 1468.690476190476 978.0119047619041" width="2937.380952380952" height="1956.0238095238083">
  <!-- svg-source:excalidraw -->
  
  <defs>
    <style>
      @font-face {
        font-family: "Virgil";
        src: url("https://excalidraw.com/Virgil.woff2");
      }
      @font-face {
        font-family: "Cascadia";
        src: url("https://excalidraw.com/Cascadia.woff2");
      }
    </style>
  </defs>
  <rect x="0" y="0" width="1468.690476190476" height="978.0119047619041" fill="#ffffff"></rect><g stroke-linecap="round" transform="translate(1035.48659269533 474.0119047619042) rotate(0 178.6019417475727 218.99999999999994)"><path d="M1.05 -1.05 C108 1.78, 216.56 0.75, 358.34 0.6 M0.24 -0.08 C125.87 0.88, 252.3 1.65, 356.99 0.23 M357.58 0.3 C358.64 151.42, 358.2 303.39, 357.83 437.31 M357.44 -0.05 C358.44 150, 358.79 299.37, 356.84 437.97 M357.32 436.79 C279.31 438.08, 201.5 437.73, -1.22 438 M357.46 438.09 C225.72 439.04, 94.52 439.02, 0.53 437.58 M0.05 438.03 C0.36 298.36, -0.14 160.69, -0.99 0.85 M-0.44 437.78 C-0.94 323.05, -1.17 208.6, -0.23 0.01" stroke="#000000" stroke-width="1" fill="none"></path></g><g stroke-linecap="round" transform="translate(1075.4030975497005 575.6856911696715) rotate(0 147.13398058252426 22.11262135922331)"><path d="M-0.72 -0.15 C69.63 -1.54, 140.42 -1.53, 295.01 -0.93 M-0.57 0.74 C107.46 1.62, 216.09 2.14, 293.92 -0.22 M294.84 -0.87 C293.88 9.39, 294.37 19.84, 294.32 42.44 M293.38 0.6 C294.24 16.78, 293.41 34.9, 293.87 44.18 M294.43 44.16 C190.97 45.66, 86.75 44.45, -0.93 43.49 M294.25 44.34 C223.98 46.25, 152.77 45.24, 0.08 44 M1.57 45.32 C1.13 29.52, 1.46 10.16, -0.52 1.31 M-0.46 44.78 C0.54 29.65, -0.51 16.2, 0.9 0.93" stroke="#000000" stroke-width="1" fill="none"></path></g><g stroke-linecap="round" transform="translate(1073.7584373555235 631.3517105871474) rotate(0 147.13398058252426 22.112621359223283)"><path d="M-0.72 1.43 C81.06 -1.88, 159.71 -2.26, 294.9 0.82 M0.08 0.48 C65.39 0.83, 131.9 0.48, 294.71 -0.45 M292.73 -1.14 C292.64 16.72, 294.92 33.41, 295.5 45.06 M295.25 0.23 C293.75 10.17, 295.04 21.18, 295.2 44.2 M294.56 43.18 C205.86 44.04, 115.39 43.8, -0.63 45.14 M293.77 44.09 C183.79 42.75, 73.83 42.6, 0.67 44.89 M-0.17 43.76 C0.23 27.03, -2.01 15.19, 1.21 -1.34 M-0.03 43.86 C0.16 35.49, 0.71 25.59, 0.15 -0.52" stroke="#000000" stroke-width="1" fill="none"></path></g><g stroke-linecap="round" transform="translate(1079.7118354137745 706.1944290337481) rotate(0 147.13398058252426 22.112621359223283)"><path d="M0.9 -1 C60.63 -3.43, 124.18 -2, 293.72 -0.41 M0.11 -0.39 C101.07 0.58, 202.85 0.84, 294.07 -0.14 M294.95 0.04 C295.24 11.81, 293.47 24.47, 292.64 46.1 M294.6 -0.75 C294.11 17.94, 294.13 35.82, 293.91 44.98 M294.91 44.68 C208.14 42.34, 123.77 44.86, -0.18 42.89 M294.9 43.87 C186.4 44.01, 78.28 43.5, 0.25 43.89 M0.36 43.77 C1.56 31.48, -1.34 17.12, 1.35 1.83 M-0.21 44.31 C-0.32 33.73, 1.23 23.15, 0.88 0.96" stroke="#000000" stroke-width="1" fill="none"></path></g><g stroke-linecap="round" transform="translate(1077.1603791030982 838.8701571890897) rotate(0 147.13398058252426 18.710679611650505)"><path d="M0.11 -0.87 C99.52 -2.6, 197.46 -1.46, 292.88 0.9 M-0.42 -0.6 C76.17 -0.66, 154.2 0.29, 294.55 0.37 M295.24 -1.98 C293.32 11.9, 293.95 19.21, 296.26 36.76 M293.79 -0.43 C293.83 7, 293.44 15.82, 295.23 37.6 M293.13 38.17 C200.19 39.95, 102.88 40.27, 0.72 37.41 M294.81 37.18 C178.85 38.93, 62.86 39.41, 0.35 37.51 M-0.57 38.08 C-0.48 24.13, 0.25 14.91, -0.09 -0.52 M0.34 37.55 C-0.11 27.09, -0.14 16.06, -0.18 -0.7" stroke="#000000" stroke-width="1" fill="none"></path></g><g stroke-linecap="round" transform="translate(962.6904761904759 398.0119047619041) rotate(0 248 285)"><path d="M0.56 -0.5 C190.36 -1.11, 382.56 -1.19, 496.59 0.25 M-0.17 -0.32 C164.72 -0.7, 329.37 -0.95, 496.37 -0.08 M495.39 0.66 C497.4 143.65, 496.7 285.34, 496.02 570.25 M496.32 0.02 C494.62 137.36, 495 274.3, 496.37 570.27 M495.44 570.68 C352.41 572.06, 209.68 571.06, -0.58 569.25 M496.25 570.14 C351.87 571.4, 208.46 571.4, -0.32 570.26 M0.61 569.91 C2.72 383.6, 2.25 197.83, 0.55 0.18 M0.37 569.99 C-1.43 362.9, -1.5 155.33, -0.25 -0.15" stroke="#000000" stroke-width="1" fill="none"></path></g><g transform="translate(1095.690476190476 580.0119047619041) rotate(0 126.5 12.5)"><text x="0" y="18" font-family="Virgil, Segoe UI Emoji" font-size="20px" fill="#e67700" text-anchor="start" style="white-space: pre;" direction="ltr">Presentational Component</text></g><g transform="translate(1102.190476190476 635.5119047619041) rotate(0 126.5 12.5)"><text x="0" y="18" font-family="Virgil, Segoe UI Emoji" font-size="20px" fill="#e67700" text-anchor="start" style="white-space: pre;" direction="ltr">Presentational Component</text></g><g transform="translate(1096.190476190476 710.5119047619041) rotate(0 126.5 12.5)"><text x="0" y="18" font-family="Virgil, Segoe UI Emoji" font-size="20px" fill="#e67700" text-anchor="start" style="white-space: pre;" direction="ltr">Presentational Component</text></g><g transform="translate(1099.190476190476 844.5119047619041) rotate(0 126.5 12.5)"><text x="0" y="18" font-family="Virgil, Segoe UI Emoji" font-size="20px" fill="#e67700" text-anchor="start" style="white-space: pre;" direction="ltr">Presentational Component</text></g><g transform="translate(1116.190476190476 489.5119047619041) rotate(0 100.5 12.5)"><text x="100.5" y="18" font-family="Virgil, Segoe UI Emoji" font-size="20px" fill="#5f3dc4" text-anchor="middle" style="white-space: pre;" direction="ltr">Container Component</text></g><g transform="translate(1089.190476190476 409.0119047619041) rotate(0 115.5 12.5)"><text x="115.5" y="18" font-family="Virgil, Segoe UI Emoji" font-size="20px" fill="#2b8a3e" text-anchor="middle" style="white-space: pre;" direction="ltr">Application Data Layer</text></g><g stroke-linecap="round" transform="translate(531.9047619047617 542.4285714285709) rotate(0 66 67.5)"><path d="M80.07 2.06 C89.19 2.91, 99.08 8.54, 106.61 14.36 C114.14 20.19, 121.13 28.2, 125.26 37 C129.38 45.8, 131.22 57.3, 131.36 67.17 C131.5 77.03, 129.86 87.52, 126.08 96.21 C122.3 104.89, 116.14 112.99, 108.69 119.28 C101.24 125.57, 90.73 131.56, 81.38 133.94 C72.03 136.32, 61.98 135.67, 52.58 133.57 C43.17 131.47, 32.66 127.48, 24.95 121.35 C17.23 115.21, 10.52 105.55, 6.26 96.75 C2 87.95, -0.5 78.28, -0.6 68.53 C-0.7 58.77, 1.64 47.23, 5.65 38.24 C9.65 29.25, 15.94 20.51, 23.44 14.61 C30.94 8.71, 40.91 5.02, 50.65 2.82 C60.4 0.62, 76.71 1.24, 81.92 1.41 C87.13 1.59, 82.35 2.84, 81.92 3.86 M64.9 -0.1 C74.09 -1.14, 85.04 3.46, 93.9 7.69 C102.76 11.92, 112.09 17.91, 118.07 25.26 C124.05 32.61, 127.7 42.59, 129.78 51.77 C131.87 60.95, 132.65 70.69, 130.6 80.33 C128.56 89.97, 123.59 101.82, 117.51 109.6 C111.43 117.39, 102.39 122.74, 94.13 127.06 C85.87 131.38, 77.03 135.03, 67.93 135.53 C58.84 136.03, 48.48 134.03, 39.56 130.07 C30.64 126.1, 20.89 119.34, 14.42 111.73 C7.94 104.13, 3.07 94.27, 0.72 84.42 C-1.63 74.58, -1.79 62.29, 0.31 52.67 C2.42 43.04, 7.41 34.17, 13.35 26.65 C19.3 19.14, 27.2 12.25, 35.98 7.57 C44.76 2.9, 61.37 -0.27, 66.01 -1.38 C70.66 -2.5, 63.94 -0.64, 63.84 0.87" stroke="#c92a2a" stroke-width="1" fill="none"></path></g><g transform="translate(536.9047619047617 584.9285714285709) rotate(0 61 25)"><text x="61" y="18" font-family="Virgil, Segoe UI Emoji" font-size="20px" fill="#c92a2a" text-anchor="middle" style="white-space: pre;" direction="ltr">axios </text><text x="61" y="43" font-family="Virgil, Segoe UI Emoji" font-size="20px" fill="#c92a2a" text-anchor="middle" style="white-space: pre;" direction="ltr">Functions</text></g><g stroke-linecap="round" transform="translate(468.9047619047617 464.4285714285708) rotate(0 131 128)"><path d="M82.87 9.77 C94.62 3.05, 110.27 1.55, 124.29 0.79 C138.32 0.04, 153.49 1.58, 167.03 5.24 C180.57 8.9, 193.85 14.97, 205.55 22.74 C217.25 30.51, 228.94 40.76, 237.23 51.87 C245.53 62.98, 251.07 75.93, 255.3 89.4 C259.54 102.88, 262.78 118.74, 262.64 132.71 C262.5 146.68, 259.6 160.52, 254.49 173.22 C249.38 185.92, 241.31 198.13, 231.98 208.91 C222.66 219.68, 210.7 230.57, 198.54 237.87 C186.39 245.18, 172.81 249.71, 159.05 252.74 C145.29 255.78, 130.1 257.44, 115.98 256.07 C101.86 254.69, 87.06 250.53, 74.35 244.51 C61.64 238.48, 49.92 229.8, 39.72 219.91 C29.53 210.03, 19.57 197.67, 13.18 185.2 C6.78 172.74, 3.27 158.68, 1.34 145.13 C-0.58 131.57, -1.24 117.46, 1.61 103.88 C4.45 90.31, 11.21 75.95, 18.39 63.68 C25.57 51.42, 32.26 39.91, 44.67 30.3 C57.08 20.7, 83.21 10.33, 92.86 6.05 C102.51 1.77, 101.87 2.53, 102.56 4.61 M69.54 15.2 C80.56 7.3, 97.57 2.75, 111.56 0.76 C125.56 -1.24, 139.47 0.56, 153.5 3.23 C167.53 5.9, 183.21 10.21, 195.72 16.78 C208.23 23.34, 219.37 32.43, 228.55 42.65 C237.74 52.87, 245.12 65.4, 250.82 78.12 C256.52 90.84, 261.68 105.22, 262.77 118.96 C263.86 132.7, 261.17 146.95, 257.39 160.56 C253.61 174.18, 247.87 188.84, 240.08 200.66 C232.29 212.47, 222.22 223.51, 210.65 231.46 C199.08 239.42, 184.24 244.12, 170.64 248.37 C157.04 252.63, 143.26 256.96, 129.05 257.01 C114.84 257.05, 98.52 253.47, 85.39 248.63 C72.26 243.79, 61.27 236.52, 50.28 227.96 C39.29 219.39, 27.26 209.11, 19.45 197.24 C11.63 185.38, 6.37 170.36, 3.39 156.75 C0.4 143.14, 0.24 129.39, 1.51 115.59 C2.79 101.79, 5.55 86.58, 11.06 73.96 C16.57 61.33, 24.56 49.79, 34.56 39.85 C44.55 29.9, 64.78 18.02, 71.03 14.28 C77.28 10.54, 70.88 15.28, 72.04 17.42" stroke="#087f5b" stroke-width="1" fill="none"></path></g><g transform="translate(545.9047619047617 499.4285714285708) rotate(0 50 12.5)"><text x="50" y="18" font-family="Virgil, Segoe UI Emoji" font-size="20px" fill="#087f5b" text-anchor="middle" style="white-space: pre;" direction="ltr">UseQuerry</text></g><g stroke-linecap="round" transform="translate(369.5476190476188 326.8928571428565) rotate(0 234.5 277)"><path d="M234.23 1.07 C291.5 66.33, 345.78 134.21, 468.42 278.88 M235.52 -0.62 C304.24 83.94, 374.55 166.63, 468.91 278.48 M468.41 278.13 C386.03 375.77, 307 471.36, 234.79 553.62 M468.73 278.6 C399.04 359.83, 329.86 441.19, 235.35 554.42 M234.46 554.52 C166.6 476.18, 100.98 398.91, -0.61 277.21 M235.51 553.61 C154.4 459.47, 74.12 366.02, -0.5 278.12 M0.56 278.72 C47.74 221.29, 93.13 165.64, 236.22 0.39 M-0.43 278.18 C57.53 212.17, 113.66 145.55, 234.56 0.04" stroke="#364fc7" stroke-width="1" fill="none"></path></g><g transform="translate(573.4047619047617 749.9285714285711) rotate(0 39.5 12.5)"><text x="39.5" y="18" font-family="Virgil, Segoe UI Emoji" font-size="20px" fill="#364fc7" text-anchor="middle" style="white-space: pre;" direction="ltr">Context</text></g><g stroke-linecap="round"><g transform="translate(832.7225488899168 621.0330354568687) rotate(0 57.11473258628297 7.0683493849414845)"><path d="M-1.14 -0.6 C18.19 1.82, 96.08 11.02, 115.37 13.48 M0.46 1.7 C19.74 4.36, 95.85 12.43, 114.72 14.73" stroke="#087f5b" stroke-width="1" fill="none"></path></g><g transform="translate(832.7225488899168 621.0330354568687) rotate(0 57.11473258628297 7.0683493849414845)"><path d="M84.56 22.7 C91.99 19.91, 100.39 18.38, 112.88 16.55 M85.65 22.15 C94.78 20.06, 106.24 17.45, 115.31 15.72" stroke="#087f5b" stroke-width="1" fill="none"></path></g><g transform="translate(832.7225488899168 621.0330354568687) rotate(0 57.11473258628297 7.0683493849414845)"><path d="M86.87 2.31 C93.55 4.59, 101.38 8.14, 112.88 16.55 M87.96 1.76 C96.21 6.75, 106.87 11.22, 115.31 15.72" stroke="#087f5b" stroke-width="1" fill="none"></path></g></g><g stroke-linecap="round" transform="translate(10 10) rotate(0 224 161)"><path d="M0.59 0.37 C115.63 -1.01, 232.17 0.3, 447.68 0.36 M0.3 0.23 C132.9 -2.16, 264.78 -2.13, 448.36 0.42 M447.39 0.8 C447.31 86, 448.17 172.97, 448.52 321.22 M447.79 0.05 C446.23 95.14, 446.71 189.85, 448.66 322.11 M447.68 321.52 C285 319.62, 120.7 319.67, 0.87 321.89 M448.13 321.81 C298.64 323.72, 148.3 323.71, 0 321.74 M-0.93 320.87 C0.89 207.58, 0.61 92.24, -0.07 0.91 M0.16 322.22 C0.13 253.92, 1.29 185.55, -0.24 -0.28" stroke="#0b7285" stroke-width="1" fill="none"></path></g><g transform="translate(140.16666666666669 166.99999999999994) rotate(0 84.5 12.5)"><text x="84.5" y="18" font-family="Virgil, Segoe UI Emoji" font-size="20px" fill="#000000" text-anchor="middle" style="white-space: pre;" direction="ltr">Backend Services</text></g><g stroke-linecap="round"><g transform="translate(442.7437071254641 492.76857663746085) rotate(0 -45.575838065088845 -79.8457008986692)"><path d="M1.08 -0.04 C-14.21 -26.84, -76.99 -133.16, -92.23 -159.65 M0.19 -1.11 C-14.67 -27.19, -74.75 -131.41, -89.87 -158.05" stroke="#000000" stroke-width="1" fill="none"></path></g><g transform="translate(442.7437071254641 492.76857663746085) rotate(0 -45.575838065088845 -79.8457008986692)"><path d="M-67.03 -139.8 C-72.95 -141.59, -77.87 -148.19, -88.35 -159.41 M-66.05 -138.99 C-75.85 -146.65, -82.31 -152.98, -90.19 -157.19" stroke="#000000" stroke-width="1" fill="none"></path></g><g transform="translate(442.7437071254641 492.76857663746085) rotate(0 -45.575838065088845 -79.8457008986692)"><path d="M-84.83 -129.6 C-86.2 -134.23, -86.45 -143.49, -88.35 -159.41 M-83.86 -128.79 C-87.2 -139.98, -87.27 -149.97, -90.19 -157.19" stroke="#000000" stroke-width="1" fill="none"></path></g></g><g transform="translate(809.5119047619054 66.19444444444457) rotate(0 145.49999999999994 22.5)"><text x="145.5" y="32" font-family="Virgil, Segoe UI Emoji" font-size="36px" fill="#000000" text-anchor="middle" style="white-space: pre;" direction="ltr">ARCHITECTURE</text></g></svg>