<svg xmlns="http://www.w3.org/2000/svg" xmlns:xlink="http://www.w3.org/1999/xlink" xmlns:lucid="lucid" width="930" height="480"><g transform="translate(-840 -240)" lucid:page-tab-id="m526L2Ya9RGt"><path d="M0 0h3228.26v2950.3H0z" fill="#fff"/><a xlink:href="http:///dashboard" target="_blank"><path d="M1220 268c0-4.42 3.58-8 8-8h164c4.42 0 8 3.58 8 8v104c0 4.42-3.58 8-8 8h-164c-4.42 0-8-3.58-8-8z" stroke="#333" fill="#fff"/><path d="M1366.25 325.1c1.9 0 2.8-2.4 1.46-3.5l-55.34-49.4-55.46 49.5c-1.35 1.1-.45 3.4 1.46 3.4h9.68V370h29.47v-37.4h25.33V370h29.58v-44.9h13.85zm-85.6-48.6h-16.77v26.3l16.76-14.9v-11.4z" fill="#f3f3f3"/><path d="M1365.5 367.96h-1.82c-1.57.02-2.9-1.1-2.9-2.43 0-.65.3-1.25.83-1.72.53-.43 1.23-.7 2-.7h6.72c1.38 0 3.74.23 3.74 1.85.04.75.74 1.35 1.62 1.35.88 0 1.57-.62 1.57-1.36-.04-2.77-2.74-4.54-6.93-4.54h-6.73c-1.62.02-3.15.54-4.28 1.52-1.12.98-1.73 2.26-1.73 3.63 0 1.42.7 2.7 1.8 3.63 1.1.93 2.6 1.48 4.28 1.48h1.83c.9 0 1.6-.6 1.6-1.34 0-.74-.7-1.36-1.6-1.36zm23.25-2.47c-.04-2.97-2.4-5.12-5.63-5.12h-2.27c-.88 0-1.62.6-1.62 1.37 0 .74.74 1.34 1.62 1.34h2.27c1.65 0 2.44 1.2 2.44 2.42 0 .64-.28 1.27-.8 1.7-.55.48-1.25.72-2.02.72l-7.15.02c-3.32 0-3.32-1.3-3.32-1.87-.04-.75-.74-1.35-1.6-1.35-.88 0-1.62.6-1.6 1.37 0 1.28.52 2.32 1.44 3.1 1.1.93 2.82 1.43 5.07 1.43h7.16c1.62 0 3.13-.54 4.26-1.5 1.14-.98 1.73-2.28 1.73-3.66z" stroke="#333" fill="#333"/><use xlink:href="#a" transform="matrix(1,0,0,1,1225,265) translate(55.13641975308643 59.48888888888888)"/><path class="lucid-link lucid-hotspot lucid-overlay-hotspot" d="M1220 268c0-4.42 3.58-8 8-8h164c4.42 0 8 3.58 8 8v104c0 4.42-3.58 8-8 8h-164c-4.42 0-8-3.58-8-8z" fill="none"/><path class="lucid-link lucid-hotspot lucid-overlay-hotspot" d="M1366.25 325.1c1.9 0 2.8-2.4 1.46-3.5l-55.34-49.4-55.46 49.5c-1.35 1.1-.45 3.4 1.46 3.4h9.68V370h29.47v-37.4h25.33V370h29.58v-44.9h13.85zm-85.6-48.6h-16.77v26.3l16.76-14.9v-11.4zM1365.5 367.96h-1.82c-1.57.02-2.9-1.1-2.9-2.43 0-.65.3-1.25.83-1.72.53-.43 1.23-.7 2-.7h6.72c1.38 0 3.74.23 3.74 1.85.04.75.74 1.35 1.62 1.35.88 0 1.57-.62 1.57-1.36-.04-2.77-2.74-4.54-6.93-4.54h-6.73c-1.62.02-3.15.54-4.28 1.52-1.12.98-1.73 2.26-1.73 3.63 0 1.42.7 2.7 1.8 3.63 1.1.93 2.6 1.48 4.28 1.48h1.83c.9 0 1.6-.6 1.6-1.34 0-.74-.7-1.36-1.6-1.36zm23.25-2.47c-.04-2.97-2.4-5.12-5.63-5.12h-2.27c-.88 0-1.62.6-1.62 1.37 0 .74.74 1.34 1.62 1.34h2.27c1.65 0 2.44 1.2 2.44 2.42 0 .64-.28 1.27-.8 1.7-.55.48-1.25.72-2.02.72l-7.15.02c-3.32 0-3.32-1.3-3.32-1.87-.04-.75-.74-1.35-1.6-1.35-.88 0-1.62.6-1.6 1.37 0 1.28.52 2.32 1.44 3.1 1.1.93 2.82 1.43 5.07 1.43h7.16c1.62 0 3.13-.54 4.26-1.5 1.14-.98 1.73-2.28 1.73-3.66z" fill="none"/></a><path d="M1230 428c0-4.42 3.58-8 8-8h144c4.42 0 8 3.58 8 8v104c0 4.42-3.58 8-8 8h-144c-4.42 0-8-3.58-8-8z" stroke="#333" fill="#fff"/><use xlink:href="#b" transform="matrix(1,0,0,1,1235,425) translate(35.753395061728405 59.48888888888888)"/><path d="M1310 381v38" stroke="#333" fill="none"/><path d="M1310.5 381h-1v-.5h1zM1310.5 419.5h-1v-.5h1z" stroke="#333" stroke-width=".05" fill="#333"/><path d="M870 428c0-4.42 3.58-8 8-8h144c4.42 0 8 3.58 8 8v104c0 4.42-3.58 8-8 8H878c-4.42 0-8-3.58-8-8z" stroke="#333" fill="#fff"/><use xlink:href="#c" transform="matrix(1,0,0,1,875,425) translate(28.89537037037038 59.48888888888888)"/><use xlink:href="#d" transform="matrix(1,0,0,1,875,425) translate(93.73487654320988 59.48888888888888)"/><path d="M1310 381v7c0 6.63-5.37 12-12 12H962c-6.63 0-12 5.37-12 12v7" stroke="#333" fill="none"/><path d="M1310.5 381h-1v-.5h1zM950.5 419.5h-1v-.5h1z" stroke="#333" stroke-width=".05" fill="#333"/><path d="M1410 428c0-4.42 3.58-8 8-8h144c4.42 0 8 3.58 8 8v104c0 4.42-3.58 8-8 8h-144c-4.42 0-8-3.58-8-8z" stroke="#333" fill="#fff"/><use xlink:href="#e" transform="matrix(1,0,0,1,1415,425) translate(40.8033950617284 59.48888888888888)"/><path d="M1310 381v7c0 6.63 5.37 12 12 12h156c6.63 0 12 5.37 12 12v7" stroke="#333" fill="none"/><path d="M1310.5 381h-1v-.5h1zM1490.5 419.5h-1v-.5h1z" stroke="#333" stroke-width=".05" fill="#333"/><path d="M1040 428c0-4.42 3.58-8 8-8h144c4.42 0 8 3.58 8 8v104c0 4.42-3.58 8-8 8h-144c-4.42 0-8-3.58-8-8z" stroke="#333" fill="#fff"/><path d="M1098.9 473.8c8.4 0 15.3-6.9 15.3-15.3 0-8.5-6.9-15.3-15.3-15.3s-15.3 6.8-15.3 15.3c0 8.4 6.9 15.3 15.3 15.3m.3 6c-14.6 0-26.6 12.3-27.9 28-.2 2 .7 3.9 2.3 5 7.4 4.6 16.2 7.3 25.6 7.3 9.4 0 18.2-2.7 25.6-7.3 1.7-1.1 2.5-3 2.4-5-1.4-15.7-13.4-28-28-28m53.3 1.7v-7.9l7.8-4.5v-4.4h-7.8v-6.4l8.1-5.4v-8.1h-16.2v37.6c-7.1 2.5-12.2 9.2-12.2 17.2 0 10 8.2 18.2 18.3 18.2 10.1 0 18.3-8.2 18.3-18.2 0-9.4-7.2-17.1-16.3-18.1m-2 28.2c-5.6 0-10.1-4.5-10.1-10.1s4.5-10.2 10.1-10.2 10.1 4.6 10.1 10.2-4.5 10.1-10.1 10.1" fill="#f3f3f3"/><use xlink:href="#f" transform="matrix(1,0,0,1,1045,425) translate(47.59907407407408 59.48888888888888)"/><path d="M1310 381v7c0 6.63-5.37 12-12 12h-166c-6.63 0-12 5.37-12 12v7" stroke="#333" fill="none"/><path d="M1310.5 381h-1v-.5h1zM1120.5 419.5h-1v-.5h1z" stroke="#333" stroke-width=".05" fill="#333"/><path d="M1590 428c0-4.42 3.58-8 8-8h144c4.42 0 8 3.58 8 8v104c0 4.42-3.58 8-8 8h-144c-4.42 0-8-3.58-8-8z" stroke="#333" fill="#fff"/><use xlink:href="#g" transform="matrix(1,0,0,1,1595,425) translate(56.296296296296305 59.48888888888888)"/><path d="M1310 381v7c0 6.63 5.37 12 12 12h336c6.63 0 12 5.37 12 12v7" stroke="#333" fill="none"/><path d="M1310.5 381h-1v-.5h1zM1670.5 419.5h-1v-.5h1z" stroke="#333" stroke-width=".05" fill="#333"/><path d="M860 588c0-4.42 3.58-8 8-8h128c4.42 0 8 3.58 8 8v92c0 4.42-3.58 8-8 8H868c-4.42 0-8-3.58-8-8z" stroke="#333" fill="#fff"/><path d="M876 600c0-4.42 3.58-8 8-8h128c4.42 0 8 3.58 8 8v92c0 4.42-3.58 8-8 8H884c-4.42 0-8-3.58-8-8z" stroke="#333" fill="#fff"/><use xlink:href="#h" transform="matrix(1,0,0,1,881,597) translate(-0.8944444444444457 53.48888888888888)"/><path d="M1220 588c0-4.42 3.58-8 8-8h128c4.42 0 8 3.58 8 8v92c0 4.42-3.58 8-8 8h-128c-4.42 0-8-3.58-8-8z" stroke="#333" fill="#fff"/><path d="M1236 600c0-4.42 3.58-8 8-8h128c4.42 0 8 3.58 8 8v92c0 4.42-3.58 8-8 8h-128c-4.42 0-8-3.58-8-8z" stroke="#333" fill="#fff"/><use xlink:href="#i" transform="matrix(1,0,0,1,1241,597) translate(-8.968209876543185 53.48888888888888)"/><path d="M1120 541v7c0 6.63 5.37 12 12 12h146.67c6.62 0 12 5.37 12 12v7" stroke="#333" fill="none"/><path d="M1120.5 541h-1v-.5h1zM1291.17 579.5h-1v-.5h1z" stroke="#333" stroke-width=".05" fill="#333"/><path d="M1120 541v7c0 6.63-5.37 12-12 12H952c-6.63 0-12 5.37-12 12v7" stroke="#333" fill="none"/><path d="M1120.5 541h-1v-.5h1zM940.5 579.5h-1v-.5h1z" stroke="#333" stroke-width=".05" fill="#333"/><path d="M1040 588c0-4.42 3.58-8 8-8h128c4.42 0 8 3.58 8 8v92c0 4.42-3.58 8-8 8h-128c-4.42 0-8-3.58-8-8z" stroke="#333" fill="#fff"/><path d="M1056 600c0-4.42 3.58-8 8-8h128c4.42 0 8 3.58 8 8v92c0 4.42-3.58 8-8 8h-128c-4.42 0-8-3.58-8-8z" stroke="#333" fill="#fff"/><use xlink:href="#j" transform="matrix(1,0,0,1,1061,597) translate(12.16697530864198 53.48888888888888)"/><path d="M1120 541v38" stroke="#333" fill="none"/><path d="M1120.5 541h-1v-.5h1zM1120.5 579.5h-1v-.5h1z" stroke="#333" stroke-width=".05" fill="#333"/><defs><path fill="#333" d="M197 0v-115H63V0H30v-248h33v105h134v-105h34V0h-34" id="k"/><path fill="#333" d="M100-194c62-1 85 37 85 99 1 63-27 99-86 99S16-35 15-95c0-66 28-99 85-99zM99-20c44 1 53-31 53-75 0-43-8-75-51-75s-53 32-53 75 10 74 51 75" id="l"/><path fill="#333" d="M210-169c-67 3-38 105-44 169h-31v-121c0-29-5-50-35-48C34-165 62-65 56 0H25l-1-190h30c1 10-1 24 2 32 10-44 99-50 107 0 11-21 27-35 58-36 85-2 47 119 55 194h-31v-121c0-29-5-49-35-48" id="m"/><path fill="#333" d="M100-194c63 0 86 42 84 106H49c0 40 14 67 53 68 26 1 43-12 49-29l28 8c-11 28-37 45-77 45C44 4 14-33 15-96c1-61 26-98 85-98zm52 81c6-60-76-77-97-28-3 7-6 17-6 28h103" id="n"/><g id="a"><use transform="matrix(0.06234567901234567,0,0,0.06234567901234567,0,0)" xlink:href="#k"/><use transform="matrix(0.06234567901234567,0,0,0.06234567901234567,16.147530864197527,0)" xlink:href="#l"/><use transform="matrix(0.06234567901234567,0,0,0.06234567901234567,28.61666666666666,0)" xlink:href="#m"/><use transform="matrix(0.06234567901234567,0,0,0.06234567901234567,47.25802469135802,0)" xlink:href="#n"/></g><path fill="#333" d="M185-189c-5-48-123-54-124 2 14 75 158 14 163 119 3 78-121 87-175 55-17-10-28-26-33-46l33-7c5 56 141 63 141-1 0-78-155-14-162-118-5-82 145-84 179-34 5 7 8 16 11 25" id="o"/><path fill="#333" d="M84 4C-5 8 30-112 23-190h32v120c0 31 7 50 39 49 72-2 45-101 50-169h31l1 190h-30c-1-10 1-25-2-33-11 22-28 36-60 37" id="p"/><path fill="#333" d="M115-194c55 1 70 41 70 98S169 2 115 4C84 4 66-9 55-30l1 105H24l-1-265h31l2 30c10-21 28-34 59-34zm-8 174c40 0 45-34 45-75s-6-73-45-74c-42 0-51 32-51 76 0 43 10 73 51 73" id="q"/><path fill="#333" d="M114-163C36-179 61-72 57 0H25l-1-190h30c1 12-1 29 2 39 6-27 23-49 58-41v29" id="r"/><path fill="#333" d="M59-47c-2 24 18 29 38 22v24C64 9 27 4 27-40v-127H5v-23h24l9-43h21v43h35v23H59v120" id="s"/><g id="b"><use transform="matrix(0.06234567901234567,0,0,0.06234567901234567,0,0)" xlink:href="#o"/><use transform="matrix(0.06234567901234567,0,0,0.06234567901234567,14.96296296296296,0)" xlink:href="#p"/><use transform="matrix(0.06234567901234567,0,0,0.06234567901234567,27.432098765432094,0)" xlink:href="#q"/><use transform="matrix(0.06234567901234567,0,0,0.06234567901234567,39.90123456790123,0)" xlink:href="#q"/><use transform="matrix(0.06234567901234567,0,0,0.06234567901234567,52.37037037037036,0)" xlink:href="#l"/><use transform="matrix(0.06234567901234567,0,0,0.06234567901234567,64.83950617283949,0)" xlink:href="#r"/><use transform="matrix(0.06234567901234567,0,0,0.06234567901234567,72.25864197530862,0)" xlink:href="#s"/></g><path fill="#333" d="M205 0l-28-72H64L36 0H1l101-248h38L239 0h-34zm-38-99l-47-123c-12 45-31 82-46 123h93" id="t"/><path fill="#333" d="M115-194c53 0 69 39 70 98 0 66-23 100-70 100C84 3 66-7 56-30L54 0H23l1-261h32v101c10-23 28-34 59-34zm-8 174c40 0 45-34 45-75 0-40-5-75-45-74-42 0-51 32-51 76 0 43 10 73 51 73" id="u"/><g id="c"><use transform="matrix(0.06234567901234567,0,0,0.06234567901234567,0,0)" xlink:href="#t"/><use transform="matrix(0.06234567901234567,0,0,0.06234567901234567,14.96296296296296,0)" xlink:href="#u"/><use transform="matrix(0.06234567901234567,0,0,0.06234567901234567,27.432098765432094,0)" xlink:href="#l"/><use transform="matrix(0.06234567901234567,0,0,0.06234567901234567,39.90123456790123,0)" xlink:href="#p"/><use transform="matrix(0.06234567901234567,0,0,0.06234567901234567,52.37037037037036,0)" xlink:href="#s"/></g><path fill="#333" d="M232-93c-1 65-40 97-104 97C67 4 28-28 28-90v-158h33c8 89-33 224 67 224 102 0 64-133 71-224h33v155" id="v"/><path fill="#333" d="M135-143c-3-34-86-38-87 0 15 53 115 12 119 90S17 21 10-45l28-5c4 36 97 45 98 0-10-56-113-15-118-90-4-57 82-63 122-42 12 7 21 19 24 35" id="w"/><g id="d"><use transform="matrix(0.06234567901234567,0,0,0.06234567901234567,0,0)" xlink:href="#v"/><use transform="matrix(0.06234567901234567,0,0,0.06234567901234567,16.147530864197527,0)" xlink:href="#w"/></g><path fill="#333" d="M30-248c87 1 191-15 191 75 0 78-77 80-158 76V0H30v-248zm33 125c57 0 124 11 124-50 0-59-68-47-124-48v98" id="x"/><path fill="#333" d="M24-231v-30h32v30H24zM24 0v-190h32V0H24" id="y"/><path fill="#333" d="M96-169c-40 0-48 33-48 73s9 75 48 75c24 0 41-14 43-38l32 2c-6 37-31 61-74 61-59 0-76-41-82-99-10-93 101-131 147-64 4 7 5 14 7 22l-32 3c-4-21-16-35-41-35" id="z"/><path fill="#333" d="M117-194c89-4 53 116 60 194h-32v-121c0-31-8-49-39-48C34-167 62-67 57 0H25l-1-190h30c1 10-1 24 2 32 11-22 29-35 61-36" id="A"/><path fill="#333" d="M177-190C167-65 218 103 67 71c-23-6-38-20-44-43l32-5c15 47 100 32 89-28v-30C133-14 115 1 83 1 29 1 15-40 15-95c0-56 16-97 71-98 29-1 48 16 59 35 1-10 0-23 2-32h30zM94-22c36 0 50-32 50-73 0-42-14-75-50-75-39 0-46 34-46 75s6 73 46 73" id="B"/><g id="e"><use transform="matrix(0.06234567901234567,0,0,0.06234567901234567,0,0)" xlink:href="#x"/><use transform="matrix(0.06234567901234567,0,0,0.06234567901234567,14.96296296296296,0)" xlink:href="#r"/><use transform="matrix(0.06234567901234567,0,0,0.06234567901234567,22.382098765432094,0)" xlink:href="#y"/><use transform="matrix(0.06234567901234567,0,0,0.06234567901234567,27.307407407407403,0)" xlink:href="#z"/><use transform="matrix(0.06234567901234567,0,0,0.06234567901234567,38.529629629629625,0)" xlink:href="#y"/><use transform="matrix(0.06234567901234567,0,0,0.06234567901234567,43.45493827160493,0)" xlink:href="#A"/><use transform="matrix(0.06234567901234567,0,0,0.06234567901234567,55.92407407407406,0)" xlink:href="#B"/></g><path fill="#333" d="M30 0v-248h33v221h125V0H30" id="C"/><g id="f"><use transform="matrix(0.06234567901234567,0,0,0.06234567901234567,0,0)" xlink:href="#C"/><use transform="matrix(0.06234567901234567,0,0,0.06234567901234567,12.469135802469133,0)" xlink:href="#l"/><use transform="matrix(0.06234567901234567,0,0,0.06234567901234567,24.938271604938265,0)" xlink:href="#B"/><use transform="matrix(0.06234567901234567,0,0,0.06234567901234567,37.4074074074074,0)" xlink:href="#y"/><use transform="matrix(0.06234567901234567,0,0,0.06234567901234567,42.332716049382704,0)" xlink:href="#A"/></g><path fill="#333" d="M155-56V0h-30v-56H8v-25l114-167h33v167h35v25h-35zm-30-156c-27 46-58 90-88 131h88v-131" id="D"/><path fill="#333" d="M101-251c68 0 85 55 85 127S166 4 100 4C33 4 14-52 14-124c0-73 17-127 87-127zm-1 229c47 0 54-49 54-102s-4-102-53-102c-51 0-55 48-55 102 0 53 5 102 54 102" id="E"/><g id="g"><use transform="matrix(0.06234567901234567,0,0,0.06234567901234567,0,0)" xlink:href="#D"/><use transform="matrix(0.06234567901234567,0,0,0.06234567901234567,12.469135802469133,0)" xlink:href="#E"/><use transform="matrix(0.06234567901234567,0,0,0.06234567901234567,24.938271604938265,0)" xlink:href="#D"/></g><path fill="#333" d="M106-169C34-169 62-67 57 0H25v-261h32l-1 103c12-21 28-36 61-36 89 0 53 116 60 194h-32v-121c2-32-8-49-39-48" id="F"/><path fill="#333" d="M179-190L93 31C79 59 56 82 12 73V49c39 6 53-20 64-50L1-190h34L92-34l54-156h33" id="G"/><path fill="#333" d="M141-36C126-15 110 5 73 4 37 3 15-17 15-53c-1-64 63-63 125-63 3-35-9-54-41-54-24 1-41 7-42 31l-33-3c5-37 33-52 76-52 45 0 72 20 72 64v82c-1 20 7 32 28 27v20c-31 9-61-2-59-35zM48-53c0 20 12 33 32 33 41-3 63-29 60-74-43 2-92-5-92 41" id="H"/><g id="h"><use transform="matrix(0.06234567901234567,0,0,0.06234567901234567,0,0)" xlink:href="#x"/><use transform="matrix(0.06234567901234567,0,0,0.06234567901234567,14.96296296296296,0)" xlink:href="#F"/><use transform="matrix(0.06234567901234567,0,0,0.06234567901234567,27.432098765432094,0)" xlink:href="#G"/><use transform="matrix(0.06234567901234567,0,0,0.06234567901234567,38.654320987654316,0)" xlink:href="#w"/><use transform="matrix(0.06234567901234567,0,0,0.06234567901234567,49.87654320987654,0)" xlink:href="#y"/><use transform="matrix(0.06234567901234567,0,0,0.06234567901234567,54.80185185185184,0)" xlink:href="#z"/><use transform="matrix(0.06234567901234567,0,0,0.06234567901234567,66.02407407407406,0)" xlink:href="#y"/><use transform="matrix(0.06234567901234567,0,0,0.06234567901234567,70.94938271604937,0)" xlink:href="#H"/><use transform="matrix(0.06234567901234567,0,0,0.06234567901234567,83.41851851851851,0)" xlink:href="#A"/><use transform="matrix(0.06234567901234567,0,0,0.06234567901234567,95.88765432098765,0)" xlink:href="#t"/><use transform="matrix(0.06234567901234567,0,0,0.06234567901234567,110.85061728395061,0)" xlink:href="#q"/><use transform="matrix(0.06234567901234567,0,0,0.06234567901234567,123.31975308641975,0)" xlink:href="#q"/></g><path fill="#333" d="M30-248c118-7 216 8 213 122C240-48 200 0 122 0H30v-248zM63-27c89 8 146-16 146-99s-60-101-146-95v194" id="I"/><g id="i"><use transform="matrix(0.06234567901234567,0,0,0.06234567901234567,0,0)" xlink:href="#I"/><use transform="matrix(0.06234567901234567,0,0,0.06234567901234567,16.147530864197527,0)" xlink:href="#y"/><use transform="matrix(0.06234567901234567,0,0,0.06234567901234567,21.072839506172834,0)" xlink:href="#w"/><use transform="matrix(0.06234567901234567,0,0,0.06234567901234567,32.295061728395055,0)" xlink:href="#q"/><use transform="matrix(0.06234567901234567,0,0,0.06234567901234567,44.76419753086419,0)" xlink:href="#n"/><use transform="matrix(0.06234567901234567,0,0,0.06234567901234567,57.23333333333332,0)" xlink:href="#A"/><use transform="matrix(0.06234567901234567,0,0,0.06234567901234567,69.70246913580246,0)" xlink:href="#w"/><use transform="matrix(0.06234567901234567,0,0,0.06234567901234567,80.92469135802467,0)" xlink:href="#H"/><use transform="matrix(0.06234567901234567,0,0,0.06234567901234567,93.3938271604938,0)" xlink:href="#r"/><use transform="matrix(0.06234567901234567,0,0,0.06234567901234567,100.81296296296293,0)" xlink:href="#G"/><use transform="matrix(0.06234567901234567,0,0,0.06234567901234567,112.03518518518514,0)" xlink:href="#t"/><use transform="matrix(0.06234567901234567,0,0,0.06234567901234567,126.9981481481481,0)" xlink:href="#q"/><use transform="matrix(0.06234567901234567,0,0,0.06234567901234567,139.46728395061723,0)" xlink:href="#q"/></g><g id="j"><use transform="matrix(0.06234567901234567,0,0,0.06234567901234567,0,0)" xlink:href="#x"/><use transform="matrix(0.06234567901234567,0,0,0.06234567901234567,14.96296296296296,0)" xlink:href="#H"/><use transform="matrix(0.06234567901234567,0,0,0.06234567901234567,27.432098765432094,0)" xlink:href="#s"/><use transform="matrix(0.06234567901234567,0,0,0.06234567901234567,33.66666666666666,0)" xlink:href="#y"/><use transform="matrix(0.06234567901234567,0,0,0.06234567901234567,38.59197530864196,0)" xlink:href="#n"/><use transform="matrix(0.06234567901234567,0,0,0.06234567901234567,51.061111111111096,0)" xlink:href="#A"/><use transform="matrix(0.06234567901234567,0,0,0.06234567901234567,63.53024691358023,0)" xlink:href="#s"/><use transform="matrix(0.06234567901234567,0,0,0.06234567901234567,69.7648148148148,0)" xlink:href="#t"/><use transform="matrix(0.06234567901234567,0,0,0.06234567901234567,84.72777777777776,0)" xlink:href="#q"/><use transform="matrix(0.06234567901234567,0,0,0.06234567901234567,97.1969135802469,0)" xlink:href="#q"/></g></defs></g></svg>