<svg version="1.1" xmlns="http://www.w3.org/2000/svg" viewBox="0 0 1080.2857142857133 804.31204356959" width="1080.2857142857133" height="804.31204356959">
  <!-- svg-source:excalidraw -->
  
  <defs>
    <style>
      @font-face {
        font-family: "Virgil";
        src: url("https://excalidraw.com/Virgil.woff2");
      }
      @font-face {
        font-family: "Cascadia";
        src: url("https://excalidraw.com/Cascadia.woff2");
      }
    </style>
  </defs>
  <rect x="0" y="0" width="1080.2857142857133" height="804.31204356959" fill="#ffffff"></rect><g stroke-linecap="round" transform="translate(404.96428571428544 26.531746031745627) rotate(0 111 75)"><path d="M-1.75 -0.61 L222.99 -1.52 L220.09 149.82 L0.5 149.02" stroke="none" stroke-width="0" fill="#15aabf"></path><path d="M-1.08 1.68 C58.97 -0.73, 117.23 -1.26, 221.51 0.83 M-0.78 -0.83 C56.83 -0.85, 112.24 -1.16, 221.59 0.59 M222.02 -1.72 C221.61 45.81, 221.16 90.9, 222.97 150.94 M221.15 0.59 C223.94 36.01, 222.77 73.41, 221.49 150.66 M223.35 148.45 C153.82 150.3, 85.61 149.49, -1.51 150.67 M222.1 150.63 C156.33 150.75, 89.12 150.43, -0.59 150.37 M-1.05 148.76 C-1.69 106.01, 1.1 63.17, 1.39 1.12 M0.19 150.06 C0.47 113.2, -0.29 78.56, -0.97 -0.55" stroke="#000000" stroke-width="1" fill="none"></path></g><g transform="translate(441.53571428571377 57.53174603174563) rotate(0 67 22.5)"><text x="0" y="32" font-family="Virgil, Segoe UI Emoji" font-size="36px" fill="#000000" text-anchor="start" style="white-space: pre;" direction="ltr">Patient</text></g><g stroke-linecap="round" transform="translate(460.39285714285677 109.55952380952351) rotate(0 55 50)"><path d="M40.14 2.22 C48.22 -0.62, 58.68 -0.93, 67.4 1.08 C76.13 3.09, 85.76 8.24, 92.52 14.26 C99.29 20.29, 105.3 29.2, 107.99 37.25 C110.67 45.29, 110.7 54.76, 108.62 62.53 C106.54 70.3, 101.97 77.99, 95.5 83.87 C89.03 89.76, 78.94 95.48, 69.81 97.84 C60.67 100.2, 49.43 100.06, 40.7 98.06 C31.96 96.06, 23.84 91.7, 17.38 85.83 C10.92 79.96, 4.6 70.83, 1.93 62.84 C-0.74 54.85, -0.89 45.7, 1.34 37.88 C3.57 30.06, 7.56 22.16, 15.3 15.93 C23.03 9.7, 41.09 2.91, 47.74 0.5 C54.39 -1.91, 54.97 0.73, 55.2 1.48 M36.21 3.69 C44.08 -0.21, 55.83 -1.04, 64.64 -0.01 C73.45 1.02, 81.94 4.52, 89.06 9.89 C96.18 15.27, 104.19 24.39, 107.36 32.24 C110.52 40.09, 109.36 48.79, 108.05 57 C106.74 65.21, 104.74 75.07, 99.48 81.49 C94.23 87.91, 85.14 92.29, 76.51 95.51 C67.88 98.73, 56.93 101.82, 47.7 100.82 C38.47 99.81, 28.52 94.97, 21.15 89.48 C13.77 83.99, 6.92 75.76, 3.44 67.87 C-0.03 59.98, -1.35 50.2, 0.28 42.15 C1.9 34.11, 7.27 26.29, 13.21 19.59 C19.15 12.89, 32.43 4.32, 35.92 1.96 C39.41 -0.41, 34 4.27, 34.15 5.39" stroke="none" stroke-width="0" fill="#fa5252"></path><path d="M46.77 0.01 C55.25 -1.72, 67.25 0.63, 75.64 3.77 C84.03 6.92, 91.41 12.52, 97.12 18.89 C102.83 25.26, 108.48 33.85, 109.9 42 C111.33 50.16, 109.2 59.91, 105.67 67.82 C102.15 75.72, 95.74 84.09, 88.75 89.43 C81.77 94.77, 72.69 98.73, 63.77 99.85 C54.85 100.97, 43.93 99.15, 35.23 96.15 C26.53 93.15, 17.46 88.32, 11.56 81.87 C5.66 75.42, 1.1 65.96, -0.14 57.46 C-1.39 48.96, 0.55 38.7, 4.11 30.85 C7.68 23.01, 13.79 15.47, 21.25 10.41 C28.71 5.35, 44.08 1.98, 48.87 0.51 C53.66 -0.96, 50 0.91, 49.99 1.57 M56.07 -0.35 C64.79 -0.88, 74.54 3.67, 82.5 7.76 C90.47 11.85, 99.45 17.13, 103.86 24.2 C108.28 31.28, 109.09 41.98, 109 50.22 C108.91 58.45, 107.59 66.25, 103.33 73.6 C99.06 80.95, 91.65 89.82, 83.42 94.29 C75.18 98.75, 63.29 100.55, 53.9 100.39 C44.51 100.23, 34.66 97.63, 27.06 93.31 C19.47 88.99, 12.62 81.58, 8.33 74.47 C4.03 67.36, 1.72 58.91, 1.29 50.64 C0.85 42.37, 1.42 32.22, 5.71 24.86 C9.99 17.5, 18.75 10.35, 26.99 6.45 C35.24 2.55, 50.54 2.6, 55.18 1.45 C59.81 0.3, 55.12 -0.85, 54.81 -0.46" stroke="#000000" stroke-width="1" fill="none"></path></g><g transform="translate(465.39285714285677 147.0595238095235) rotate(0 50 12.5)"><text x="49.999999999999986" y="18" font-family="Virgil, Segoe UI Emoji" font-size="20px" fill="#000000" text-anchor="middle" style="white-space: pre;" direction="ltr">has keys</text></g><g stroke-linecap="round" transform="translate(804.7857142857134 10) rotate(0 132.75 103.75)"><path d="M-0.63 -0.43 L266.55 -0.14 L266.26 207.58 L0.25 205.53" stroke="none" stroke-width="0" fill="#fab005"></path><path d="M-0.42 -0.36 C87.08 1.77, 175.81 1.57, 263.92 -1.22 M0.56 0.17 C96.9 -0.56, 195.03 -0.24, 265.41 0.21 M265.19 -0.41 C267.62 71.18, 265.51 141.02, 266.39 209 M265.73 0.05 C265.56 71.29, 266.05 143.76, 264.78 206.94 M264.64 207.68 C207.88 206.72, 147.39 208.94, 0.49 208.16 M265.56 208.25 C194.3 208.58, 123.89 209.62, 0.13 207.32 M0.31 207.6 C1.7 146.43, -0.7 89.03, 0.44 -0.02 M0.05 206.86 C1.66 139.71, 1.35 71.38, -0.41 -0.28" stroke="#000000" stroke-width="1" fill="none"></path></g><g stroke-linecap="round" transform="translate(864.2857142857134 130) rotate(0 64 60)"><path d="M34 7.03 C41.82 2.04, 54.08 0.67, 63.87 0.52 C73.65 0.37, 83.97 2.06, 92.71 6.16 C101.45 10.25, 110.6 17.25, 116.31 25.08 C122.03 32.91, 125.64 43.86, 127.01 53.15 C128.38 62.44, 127.82 72.28, 124.54 80.81 C121.25 89.34, 114.75 98.1, 107.3 104.32 C99.85 110.54, 89.63 115.85, 79.84 118.1 C70.04 120.36, 58.19 119.85, 48.55 117.83 C38.9 115.81, 29.43 112.01, 21.97 105.99 C14.52 99.97, 7.28 90.55, 3.81 81.71 C0.34 72.87, 0.09 62.06, 1.16 52.96 C2.23 43.86, 4.01 35.24, 10.25 27.11 C16.48 18.99, 33.13 8, 38.58 4.2 C44.03 0.4, 42.45 3.29, 42.95 4.3 M38.6 4.13 C47.1 -0.3, 58.27 0.33, 68 1.09 C77.73 1.85, 88.63 4.14, 96.99 8.68 C105.34 13.21, 112.87 20.52, 118.13 28.3 C123.38 36.09, 127.92 46.29, 128.52 55.39 C129.12 64.5, 125.73 74.35, 121.72 82.94 C117.72 91.53, 112.23 101.04, 104.48 106.94 C96.73 112.84, 85.08 116.62, 75.23 118.33 C65.39 120.04, 54.66 119.61, 45.4 117.2 C36.14 114.8, 26.95 110.61, 19.67 103.88 C12.38 97.16, 4.72 85.93, 1.67 76.86 C-1.38 67.79, -0.77 58.52, 1.36 49.49 C3.49 40.46, 8.5 29.78, 14.45 22.69 C20.39 15.6, 33.1 9.5, 37.02 6.95 C40.94 4.39, 37.63 6.8, 37.95 7.37" stroke="none" stroke-width="0" fill="#fa5252"></path><path d="M88.84 3.79 C97.8 6.13, 106.32 13.39, 112.52 20.65 C118.72 27.9, 123.87 38.23, 126.05 47.32 C128.22 56.42, 128.26 66.4, 125.58 75.22 C122.9 84.03, 116.51 93.24, 109.96 100.21 C103.42 107.17, 95.65 113.65, 86.3 117 C76.95 120.35, 63.84 121.72, 53.86 120.29 C43.88 118.86, 34.18 113.91, 26.4 108.44 C18.62 102.96, 11.72 95.64, 7.19 87.45 C2.65 79.25, -1.05 68.77, -0.8 59.27 C-0.54 49.77, 3.82 38.74, 8.73 30.45 C13.64 22.17, 20.53 14.71, 28.68 9.56 C36.84 4.41, 47.4 0.46, 57.66 -0.46 C67.92 -1.38, 84.65 2.76, 90.24 4.05 C95.83 5.34, 91.88 6.1, 91.21 7.3 M85.45 3.18 C94.6 5.32, 103.79 13.58, 110.49 20.22 C117.18 26.87, 122.85 34.03, 125.63 43.05 C128.42 52.07, 129.14 65.14, 127.19 74.35 C125.24 83.56, 120.65 91.6, 113.95 98.29 C107.26 104.98, 96.62 110.98, 87.02 114.52 C77.41 118.05, 65.81 120.26, 56.32 119.48 C46.84 118.69, 38.07 114.8, 30.12 109.8 C22.17 104.81, 13.6 97.81, 8.63 89.49 C3.67 81.17, 0.59 69.03, 0.32 59.87 C0.05 50.71, 2.69 42.78, 7.04 34.5 C11.39 26.23, 18.18 16.03, 26.42 10.2 C34.65 4.37, 46.8 0.87, 56.46 -0.47 C66.11 -1.81, 79.71 1.15, 84.34 2.16 C88.97 3.16, 84.62 4.6, 84.24 5.55" stroke="#000000" stroke-width="1" fill="none"></path></g><g transform="translate(869.0357142857134 165) rotate(0 59 25)"><text x="59" y="18" font-family="Virgil, Segoe UI Emoji" font-size="20px" fill="#000000" text-anchor="middle" style="white-space: pre;" direction="ltr">Creates </text><text x="59" y="43" font-family="Virgil, Segoe UI Emoji" font-size="20px" fill="#000000" text-anchor="middle" style="white-space: pre;" direction="ltr">Keys</text></g><g stroke-linecap="round" transform="translate(298.75487166941525 494.65621039866284) rotate(0 65.01893785439364 63.76857366488608)"><path d="M0.36 -1.17 L131.66 0.98 L129.79 126.08 L1.84 127.89" stroke="none" stroke-width="0" fill="#fd7e14"></path><path d="M0.38 -0.98 C35.33 1.93, 74.77 0.78, 130.47 0.94 M0.28 -0.62 C39.94 0.23, 78.16 1.61, 130.52 -0.26 M128.42 -1.64 C131.36 38.43, 129.2 72.49, 129.1 129.11 M130.15 -0.86 C129.99 40.46, 129.98 81.46, 129.64 127.35 M129.06 128.02 C92.33 127.87, 58.39 128.75, 0.86 125.67 M130.94 126.67 C89.75 126.75, 47.42 126.23, -0.07 126.67 M1.37 125.81 C-1.72 79.42, -0.8 30.19, 0.33 1.44 M0.5 127.08 C-1.44 98.36, -0.8 69.98, -0.25 -0.98" stroke="#000000" stroke-width="1" fill="none"></path></g><g stroke-linecap="round" transform="translate(350.438844988165 503.9464006682604) rotate(0 13.838170744532306 13.838170744532334)"><path d="M16.53 -0.59 C19.61 -0.04, 23.64 3.52, 25.51 6.1 C27.38 8.68, 28.13 12.13, 27.77 14.9 C27.41 17.66, 25.25 20.58, 23.33 22.71 C21.42 24.84, 19.03 27.17, 16.28 27.68 C13.53 28.2, 9.32 27.49, 6.85 25.8 C4.37 24.1, 2.34 20.48, 1.43 17.52 C0.53 14.55, 0.37 10.73, 1.42 8.01 C2.48 5.3, 5.07 2.41, 7.74 1.21 C10.42 0.02, 15.49 0.6, 17.47 0.85 C19.45 1.09, 19.61 2.63, 19.63 2.67 M15.81 -0.13 C18.6 -0.03, 20.54 3.16, 22.55 5.46 C24.57 7.75, 27.29 10.97, 27.89 13.63 C28.5 16.3, 27.94 18.98, 26.16 21.45 C24.39 23.92, 20.19 27.86, 17.25 28.46 C14.32 29.05, 11.06 26.39, 8.57 25.02 C6.08 23.64, 3.43 22.72, 2.31 20.19 C1.2 17.67, 1.37 12.9, 1.89 9.88 C2.42 6.86, 3.4 3.54, 5.45 2.08 C7.5 0.61, 12.78 1.63, 14.19 1.09 C15.6 0.56, 13.64 -1.15, 13.92 -1.13" stroke="none" stroke-width="0" fill="#fd7e14"></path><path d="M7.99 1.46 C10.48 0.08, 15.19 -0.16, 18 0.51 C20.81 1.17, 23.2 3.1, 24.85 5.44 C26.5 7.78, 27.97 11.59, 27.9 14.55 C27.82 17.51, 26.57 20.88, 24.42 23.2 C22.26 25.53, 17.98 28.24, 14.95 28.51 C11.93 28.78, 8.72 26.7, 6.28 24.84 C3.85 22.98, 1.04 20.31, 0.34 17.35 C-0.35 14.39, 0.76 9.73, 2.12 7.07 C3.48 4.41, 6.95 2.54, 8.48 1.4 C10.01 0.25, 11.22 0.19, 11.31 0.22 M18.88 1.23 C21.29 1.87, 23.46 4.07, 24.82 6.51 C26.18 8.96, 27.43 12.94, 27.03 15.89 C26.64 18.84, 24.79 22.3, 22.45 24.22 C20.1 26.13, 16.07 27.2, 12.96 27.37 C9.85 27.54, 6.03 27.11, 3.76 25.21 C1.5 23.32, -0.19 19.23, -0.62 16.01 C-1.04 12.8, -0.65 8.44, 1.23 5.9 C3.1 3.36, 7.54 1.83, 10.63 0.79 C13.72 -0.25, 18.34 -0.52, 19.78 -0.35 C21.21 -0.17, 19.66 1.17, 19.24 1.84" stroke="#000000" stroke-width="1" fill="none"></path></g><g stroke-linecap="round" transform="translate(354.9677008681971 508.22365344384133) rotate(0 9.4351164167266 9.435116416726572)"><path d="M4.62 1.7 C6.47 0.82, 10.57 0.18, 12.78 0.43 C14.99 0.68, 16.92 1.48, 17.87 3.19 C18.83 4.9, 18.8 8.5, 18.52 10.7 C18.25 12.9, 17.59 14.9, 16.23 16.38 C14.88 17.86, 12.54 19.35, 10.38 19.56 C8.23 19.76, 5.09 18.8, 3.29 17.6 C1.48 16.4, 0.04 14.51, -0.44 12.34 C-0.91 10.17, -0.9 6.62, 0.44 4.56 C1.78 2.5, 5.9 0.76, 7.59 -0.01 C9.28 -0.78, 10.73 -0.27, 10.58 -0.06 M6.53 -0.69 C8.36 -1.44, 12.49 -0.11, 14.54 1.03 C16.59 2.18, 18.21 4.46, 18.83 6.2 C19.45 7.93, 18.68 9.56, 18.26 11.46 C17.85 13.37, 18.11 16.2, 16.33 17.61 C14.54 19.01, 9.69 19.87, 7.55 19.89 C5.41 19.91, 4.81 19.36, 3.51 17.72 C2.2 16.08, 0.12 12.46, -0.28 10.07 C-0.67 7.68, -0.2 5.17, 1.14 3.37 C2.48 1.57, 7.06 -0.42, 7.75 -0.74 C8.45 -1.05, 5.47 1.19, 5.31 1.5" stroke="none" stroke-width="0" fill="#fd7e14"></path><path d="M11.82 0.72 C13.66 1, 15.92 1.81, 17 3.4 C18.08 4.99, 18.51 8.03, 18.29 10.26 C18.07 12.49, 17.06 15.35, 15.69 16.78 C14.31 18.21, 11.79 18.66, 10.03 18.83 C8.28 19, 6.78 18.93, 5.13 17.8 C3.49 16.67, 0.86 13.94, 0.14 12.05 C-0.58 10.17, 0.11 8.46, 0.82 6.48 C1.52 4.5, 2.41 1.09, 4.38 0.19 C6.36 -0.71, 11.4 1.11, 12.66 1.06 C13.91 1.02, 12.16 -0.27, 11.94 -0.11 M10.5 -1.25 C12.15 -1.2, 13.99 0.81, 15.22 2.49 C16.46 4.18, 17.68 6.84, 17.9 8.86 C18.11 10.88, 17.59 13.13, 16.53 14.62 C15.46 16.12, 13.18 17.4, 11.52 17.84 C9.86 18.27, 8.27 18.12, 6.56 17.22 C4.84 16.32, 2.34 13.98, 1.22 12.42 C0.1 10.87, -0.67 9.57, -0.17 7.89 C0.33 6.2, 2.71 3.59, 4.23 2.32 C5.74 1.04, 7.82 0.83, 8.92 0.26 C10.03 -0.32, 10.4 -1.05, 10.84 -1.14" stroke="#000000" stroke-width="1" fill="none"></path></g><g stroke-linecap="round" transform="translate(343.89716427257156 523.3198397106041) rotate(0 19.876645251237335 17.738018863445973)"><path d="M9.24 -0.98 L29.17 0.93 L38.23 1.99 L40.18 9.81 L39.76 25.82 L36.41 33.83 L29.65 37.23 L7.86 35.53 L3.97 34.21 L-0.52 26.41 L0.65 6.53 L0.6 0.58 L10.13 1.4" stroke="none" stroke-width="0" fill="#fd7e14"></path><path d="M8.87 0 M8.87 0 C16.06 0.48, 21.01 -0.23, 30.88 0 M8.87 0 C15.52 -0.49, 22.71 -0.26, 30.88 0 M30.88 0 C36.42 -0.39, 38.78 4.52, 39.75 8.87 M30.88 0 C35.67 0.56, 38.32 2.18, 39.75 8.87 M39.75 8.87 C38.12 15.58, 40.41 20.15, 39.75 26.61 M39.75 8.87 C39.96 15.02, 39.5 22.63, 39.75 26.61 M39.75 26.61 C38.02 34.19, 38.53 35.67, 30.88 35.48 M39.75 26.61 C41.33 30.53, 36.09 36.4, 30.88 35.48 M30.88 35.48 C25.38 34.1, 17.91 34.02, 8.87 35.48 M30.88 35.48 C23.27 35.07, 16.45 35.04, 8.87 35.48 M8.87 35.48 C0.99 35.83, -1.17 34.14, 0 26.61 M8.87 35.48 C4.08 35.19, -1.68 34.64, 0 26.61 M0 26.61 C-0.54 20.81, 1.36 16.06, 0 8.87 M0 26.61 C0.71 22.68, -0.4 18.92, 0 8.87 M0 8.87 C-1.19 4.34, 1.44 -1.95, 8.87 0 M0 8.87 C1.4 2.63, 2.68 2.09, 8.87 0" stroke="#000000" stroke-width="1" fill="none"></path></g><g stroke-linecap="round" transform="translate(350.18724188372346 515.0169372638863) rotate(0 2.3902294922373812 5.535268297812934)"><path d="M1.2 0 L3.59 0 L4.78 1.2 L4.78 9.88 L3.59 11.07 L0.3 10.77 L0 9.88 L0 1.2 L1.2 0" stroke="none" stroke-width="0" fill="#fd7e14"></path><path d="M1.2 0 M1.2 0 C1.89 0, 2.58 0, 3.59 0 M1.2 0 C1.81 0, 2.42 0, 3.59 0 M3.59 0 C4.38 0, 4.78 0.4, 4.78 1.2 M3.59 0 C4.38 0, 4.78 0.4, 4.78 1.2 M4.78 1.2 C4.78 3.63, 4.78 6.06, 4.78 9.88 M4.78 1.2 C4.78 4.35, 4.78 7.51, 4.78 9.88 M4.78 9.88 C4.78 10.67, 4.38 11.07, 3.59 11.07 M4.78 9.88 C4.78 10.67, 4.38 11.07, 3.59 11.07 M3.59 11.07 C2.67 11.07, 1.75 11.07, 1.2 11.07 M3.59 11.07 C2.83 11.07, 2.08 11.07, 1.2 11.07 M1.2 11.07 C0.4 11.07, 0 10.67, 0 9.88 M1.2 11.07 C0.4 11.07, 0 10.67, 0 9.88 M0 9.88 C0 7.12, 0 4.36, 0 1.2 M0 9.88 C0 7.12, 0 4.36, 0 1.2 M0 1.2 C0 0.4, 0.4 0, 1.2 0 M0 1.2 C0 0.4, 0.4 0, 1.2 0" stroke="#000000" stroke-width="1" fill="none"></path></g><g stroke-linecap="round" transform="translate(373.5863305972083 515.0169372638863) rotate(0 2.3902294922373812 6.541680715597096)"><path d="M1.2 0 L3.59 0 L4.78 1.2 L4.78 11.89 L3.59 13.08 L0.3 12.78 L0 11.89 L0 1.2 L1.2 0" stroke="none" stroke-width="0" fill="#fd7e14"></path><path d="M1.2 0 M1.2 0 C1.92 0, 2.65 0, 3.59 0 M1.2 0 C1.73 0, 2.26 0, 3.59 0 M3.59 0 C4.38 0, 4.78 0.4, 4.78 1.2 M3.59 0 C4.38 0, 4.78 0.4, 4.78 1.2 M4.78 1.2 C4.78 3.88, 4.78 6.57, 4.78 11.89 M4.78 1.2 C4.78 4.51, 4.78 7.82, 4.78 11.89 M4.78 11.89 C4.78 12.68, 4.38 13.08, 3.59 13.08 M4.78 11.89 C4.78 12.68, 4.38 13.08, 3.59 13.08 M3.59 13.08 C2.66 13.08, 1.74 13.08, 1.2 13.08 M3.59 13.08 C2.81 13.08, 2.03 13.08, 1.2 13.08 M1.2 13.08 C0.4 13.08, 0 12.68, 0 11.89 M1.2 13.08 C0.4 13.08, 0 12.68, 0 11.89 M0 11.89 C0 9.31, 0 6.72, 0 1.2 M0 11.89 C0 7.99, 0 4.09, 0 1.2 M0 1.2 C0 0.4, 0.4 0, 1.2 0 M0 1.2 C0 0.4, 0.4 0, 1.2 0" stroke="#000000" stroke-width="1" fill="none"></path></g><g stroke-linecap="round" transform="translate(367.42205453827285 516.2120520100041) rotate(0 2.8934357011294765 3.3337411339100527)"><path d="M0 0 L5.79 0 L5.79 6.67 L0 6.67" stroke="none" stroke-width="0" fill="#fd7e14"></path><path d="M0 0 C2 0, 4.01 0, 5.79 0 M0 0 C1.44 0, 2.89 0, 5.79 0 M5.79 0 C5.79 2.47, 5.79 4.94, 5.79 6.67 M5.79 0 C5.79 1.86, 5.79 3.72, 5.79 6.67 M5.79 6.67 C4.25 6.67, 2.71 6.67, 0 6.67 M5.79 6.67 C3.82 6.67, 1.85 6.67, 0 6.67 M0 6.67 C0 4.4, 0 2.13, 0 0 M0 6.67 C0 4.6, 0 2.54, 0 0" stroke="#000000" stroke-width="1" fill="none"></path></g><g stroke-linecap="round" transform="translate(355.34510552486574 516.337853562228) rotate(0 1.0064124177841336 3.3337411339100527)"><path d="M0 0 L2.01 0 L2.01 6.67 L0 6.67" stroke="none" stroke-width="0" fill="#fd7e14"></path><path d="M0 0 C0.67 0, 1.35 0, 2.01 0 M0 0 C0.61 0, 1.22 0, 2.01 0 M2.01 0 C2.01 1.7, 2.01 3.4, 2.01 6.67 M2.01 0 C2.01 1.58, 2.01 3.16, 2.01 6.67 M2.01 6.67 C1.28 6.67, 0.55 6.67, 0 6.67 M2.01 6.67 C1.58 6.67, 1.15 6.67, 0 6.67 M0 6.67 C0 4.56, 0 2.46, 0 0 M0 6.67 C0 4.81, 0 2.95, 0 0" stroke="#000000" stroke-width="1" fill="none"></path></g><g stroke-linecap="round"><g transform="translate(378.23069618228 523.9947651519569) rotate(0 -0.08578058634753916 -4.106177706338187)"><path d="M0 -0.32 C-0.47 -2.1, -0.51 -3.95, -0.41 -8.03 M-0.04 0.02 C0.27 -3.45, -0.37 -5.99, 0.28 -8.23" stroke="#000000" stroke-width="1" fill="none"></path></g></g><g stroke-linecap="round"><g transform="translate(350.0298346959622 523.6150265514905) rotate(0 0.007514686629860989 -4.027114434277863)"><path d="M-0.32 -0.45 C0.19 -3.08, 0.67 -5.58, 0.02 -7.34 M0.02 0.31 C-0.3 -3.13, 0.27 -5.32, -0.18 -8.37" stroke="#000000" stroke-width="1" fill="none"></path></g></g><g stroke-linecap="round"><g transform="translate(373.312402952923 523.2833626453305) rotate(0 0.11539998618366099 -3.755276203780582)"><path d="M-0.42 0.21 C-0.47 -1.96, -0.38 -5.21, 0.66 -7.19 M0.29 -0.31 C-0.3 -1.83, 0.27 -4.3, -0.29 -7.72" stroke="#000000" stroke-width="1" fill="none"></path></g></g><g stroke-linecap="round"><g transform="translate(355.2945504240739 523.2563497229868) rotate(0 0.04632584475695012 -4.027159531774231)"><path d="M0.21 -0.46 C0.69 -2.65, 0.05 -3.87, 0.36 -7.75 M-0.31 -0.31 C0.23 -1.93, -0.17 -4.68, -0.18 -7.25" stroke="#000000" stroke-width="1" fill="none"></path></g></g><g stroke-linecap="round" transform="translate(352.31248512766126 538.5707283440383) rotate(0 11.686161212887441 9.012209070955578)"><path d="M14.19 0.9 C16.41 1.19, 18.73 2.39, 20.13 3.87 C21.54 5.34, 22.65 8.05, 22.62 9.76 C22.59 11.47, 21.49 12.81, 19.97 14.14 C18.45 15.46, 15.74 17.33, 13.5 17.71 C11.27 18.1, 8.87 17.39, 6.56 16.45 C4.24 15.5, 0.67 13.7, -0.38 12.04 C-1.44 10.39, -0.93 8.36, 0.23 6.51 C1.4 4.67, 4.29 1.84, 6.61 0.96 C8.93 0.09, 12.62 1.2, 14.16 1.27 C15.7 1.33, 15.65 1.42, 15.83 1.37 M9.81 1.04 C12.06 0.98, 17.17 2.35, 19.33 3.27 C21.48 4.19, 22.36 5.08, 22.75 6.58 C23.14 8.08, 22.58 10.67, 21.65 12.28 C20.73 13.88, 19.7 15.16, 17.21 16.2 C14.72 17.24, 9.32 18.94, 6.73 18.53 C4.13 18.11, 2.5 15.46, 1.62 13.68 C0.75 11.91, 1.27 9.95, 1.46 7.89 C1.66 5.83, 1.27 2.42, 2.79 1.31 C4.31 0.2, 9.11 1.58, 10.58 1.23 C12.05 0.87, 11.52 -0.97, 11.62 -0.82" stroke="none" stroke-width="0" fill="#fd7e14"></path><path d="M17.52 1.33 C19.78 1.98, 21.11 3.32, 22.03 5.12 C22.94 6.93, 23.76 10.39, 23.02 12.14 C22.27 13.88, 19.52 14.5, 17.56 15.59 C15.6 16.68, 13.71 18.86, 11.27 18.69 C8.84 18.52, 4.91 15.95, 2.96 14.59 C1.01 13.24, -0.32 12.28, -0.42 10.56 C-0.53 8.84, 0.83 5.97, 2.32 4.28 C3.81 2.59, 6.14 1.04, 8.52 0.42 C10.91 -0.2, 15.06 0.46, 16.63 0.57 C18.2 0.68, 17.87 0.93, 17.94 1.1 M11.77 -0.7 C14.23 -1.02, 16.92 -0.72, 18.7 0.66 C20.48 2.04, 21.82 5.46, 22.45 7.59 C23.07 9.71, 23.65 11.79, 22.45 13.42 C21.26 15.05, 17.48 16.88, 15.29 17.37 C13.09 17.86, 11.23 17.1, 9.26 16.36 C7.3 15.61, 4.89 14.17, 3.5 12.92 C2.11 11.68, 1.15 10.62, 0.92 8.88 C0.68 7.15, 0.48 4.2, 2.08 2.51 C3.67 0.82, 8.85 -1.1, 10.49 -1.26 C12.12 -1.43, 11.81 0.98, 11.88 1.52" stroke="#000000" stroke-width="1" fill="none"></path></g><g stroke-linecap="round" transform="translate(359.8115857901254 528.9028807497682) rotate(0 4.1745244409906945 4.1745244409906945)"><path d="M5.22 -0.69 C6.1 -0.83, 6.95 -0.22, 7.56 0.45 C8.16 1.11, 8.96 2.28, 8.83 3.31 C8.7 4.34, 7.39 5.66, 6.76 6.63 C6.14 7.61, 5.84 9.12, 5.08 9.18 C4.32 9.24, 2.95 7.62, 2.2 6.99 C1.45 6.36, 0.8 5.95, 0.59 5.39 C0.38 4.83, 0.77 4.51, 0.94 3.62 C1.12 2.73, 0.77 0.6, 1.62 0.05 C2.48 -0.51, 5.28 0.12, 6.07 0.29 C6.87 0.47, 6.61 1.05, 6.4 1.07 M6.89 0.89 C7.82 1.35, 9.19 1.34, 9.33 1.99 C9.48 2.63, 8.35 3.67, 7.75 4.76 C7.16 5.86, 6.58 8.23, 5.75 8.58 C4.92 8.93, 3.35 7.15, 2.76 6.88 C2.17 6.61, 2.69 7.12, 2.2 6.98 C1.72 6.83, 0.09 7.01, -0.15 5.99 C-0.4 4.97, 0.4 1.93, 0.75 0.87 C1.1 -0.2, 0.89 -0.41, 1.94 -0.42 C3 -0.43, 6.6 0.67, 7.08 0.8 C7.56 0.93, 4.85 0.38, 4.81 0.36" stroke="none" stroke-width="0" fill="#fd7e14"></path><path d="M3.61 -0.13 C4.4 -0.53, 5.02 0.16, 5.88 0.46 C6.73 0.75, 8.5 0.73, 8.75 1.64 C9 2.55, 7.63 5, 7.38 5.92 C7.13 6.85, 7.97 6.85, 7.24 7.17 C6.51 7.49, 3.87 7.84, 2.99 7.86 C2.11 7.88, 2.4 7.87, 1.98 7.29 C1.56 6.7, 0.64 5.4, 0.46 4.33 C0.28 3.27, 0.44 1.64, 0.89 0.89 C1.35 0.13, 2.71 -0.09, 3.22 -0.2 C3.72 -0.31, 3.87 0.15, 3.91 0.22 M3.03 0.39 C3.83 -0.03, 4.57 -0.25, 5.59 0.22 C6.62 0.69, 8.65 2.49, 9.15 3.2 C9.66 3.91, 9.12 3.62, 8.62 4.5 C8.13 5.38, 7.34 7.63, 6.19 8.48 C5.05 9.32, 2.88 9.73, 1.76 9.57 C0.64 9.4, -0.33 8.65, -0.52 7.48 C-0.71 6.32, 0.36 3.62, 0.62 2.56 C0.87 1.5, 0.72 1.36, 1.03 1.14 C1.33 0.93, 1.79 1.42, 2.46 1.27 C3.14 1.12, 4.68 0.61, 5.08 0.25" stroke="#000000" stroke-width="1" fill="none"></path></g><g stroke-linecap="round" transform="translate(349.93563877927556 545.8993379182225) rotate(0 13.963972296755344 5.744045341927716)"><path d="M0 0 L27.93 0 L27.93 11.49 L0 11.49" stroke="none" stroke-width="0" fill="#fd7e14"></path><path d="M0 0 C9.17 0, 18.34 0, 27.93 0 M0 0 C6.12 0, 12.24 0, 27.93 0 M27.93 0 C27.93 3.58, 27.93 7.16, 27.93 11.49 M27.93 0 C27.93 2.88, 27.93 5.76, 27.93 11.49 M27.93 11.49 C17.04 11.49, 6.15 11.49, 0 11.49 M27.93 11.49 C17.63 11.49, 7.33 11.49, 0 11.49 M0 11.49 C0 7.47, 0 3.44, 0 0 M0 11.49 C0 7.48, 0 3.47, 0 0" stroke="#000000" stroke-width="1" fill="none"></path></g><g stroke-linecap="round"><g transform="translate(352.7123836796969 547.2814460523402) rotate(0 12.273546841246969 0.0847169385230302)"><path d="M0.06 1.75 C6.55 -0.4, 10.99 0.23, 24.99 -1.59 M-0.45 -0.78 C4.65 0.63, 10.42 0.3, 23.28 0.15" stroke="#000000" stroke-width="1" fill="none"></path></g></g><g transform="translate(342.8476176800401 577.1601604154091) rotate(0 29.73721998851238 26.433084434233223)"><text x="29.737219988512393" y="18.433084434233237" font-family="Virgil, Segoe UI Emoji" font-size="21.27172347316841px" fill="#000000" text-anchor="middle" style="white-space: pre;" direction="ltr">Auth </text><text x="29.737219988512393" y="44.866168868466474" font-family="Virgil, Segoe UI Emoji" font-size="21.27172347316841px" fill="#000000" text-anchor="middle" style="white-space: pre;" direction="ltr"> </text></g><g stroke-linecap="round" transform="translate(461.6120145265585 658.9419246843772) rotate(0 65.01893785439364 63.76857366488608)"><path d="M-0.28 1.21 L128.12 -1.42 L128.55 128.86 L-1.75 128.44" stroke="none" stroke-width="0" fill="#fd7e14"></path><path d="M-0.51 -0.53 C30.92 -2.04, 59.14 1.15, 128.67 -0.83 M-0.6 0.25 C41.53 -1.02, 82.43 -0.48, 130.02 -0.76 M131.4 -1.62 C129.78 35.27, 130.08 69.45, 128.08 128 M129.72 0.31 C129.54 49.75, 128.67 98.73, 130.5 126.83 M131.54 125.86 C101.3 128.78, 77.16 125.1, 0.43 129.24 M129.12 127.17 C96.15 128.51, 64.71 128.09, -0.03 128.29 M-0.96 129.37 C0.86 80.63, 1.07 33, -0.12 0.75 M-0.17 128.5 C-0.28 91.09, -0.11 54.05, 0.88 -0.7" stroke="#000000" stroke-width="1" fill="none"></path></g><g stroke-linecap="round" transform="translate(513.2959878453078 668.2321149539748) rotate(0 13.838170744532306 13.838170744532334)"><path d="M13.37 0.76 C16.22 0.62, 20.8 1.59, 23.16 3.22 C25.51 4.84, 26.87 7.57, 27.5 10.53 C28.13 13.49, 28.28 18.16, 26.95 20.97 C25.62 23.78, 22.3 26.39, 19.52 27.39 C16.73 28.38, 13.08 27.98, 10.24 26.92 C7.39 25.87, 4.22 23.66, 2.45 21.04 C0.68 18.43, -0.73 14.01, -0.39 11.25 C-0.06 8.49, 2.22 6.24, 4.44 4.48 C6.67 2.72, 11.43 1.26, 12.97 0.7 C14.51 0.13, 13.36 1.1, 13.66 1.1 M11.82 -1.08 C14.63 -1.43, 20.29 -0.57, 22.97 1.34 C25.66 3.25, 27.53 7.44, 27.94 10.37 C28.36 13.29, 27.07 16.11, 25.46 18.91 C23.85 21.7, 20.7 25.9, 18.29 27.12 C15.88 28.35, 13.73 27.06, 11 26.25 C8.28 25.45, 3.75 24.68, 1.96 22.3 C0.16 19.92, -0.35 15.07, 0.22 11.97 C0.79 8.86, 3.08 5.61, 5.38 3.67 C7.68 1.73, 12.57 1.04, 14.02 0.32 C15.47 -0.39, 14.29 -0.63, 14.07 -0.62" stroke="none" stroke-width="0" fill="#fd7e14"></path><path d="M17.56 -0.39 C20.4 0.13, 22.5 2.89, 24.3 5.48 C26.09 8.06, 28.45 12.16, 28.33 15.14 C28.2 18.11, 25.64 21.23, 23.56 23.31 C21.47 25.39, 18.76 27.14, 15.82 27.63 C12.88 28.12, 8.44 27.94, 5.92 26.24 C3.4 24.53, 1.54 20.31, 0.67 17.4 C-0.2 14.48, -0.52 11.26, 0.7 8.75 C1.92 6.24, 5.25 3.7, 8 2.32 C10.75 0.95, 15.29 0.64, 17.22 0.49 C19.16 0.33, 19.51 1.31, 19.6 1.39 M14.4 -0.39 C17.07 -0.14, 22.15 2.33, 24.37 4.35 C26.59 6.37, 27.8 8.65, 27.72 11.73 C27.64 14.8, 25.87 20.43, 23.91 22.8 C21.95 25.17, 18.64 25.46, 15.97 25.95 C13.29 26.43, 10.14 27.01, 7.86 25.69 C5.58 24.38, 3.66 20.49, 2.26 18.07 C0.86 15.64, -1.4 14.02, -0.53 11.14 C0.33 8.25, 4.74 2.41, 7.46 0.78 C10.17 -0.85, 14.56 1.6, 15.77 1.37 C16.98 1.14, 14.59 -0.39, 14.71 -0.6" stroke="#000000" stroke-width="1" fill="none"></path></g><g stroke-linecap="round" transform="translate(517.8248437253399 672.5093677295558) rotate(0 9.4351164167266 9.435116416726572)"><path d="M12.67 1.09 C14.68 1.51, 16.49 2.49, 17.44 4.18 C18.39 5.86, 18.48 9.13, 18.35 11.22 C18.22 13.3, 17.91 15.29, 16.67 16.68 C15.43 18.07, 13.04 19.42, 10.92 19.56 C8.79 19.7, 5.71 18.89, 3.93 17.51 C2.15 16.14, 0.83 13.35, 0.22 11.3 C-0.38 9.26, -0.75 7.14, 0.29 5.24 C1.33 3.34, 4.26 0.81, 6.44 -0.1 C8.63 -1.01, 12.1 -0.56, 13.39 -0.22 C14.68 0.12, 14.46 1.69, 14.17 1.94 M11.13 1.42 C13.02 2.17, 14.82 3.62, 16.07 5.02 C17.32 6.42, 18.86 8.13, 18.66 9.83 C18.45 11.53, 16.17 13.54, 14.82 15.21 C13.46 16.88, 12.51 19.63, 10.51 19.85 C8.51 20.07, 4.42 17.9, 2.83 16.53 C1.24 15.16, 1.33 13.36, 0.96 11.64 C0.6 9.93, -0.13 7.87, 0.64 6.24 C1.41 4.61, 3.61 2.64, 5.6 1.87 C7.58 1.09, 11.59 1.85, 12.54 1.59 C13.48 1.34, 11.53 0.17, 11.26 0.35" stroke="none" stroke-width="0" fill="#fd7e14"></path><path d="M5.49 0.17 C7.37 -0.65, 10.66 0.56, 12.82 1.21 C14.98 1.87, 17.42 2.45, 18.45 4.09 C19.48 5.73, 19.45 9.06, 18.98 11.04 C18.51 13.03, 17.1 14.71, 15.62 16.01 C14.15 17.32, 12.28 18.79, 10.11 18.85 C7.95 18.92, 4.29 17.57, 2.64 16.4 C0.99 15.22, 0.32 13.89, 0.2 11.81 C0.08 9.73, 0.71 5.82, 1.93 3.94 C3.14 2.06, 6.28 1.12, 7.49 0.53 C8.7 -0.07, 9.28 0.23, 9.18 0.37 M13.05 1.4 C14.93 2.31, 17.35 4.03, 18.04 5.62 C18.73 7.21, 17.65 9.2, 17.21 10.96 C16.78 12.72, 17.12 14.82, 15.45 16.17 C13.77 17.52, 9.35 18.89, 7.14 19.06 C4.93 19.22, 3.57 18.83, 2.17 17.15 C0.78 15.48, -1.37 11.03, -1.23 9.03 C-1.08 7.03, 1.9 6.55, 3.04 5.15 C4.18 3.75, 3.65 1.43, 5.61 0.61 C7.57 -0.21, 13.66 -0.05, 14.8 0.23 C15.95 0.51, 12.99 2.13, 12.48 2.3" stroke="#000000" stroke-width="1" fill="none"></path></g><g stroke-linecap="round" transform="translate(506.75430712971433 687.6055539963186) rotate(0 19.876645251237335 17.738018863445973)"><path d="M8.36 -0.53 L31.71 -1.41 L36.48 3.99 L38.39 8.04 L40.14 27.92 L39.26 32.06 L31.38 35.49 L9.06 34.23 L3.49 33.22 L-1.52 26.03 L0.66 6.39 L3.58 0.59 L8.54 0.71" stroke="none" stroke-width="0" fill="#fd7e14"></path><path d="M8.87 0 M8.87 0 C15.92 2.01, 21.24 -1.18, 30.88 0 M8.87 0 C14.81 -0.87, 19.98 0.46, 30.88 0 M30.88 0 C35.38 -1.81, 40.06 2.27, 39.75 8.87 M30.88 0 C38.53 -1.92, 38.04 4.9, 39.75 8.87 M39.75 8.87 C41.08 14.81, 38.43 23.81, 39.75 26.61 M39.75 8.87 C39.63 13.04, 39.26 16.23, 39.75 26.61 M39.75 26.61 C41.26 34.05, 37.31 35.71, 30.88 35.48 M39.75 26.61 C38.65 34.63, 38.15 36.72, 30.88 35.48 M30.88 35.48 C23.49 35.29, 13.53 34.24, 8.87 35.48 M30.88 35.48 C25.35 34.47, 19.23 36.14, 8.87 35.48 M8.87 35.48 C1.55 35.2, 1.21 30.6, 0 26.61 M8.87 35.48 C1.32 33.76, 1.52 30.51, 0 26.61 M0 26.61 C-1.18 19.11, 0.77 15.54, 0 8.87 M0 26.61 C0.13 22.09, 0.72 17.93, 0 8.87 M0 8.87 C1.52 3.34, 4.51 -1.24, 8.87 0 M0 8.87 C-0.39 1.39, 5.05 -0.09, 8.87 0" stroke="#000000" stroke-width="1" fill="none"></path></g><g stroke-linecap="round" transform="translate(513.0443847408662 679.3026515496008) rotate(0 2.3902294922373812 5.535268297812934)"><path d="M1.2 0 L3.59 0 L4.78 1.2 L4.78 9.88 L3.59 11.07 L0.3 10.77 L0 9.88 L0 1.2 L1.2 0" stroke="none" stroke-width="0" fill="#fd7e14"></path><path d="M1.2 0 M1.2 0 C1.84 0, 2.49 0, 3.59 0 M1.2 0 C1.91 0, 2.62 0, 3.59 0 M3.59 0 C4.38 0, 4.78 0.4, 4.78 1.2 M3.59 0 C4.38 0, 4.78 0.4, 4.78 1.2 M4.78 1.2 C4.78 3.01, 4.78 4.83, 4.78 9.88 M4.78 1.2 C4.78 4.51, 4.78 7.82, 4.78 9.88 M4.78 9.88 C4.78 10.67, 4.38 11.07, 3.59 11.07 M4.78 9.88 C4.78 10.67, 4.38 11.07, 3.59 11.07 M3.59 11.07 C2.69 11.07, 1.79 11.07, 1.2 11.07 M3.59 11.07 C2.7 11.07, 1.82 11.07, 1.2 11.07 M1.2 11.07 C0.4 11.07, 0 10.67, 0 9.88 M1.2 11.07 C0.4 11.07, 0 10.67, 0 9.88 M0 9.88 C0 7.39, 0 4.91, 0 1.2 M0 9.88 C0 6.88, 0 3.89, 0 1.2 M0 1.2 C0 0.4, 0.4 0, 1.2 0 M0 1.2 C0 0.4, 0.4 0, 1.2 0" stroke="#000000" stroke-width="1" fill="none"></path></g><g stroke-linecap="round" transform="translate(536.443473454351 679.3026515496008) rotate(0 2.3902294922373812 6.541680715597096)"><path d="M1.2 0 L3.59 0 L4.78 1.2 L4.78 11.89 L3.59 13.08 L0.3 12.78 L0 11.89 L0 1.2 L1.2 0" stroke="none" stroke-width="0" fill="#fd7e14"></path><path d="M1.2 0 M1.2 0 C1.92 0, 2.65 0, 3.59 0 M1.2 0 C1.95 0, 2.71 0, 3.59 0 M3.59 0 C4.38 0, 4.78 0.4, 4.78 1.2 M3.59 0 C4.38 0, 4.78 0.4, 4.78 1.2 M4.78 1.2 C4.78 4.57, 4.78 7.94, 4.78 11.89 M4.78 1.2 C4.78 3.34, 4.78 5.48, 4.78 11.89 M4.78 11.89 C4.78 12.68, 4.38 13.08, 3.59 13.08 M4.78 11.89 C4.78 12.68, 4.38 13.08, 3.59 13.08 M3.59 13.08 C2.81 13.08, 2.03 13.08, 1.2 13.08 M3.59 13.08 C2.7 13.08, 1.81 13.08, 1.2 13.08 M1.2 13.08 C0.4 13.08, 0 12.68, 0 11.89 M1.2 13.08 C0.4 13.08, 0 12.68, 0 11.89 M0 11.89 C0 8.03, 0 4.18, 0 1.2 M0 11.89 C0 8.78, 0 5.67, 0 1.2 M0 1.2 C0 0.4, 0.4 0, 1.2 0 M0 1.2 C0 0.4, 0.4 0, 1.2 0" stroke="#000000" stroke-width="1" fill="none"></path></g><g stroke-linecap="round" transform="translate(530.2791973954157 680.4977662957185) rotate(0 2.8934357011294765 3.3337411339100527)"><path d="M0 0 L5.79 0 L5.79 6.67 L0 6.67" stroke="none" stroke-width="0" fill="#fd7e14"></path><path d="M0 0 C1.33 0, 2.65 0, 5.79 0 M0 0 C1.79 0, 3.58 0, 5.79 0 M5.79 0 C5.79 2.24, 5.79 4.48, 5.79 6.67 M5.79 0 C5.79 2.03, 5.79 4.06, 5.79 6.67 M5.79 6.67 C3.56 6.67, 1.34 6.67, 0 6.67 M5.79 6.67 C4.09 6.67, 2.39 6.67, 0 6.67 M0 6.67 C0 4.31, 0 1.95, 0 0 M0 6.67 C0 4.2, 0 1.74, 0 0" stroke="#000000" stroke-width="1" fill="none"></path></g><g stroke-linecap="round" transform="translate(518.2022483820085 680.6235678479425) rotate(0 1.0064124177841336 3.3337411339100527)"><path d="M0 0 L2.01 0 L2.01 6.67 L0 6.67" stroke="none" stroke-width="0" fill="#fd7e14"></path><path d="M0 0 C0.5 0, 1 0, 2.01 0 M0 0 C0.48 0, 0.96 0, 2.01 0 M2.01 0 C2.01 1.99, 2.01 3.99, 2.01 6.67 M2.01 0 C2.01 1.42, 2.01 2.84, 2.01 6.67 M2.01 6.67 C1.24 6.67, 0.48 6.67, 0 6.67 M2.01 6.67 C1.3 6.67, 0.59 6.67, 0 6.67 M0 6.67 C0 4.2, 0 1.73, 0 0 M0 6.67 C0 5.2, 0 3.73, 0 0" stroke="#000000" stroke-width="1" fill="none"></path></g><g stroke-linecap="round"><g transform="translate(541.0878390394225 688.2804794376714) rotate(0 0.1588672508619311 -4.013144315772962)"><path d="M0.16 0.53 C0.75 -3.61, 0.25 -6.25, 0.08 -8.55 M-0.12 0.02 C0.28 -2.65, -0.33 -5.92, 0.14 -8.06" stroke="#000000" stroke-width="1" fill="none"></path></g></g><g stroke-linecap="round"><g transform="translate(512.886977553105 687.9007408372049) rotate(0 0.012505355363771287 -3.6439930151755675)"><path d="M0.53 0.69 C-0.45 -1.67, 0.04 -3.65, -0.5 -7.54 M0.02 0.28 C0.34 -2.73, 0 -4.66, 0 -7.98" stroke="#000000" stroke-width="1" fill="none"></path></g></g><g stroke-linecap="round"><g transform="translate(536.1695458100656 687.569076931045) rotate(0 0.31677957618791197 -3.8298335109638515)"><path d="M0.65 -0.45 C0.17 -1.95, 0.06 -4.37, 0.48 -7.56 M0.26 0.26 C-0.28 -1.75, 0.16 -3.38, 0.07 -7.92" stroke="#000000" stroke-width="1" fill="none"></path></g></g><g stroke-linecap="round"><g transform="translate(518.1516932812167 687.5420640087012) rotate(0 -0.09692664359295122 -3.9687908720199516)"><path d="M-0.45 0.19 C-0.04 -2.34, -0.52 -4.34, -0.01 -8.12 M0.26 -0.31 C-0.07 -1.91, -0.01 -4.02, -0.37 -7.46" stroke="#000000" stroke-width="1" fill="none"></path></g></g><g stroke-linecap="round" transform="translate(515.169627984804 702.8564426297528) rotate(0 11.686161212887441 9.012209070955578)"><path d="M14.75 0.7 C16.95 0.87, 19.9 1.87, 21.23 3.37 C22.56 4.87, 22.77 7.85, 22.71 9.7 C22.64 11.55, 22.41 13.22, 20.84 14.47 C19.27 15.72, 15.82 16.74, 13.3 17.2 C10.78 17.66, 7.98 18.24, 5.71 17.23 C3.44 16.22, 0.33 13.31, -0.33 11.13 C-0.99 8.96, 0.67 6.02, 1.74 4.18 C2.82 2.33, 3.34 0.69, 6.13 0.07 C8.91 -0.55, 16.03 -0.03, 18.44 0.45 C20.84 0.92, 20.86 2.77, 20.56 2.93 M6.38 0.27 C8.54 -0.68, 13.53 -0.28, 15.99 0.57 C18.45 1.42, 19.98 3.55, 21.16 5.35 C22.34 7.15, 23.28 9.45, 23.06 11.37 C22.84 13.29, 21.8 15.79, 19.83 16.85 C17.85 17.92, 13.93 17.65, 11.21 17.76 C8.49 17.87, 5.34 18.73, 3.5 17.5 C1.67 16.28, 0.77 12.52, 0.21 10.4 C-0.36 8.28, -0.96 6.21, 0.12 4.77 C1.19 3.33, 5.35 2.58, 6.66 1.78 C7.98 0.98, 7.75 -0.16, 8.01 -0.01" stroke="none" stroke-width="0" fill="#fd7e14"></path><path d="M12.36 -0.02 C14.6 -0.07, 16.65 0.47, 18.47 1.84 C20.28 3.2, 22.59 6.36, 23.25 8.18 C23.92 9.99, 23.76 11.12, 22.47 12.73 C21.17 14.34, 17.95 17.03, 15.48 17.85 C13.01 18.67, 10.13 18.33, 7.64 17.64 C5.16 16.96, 1.66 15.49, 0.57 13.72 C-0.52 11.95, 0.59 9.02, 1.08 7.02 C1.57 5.03, 1.44 2.93, 3.51 1.77 C5.58 0.61, 11.66 0.44, 13.51 0.08 C15.37 -0.28, 14.83 -0.63, 14.63 -0.4 M7.12 1.69 C9.32 0.72, 11.72 -1.25, 14.37 -0.59 C17.03 0.08, 21.82 3.78, 23.04 5.69 C24.27 7.6, 22.13 9.27, 21.71 10.85 C21.29 12.44, 22.34 13.79, 20.52 15.18 C18.7 16.58, 13.72 19.18, 10.78 19.22 C7.83 19.25, 4.85 16.84, 2.84 15.39 C0.84 13.95, -1.16 12.46, -1.25 10.53 C-1.33 8.6, 0.86 5.29, 2.33 3.82 C3.81 2.35, 6.5 2.14, 7.59 1.69 C8.68 1.23, 8.75 1.28, 8.86 1.11" stroke="#000000" stroke-width="1" fill="none"></path></g><g stroke-linecap="round" transform="translate(522.6687286472682 693.1885950354826) rotate(0 4.1745244409906945 4.1745244409906945)"><path d="M5.98 0.17 C6.58 0.31, 6.9 0.53, 7.25 1.48 C7.61 2.43, 8.34 4.76, 8.12 5.86 C7.89 6.96, 6.68 7.52, 5.89 8.07 C5.1 8.62, 3.96 9.39, 3.38 9.16 C2.79 8.93, 2.95 7.28, 2.37 6.67 C1.8 6.06, 0.39 6.39, -0.07 5.5 C-0.54 4.62, -0.74 2.14, -0.4 1.38 C-0.05 0.61, 1 0.95, 2 0.91 C3.01 0.88, 4.78 1.17, 5.64 1.16 C6.49 1.16, 7.13 1.04, 7.12 0.9 M4.65 0.83 C5.35 1.04, 6.81 0.65, 7.61 1.2 C8.42 1.75, 9.36 3.12, 9.49 4.13 C9.62 5.14, 9 6.73, 8.4 7.27 C7.81 7.81, 7.02 7.48, 5.91 7.38 C4.79 7.28, 2.42 7.01, 1.69 6.68 C0.97 6.35, 1.88 6.28, 1.57 5.39 C1.25 4.5, -0.32 2.28, -0.21 1.37 C-0.11 0.45, 1.12 -0.02, 2.18 -0.12 C3.25 -0.22, 5.83 0.61, 6.17 0.75 C6.5 0.89, 4.19 0.93, 4.19 0.73" stroke="none" stroke-width="0" fill="#fd7e14"></path><path d="M4.35 -0.76 C5.26 -0.87, 5.94 0.31, 6.72 1.16 C7.49 2.01, 8.99 3.48, 9.01 4.33 C9.04 5.18, 7.41 5.63, 6.87 6.27 C6.33 6.91, 6.46 8.02, 5.77 8.15 C5.08 8.28, 3.58 7.24, 2.73 7.05 C1.89 6.85, 1.2 7.73, 0.7 6.98 C0.19 6.24, -0.4 3.53, -0.29 2.56 C-0.19 1.59, 0.44 1.57, 1.33 1.17 C2.21 0.76, 4.45 0.38, 5.01 0.13 C5.58 -0.12, 4.66 -0.29, 4.72 -0.35 M3.48 -0.83 C4 -0.96, 3.19 1.21, 4.08 1.39 C4.96 1.57, 8.01 -0.5, 8.78 0.23 C9.54 0.95, 9.04 4.77, 8.66 5.75 C8.28 6.73, 6.95 5.91, 6.47 6.11 C5.99 6.31, 6.66 6.94, 5.8 6.95 C4.93 6.97, 2.24 6.34, 1.28 6.2 C0.33 6.06, 0.34 6.74, 0.07 6.12 C-0.21 5.49, -0.93 3.19, -0.36 2.43 C0.21 1.67, 2.96 1.86, 3.48 1.56 C4 1.27, 3.05 0.57, 2.77 0.67" stroke="#000000" stroke-width="1" fill="none"></path></g><g stroke-linecap="round" transform="translate(512.7927816364183 710.185052203937) rotate(0 13.963972296755344 5.744045341927716)"><path d="M0 0 L27.93 0 L27.93 11.49 L0 11.49" stroke="none" stroke-width="0" fill="#fd7e14"></path><path d="M0 0 C6.71 0, 13.42 0, 27.93 0 M0 0 C10.28 0, 20.56 0, 27.93 0 M27.93 0 C27.93 3.08, 27.93 6.16, 27.93 11.49 M27.93 0 C27.93 4.31, 27.93 8.62, 27.93 11.49 M27.93 11.49 C22.11 11.49, 16.29 11.49, 0 11.49 M27.93 11.49 C20.89 11.49, 13.85 11.49, 0 11.49 M0 11.49 C0 8.24, 0 4.99, 0 0 M0 11.49 C0 8.86, 0 6.23, 0 0" stroke="#000000" stroke-width="1" fill="none"></path></g><g stroke-linecap="round"><g transform="translate(515.5695265368397 711.5671603380547) rotate(0 11.798676173919773 0.5377907873305219)"><path d="M-1.25 1.28 C7.57 -1.54, 14.64 0.1, 24.85 1.39 M-0.01 0.17 C4.15 0.16, 11.16 -0.46, 22.75 -0.29" stroke="#000000" stroke-width="1" fill="none"></path></g></g><g transform="translate(505.7047605371829 741.4458747011236) rotate(0 29.73721998851238 26.433084434233223)"><text x="29.737219988512393" y="18.433084434233237" font-family="Virgil, Segoe UI Emoji" font-size="21.27172347316841px" fill="#000000" text-anchor="middle" style="white-space: pre;" direction="ltr">Auth </text><text x="29.737219988512393" y="44.866168868466474" font-family="Virgil, Segoe UI Emoji" font-size="21.27172347316841px" fill="#000000" text-anchor="middle" style="white-space: pre;" direction="ltr"> </text></g><g stroke-linecap="round" transform="translate(478.51471761337496 492.53934219662915) rotate(0 46.7063222775771 70.87424872063343)"><path d="M0 0 C0 0, 0 0, 0 0 M0 0 C0 0, 0 0, 0 0 M0.15 5.69 C2.35 4.65, 4.4 2.56, 5.19 0.81 M-0.04 6.39 C0.75 5, 2.47 2.84, 4.76 0.65 M-0.99 10.8 C2.19 8.72, 5.46 5.89, 11.64 -0.1 M-0.64 11.55 C3.38 7.12, 7.43 3.38, 10.23 0.43 M-1.02 20.35 C4.3 11.68, 12.83 5.17, 14.45 -0.2 M0.33 19.32 C3.56 13.83, 7.34 8.73, 15.26 -0.18 M-0.75 22.25 C7.75 13.99, 15.2 3.32, 22.52 0.83 M-0.14 23.66 C7.4 15.72, 15.21 6.18, 20.65 -0.1 M0.02 30.82 C8.77 19.27, 17.43 10.26, 28.25 2.05 M0.72 30.81 C7.67 21.66, 15.11 12.47, 25.54 0.54 M-1.38 37.39 C11.08 26.39, 22.75 10.71, 31.38 1.47 M0.15 37.4 C9.4 25.33, 18.98 15.85, 32.57 0.04 M-1.11 41.74 C12.85 26.58, 24.58 13.5, 35.58 1.48 M-0.64 42.33 C12.43 27.8, 25.59 13.44, 37.18 0.06 M-1.27 49.76 C9.77 37.21, 17.81 29.32, 41.26 0.23 M0.31 49.88 C13.9 31.1, 29.01 14.18, 42.63 -0.68 M2.26 53.63 C14.88 35.23, 29.88 17.17, 45.83 1.15 M0.04 54.16 C13.57 37.76, 28.67 23.03, 47.48 0.5 M0.16 61.31 C19.34 38.17, 39.86 14.22, 52.6 0.34 M0.09 61.94 C10.25 48.82, 20.9 35.85, 52.51 -0.09 M-2.21 68.63 C11.04 52.75, 24.43 40.59, 59.02 0 M-1.16 67.16 C14.93 50.42, 28.21 34.78, 58.21 0.35 M-1.18 73.09 C14.6 55.81, 30.64 38.94, 65.52 -0.1 M0.28 73.98 C17.36 55, 32.43 36.85, 63.77 -1.18 M-1.22 77.45 C18.77 55.29, 40.91 31.53, 67.83 -1.21 M-0.29 78.78 C19.33 56.75, 38.66 34.24, 68.53 -0.62 M-0.75 83.98 C19.17 64.88, 33.18 45.32, 73.77 -2.16 M1.12 85.72 C24.95 58.64, 47.04 32.62, 74.94 -1.13 M-1.81 89.89 C24.62 64.2, 46.56 39.21, 79.58 -1.88 M-0.42 90.53 C30.81 56.26, 61.48 20.43, 80.04 -0.28 M0.02 97.49 C18.67 71.71, 42.2 48.87, 86.75 -0.04 M0.62 97.99 C28.69 63.16, 58.77 29.77, 84.44 -0.27 M1.31 101.88 C27.11 72.29, 53.55 39.4, 90.29 0.45 M-0.07 104.01 C30.6 69.25, 59.18 34.37, 89.75 0.83 M-1.69 108.67 C38.78 65.96, 77.13 21.77, 94.25 2.37 M0.16 110.66 C33.28 72.12, 65.37 34.35, 94.3 0.39 M-0.89 114.15 C35.06 74.27, 72.24 30.41, 96.69 6.88 M1.18 114.65 C34.61 77.34, 67.81 40.07, 95.2 7.26 M-0.02 122.71 C26.66 90.65, 51.41 60.57, 95.09 11.62 M-0.41 122.19 C22.85 99.13, 42.8 74.85, 93.94 14.23 M1.51 127.05 C24.56 102.12, 47.2 73.66, 94.73 20.77 M-1 127.46 C24.69 99.29, 49.73 69.19, 93.9 19.38 M0.21 133.86 C26.66 103.34, 53.91 74.23, 94.86 23.43 M0.82 133.64 C32.42 96.17, 65.64 57.26, 94.72 24.83 M-1.91 139.51 C32.44 103.12, 65.91 68.95, 96.3 31.33 M-0.03 141 C19.11 119.32, 39.12 95.38, 95.03 31.82 M2.8 141.97 C25.39 116.96, 52.01 90.47, 93.6 38.97 M2.18 144.11 C39.33 102.34, 76.26 59.32, 94.77 37.16 M7.33 143.27 C37.49 110.61, 65.48 77.91, 95.35 45.14 M7.83 144.65 C28.92 120.25, 50.51 96.02, 94.65 44.1 M12.82 143.46 C39.71 115.36, 62.39 86.46, 92.34 49 M11.99 142.75 C37.07 114.66, 62.88 87.81, 94.47 50.78 M18.85 142.98 C38.6 118.69, 63.18 93.21, 93.15 55.86 M18.74 143.68 C45.64 112.27, 72.93 79.47, 93.88 55.31 M22.88 143.91 C38.43 126.71, 52.44 111.96, 93.74 60.84 M23.9 144.4 C46.57 118.22, 68.86 92.57, 94.1 61.8 M26.61 145.38 C44.54 125.4, 59.73 109.52, 95.63 67.02 M29.44 143.41 C49.79 119.94, 70.52 94.47, 95.26 67.87 M34.79 144.99 C52.35 125.02, 69.37 106.3, 96.17 72.94 M33.52 143.42 C53.95 122.09, 72.68 99.01, 94.87 74.44 M37.5 142.28 C48.52 129.54, 63.81 115.91, 94.73 78.73 M38.89 143.24 C60.27 121.75, 78.44 97.64, 95.11 81.27 M45 144.16 C61.79 121, 80.85 100.62, 94.28 85.83 M44.89 144.49 C61.35 123.93, 78.95 105.26, 94.59 86.98 M50.04 144.34 C61.08 129.23, 74.09 115.81, 93 90.68 M49.94 143.4 C64.63 126.82, 78.77 112.2, 95.12 92.1 M54.64 144.76 C67.11 128.15, 83.67 110.84, 96.4 96.88 M55.46 143.62 C63.28 132.59, 73.71 122.69, 94 97.54 M60.43 143.06 C67.1 134.51, 75.03 126.9, 93.68 104.67 M60.38 143.95 C69.27 133.46, 79.34 123.18, 95.47 105.49 M67.47 141.96 C72.99 134.46, 84.89 123.16, 93.84 111.07 M65.1 143.15 C75.74 131.6, 86.35 120.32, 95.07 111.82 M72.54 144.77 C76.66 135.79, 86.34 126.29, 93.32 115.59 M71.93 143.75 C78.67 134.97, 85.93 125.43, 94.37 117.18 M75.94 144.77 C79.43 138.91, 85.22 133.74, 93.55 123.94 M77.11 142.75 C82.46 136.6, 88.89 128.76, 94.7 123.06 M79.86 144.68 C87.04 138.47, 89.81 133.63, 95.15 130.18 M81.22 143.51 C85.37 140.01, 88.92 135.83, 94.49 129.24 M87.2 142.69 C89.62 140.56, 91.91 138.43, 95.43 135.71 M87.24 143.99 C89.86 139.87, 93.42 136.52, 94.08 135.42 M0 141.75 C0 141.75, 0 141.75, 0 141.75 M0 141.75 C0 141.75, 0 141.75, 0 141.75 M5.94 142.45 C4.09 140.21, 3.7 138.65, -0.44 137.28 M6.64 142.04 C4.77 141.09, 3.6 140.05, 0.32 136.67 M11.68 141.8 C7.86 138.93, 1.87 133.2, 0.3 130.85 M11.44 140.92 C9.2 139.27, 6.37 137.18, 0.02 130.69 M17.15 141.19 C12.79 135.58, 6.68 131.16, -0.88 127.4 M18.53 142.08 C12.3 136.19, 4.86 130.34, 1.06 126.18 M25.57 141.78 C18.73 136.76, 10.03 128.34, 0.41 118.54 M23.21 141.83 C16.69 135.16, 7.99 126.62, 0.79 119.69 M28.97 143.38 C19.9 132.47, 10.64 127.37, 0.59 116.88 M29.83 142.11 C17.9 130.7, 6.8 121.59, 1.25 114.93 M38.13 141.73 C25.14 132.36, 18.87 124.97, -1.98 111.34 M37.38 142.65 C27.39 134.38, 18.65 128.32, -0.39 110.67 M42.41 141.92 C32.15 133.48, 23.43 124.86, -1.32 105.76 M42.32 141.48 C27.67 127.57, 10.19 113.8, 0.01 105.67 M47.53 141.81 C33.66 128.97, 19.42 116.19, -0.29 101.12 M48.53 142.74 C39.11 132.85, 28.81 123.82, 0.24 100.22 M55.84 142.89 C40.46 129.15, 24.57 113.96, -1.03 94.18 M54.81 140.82 C41.89 131.44, 29.32 120.42, -0.54 95.15 M59.97 140.92 C41.49 124.28, 23.96 109.76, -1.38 87.7 M60.57 141.42 C46.25 130.93, 32.73 118.59, -1.11 89.38 M67.05 140.85 C45.69 123.31, 26.12 109.46, -1.31 85.1 M67.31 141.75 C41.35 119.42, 15.94 95.45, -0.4 82.94 M72.57 140.15 C52.39 122.75, 30.48 105.43, 0.58 76.7 M72.59 142.21 C55.1 127.27, 38.07 110.53, -0.84 78.5 M80.19 142.27 C53.5 117.1, 23.86 93.3, 0.71 74.34 M78.99 141.25 C52.44 117.39, 25.05 93.07, -0.61 72.43 M84.07 141.44 C56.18 118.35, 27 91.81, -1.98 65.61 M84.59 142.44 C61.33 118.49, 35.66 96.88, -0.92 68.27 M92.37 143.41 C73.89 124.19, 53.33 110.3, -0.42 60.55 M91.69 142.6 C62.26 116.09, 32.65 89.14, -0.31 61.83 M94.62 139.6 C71.08 118.24, 46.54 97.5, 0.08 57.77 M94.25 140.29 C58.68 106.89, 21.73 74.84, 0.1 56.69 M96.27 134.5 C56.01 99.09, 21.7 69.24, -0.51 51.22 M95.63 134.53 C62.12 103.87, 27.55 73.43, 0.3 51.21 M97.52 130.36 C66.97 103.03, 35.03 77.68, -1.48 44.33 M95.62 129.86 C72.44 108.9, 50.18 88.39, 0.1 46.11 M96.07 124.78 C61.21 94.49, 27.19 65.38, 0.29 40.71 M94.28 123.26 C73.39 104.24, 50.5 84.94, 0.92 41.44 M96.77 117.38 C68.5 94.02, 38.54 69.59, -2.22 34.32 M95.77 119.17 C64.34 93.1, 33.73 65.58, 0.38 36.19 M95.85 112.66 C60.33 84.93, 31.66 57.58, -0.5 32.2 M95.75 113.68 C61.53 84.79, 27.29 54.47, 0.18 31.24 M94.54 106.66 C69.84 89.29, 45.74 66.25, 0.95 24.6 M95.16 107.53 C76.74 91.76, 56.05 75.68, -1.34 24.93 M94.57 101.14 C72.23 81.58, 46.08 60.39, -1.73 19.72 M94.85 101.71 C68.9 79.41, 42.82 57.4, 0.64 20.12 M95.84 98.33 C63.86 70.29, 31.39 41.89, 0.51 14.52 M95.4 98.41 C72.92 77.2, 49.65 58.71, 0.82 14.32 M95.85 91.04 C76.49 75.34, 54.84 57.26, -0.56 10.15 M95.76 92.62 C60.2 63.34, 25.6 33.12, -0.23 9.46 M95.38 85.4 C59.96 54.87, 21.84 21.05, 1.37 5.32 M95.03 87.11 C72.58 65.82, 49.04 46.93, 0.92 4.68 M93.96 83.03 C72.88 62.28, 55.94 46.81, 2.22 -2.15 M95.12 82 C64.09 52.49, 32.33 26.53, -0.26 0.11 M95.51 75.71 C60.08 49, 30.04 16.6, 6.11 -0.05 M94.52 75.76 C74.34 56.72, 50.84 37.47, 7.5 -0.43 M95.83 71.62 C73.42 52.82, 50.22 30.18, 13.32 -1.42 M94.97 70.76 C66.82 45.91, 39.88 22.23, 13.42 -0.73 M96.23 65.96 C68.97 42.99, 44.99 23.27, 18.96 1.32 M95.24 66.31 C69.34 41.26, 42.38 18.02, 18.45 -1.02 M95.05 59.18 C74.3 45.22, 57.78 24.88, 25.21 -0.09 M95.77 60.16 C79.36 45.28, 62.05 30.63, 25.73 -0.05 M97.22 55.66 C70.99 37.1, 51.54 16.41, 32.98 -1.06 M94.49 55.56 C80.31 42.51, 67.45 29.87, 31.31 -1.05 M93.86 49.91 C78.52 35.45, 58.71 19.11, 36.09 0.73 M95.43 48.77 C74.73 32.98, 54.38 15, 36.6 -0.53 M95.8 45.2 C79.41 33.29, 66.9 19.74, 41.2 -1.29 M94.52 44.11 C83.44 34.46, 72.08 25.51, 43.34 -1.55 M93.16 39.85 C79.03 25.81, 66.37 11.65, 49.55 0.83 M94.25 39.49 C81.56 26.96, 67.39 14.72, 49.6 0.04 M96.93 33.8 C78.75 19.17, 65.18 5.69, 53.3 0.4 M95.45 33.41 C83.62 23.4, 69.71 12.98, 55.2 -0.22 M94.51 26.89 C83.2 19.71, 71.22 7.11, 61.11 -1.2 M93.96 28.54 C88.75 22.53, 81.12 16.82, 61.49 -0.36 M95.26 21.51 C84.42 13.69, 74.72 7.12, 66.38 0.28 M94.37 22.73 C87.58 15.73, 79.04 8.69, 68.75 0.2 M94.86 17.43 C86.92 9.4, 79.28 4.47, 73.17 -0.58 M95.48 17.16 C89.5 14.44, 84.88 9.72, 74.2 -1.58 M97.07 11.24 C90.07 6.76, 84.18 3.69, 79.92 -1.51 M94.27 12.16 C92.66 10.1, 87.89 6.43, 80.99 -1.63 M94.27 6.34 C91.75 4.14, 90.21 1.69, 85.78 -0.16 M95.1 7.76 C92.93 5.4, 90.35 3.32, 86.28 -1.41 M94.96 2.02 C94.51 1.18, 93.62 -0.04, 91.75 -0.43 M95.11 1.8 C94.1 0.94, 93.06 -0.03, 92.01 -0.79" stroke="#fd7e14" stroke-width="0.5" fill="none"></path><path d="M0.37 -0.93 C24.23 -1.09, 45.57 0.31, 95.05 1.79 M-0.53 0.8 C33.27 -0.92, 68.18 -0.65, 93.06 0.06 M92.99 -1.37 C95.07 44.37, 94.31 91.1, 92.21 142.29 M93.33 0.23 C95.06 56.38, 94.46 112.59, 94.2 142.3 M94.64 140.4 C55.87 139.66, 20.91 141.82, 1.1 141.41 M93.29 142.68 C59.39 142.13, 25.74 141.52, -0.44 141.65 M0.41 142.22 C0.22 94.73, 1.14 48.09, 0.96 1.34 M0.06 141.79 C1.08 99.58, 1.54 57.26, -0.84 -0.54" stroke="#000" stroke-width="1" fill="none"></path></g><g stroke-linecap="round"><g transform="translate(494.03026293883966 556.6775642056614) rotate(0 30.40773458429095 -1.5314215852925486)"><path d="M0.22 -0.56 C9.31 -0.73, 44.2 0.54, 54.48 0.07 C64.77 -0.4, 60.6 -2.87, 61.94 -3.39 M-1.12 1.77 C7.9 2.3, 43.67 2.72, 54.09 1.53 C64.5 0.35, 59.83 -4.27, 61.37 -5.36" stroke="#000" stroke-width="1" fill="none"></path></g></g><g stroke-linecap="round"><g transform="translate(496.4642559667284 604.0825146181649) rotate(0 32.720924532257754 0.9883923037443196)"><path d="M1.06 -0.14 C6.9 0.02, 27.01 -0.35, 35.28 0.36 C43.56 1.08, 45.81 4.55, 50.7 4.13 C55.59 3.71, 62.29 -0.94, 64.64 -2.17 M0.15 -1.26 C5.85 -1.4, 26.15 -1.99, 34.53 -1.39 C42.92 -0.79, 45.32 2.26, 50.45 2.35 C55.58 2.44, 63.06 0.08, 65.29 -0.84" stroke="#000" stroke-width="1" fill="none"></path></g></g><g stroke-linecap="round"><g transform="translate(491.95801901957554 618.8904711619151) rotate(0 35.72420262975572 -1.5434016153447203)"><path d="M-0.14 0.38 C2.31 0.11, 10.38 -0.44, 14.14 -0.56 C17.89 -0.68, 14.49 -0.73, 22.39 -0.35 C30.3 0.03, 53.42 2.01, 61.57 1.73 C69.71 1.44, 69.68 -1.24, 71.27 -2.07 M-1.67 -0.47 C0.73 -0.54, 9.58 -1.87, 13.56 -2.17 C17.54 -2.47, 14.11 -2.6, 22.19 -2.3 C30.27 -1.99, 53.55 0.07, 62.04 -0.35 C70.53 -0.77, 71.44 -4.15, 73.12 -4.83" stroke="#000" stroke-width="1" fill="none"></path></g></g><g stroke-linecap="round"><g transform="translate(493.013080923757 580.617012744567) rotate(0 30.497008709603506 0.8641905572855535)"><path d="M0.7 0.98 C2.69 1.36, 7.81 2.79, 11.77 2.65 C15.73 2.51, 16.2 0, 24.47 0.13 C32.74 0.27, 55.26 3.1, 61.38 3.46 M-0.39 0.45 C1.54 0.46, 7.33 1.29, 11.38 0.92 C15.44 0.56, 15.61 -1.81, 23.93 -1.73 C32.25 -1.65, 54.78 0.7, 61.29 1.41" stroke="#000" stroke-width="1" fill="none"></path></g></g><g transform="translate(441.25801400399257 430.107578202638) rotate(0 81.94256174612303 16.520677771395768)"><text x="0" y="23.041355542791543" font-family="Virgil, Segoe UI Emoji" font-size="26.433084434233233px" fill="#000" text-anchor="start" style="white-space: pre;" direction="ltr">LR Contract</text></g><g stroke-linecap="round" transform="translate(497.14285714285666 475.3571428571428) rotate(0 28.035714285714278 30)"><path d="M29.21 -0.9 C34.93 -0.61, 43.7 4.45, 48.11 9.2 C52.51 13.95, 55.21 21.42, 55.64 27.59 C56.07 33.76, 53.81 40.92, 50.66 46.21 C47.51 51.5, 42.34 57.43, 36.74 59.34 C31.14 61.25, 22.54 60.29, 17.05 57.66 C11.55 55.02, 6.31 49.41, 3.76 43.52 C1.21 37.64, 0.31 28.59, 1.74 22.37 C3.18 16.14, 6.99 9.72, 12.37 6.2 C17.75 2.68, 30.07 1.9, 34.04 1.24 C38 0.58, 36.4 1.75, 36.15 2.26 M15.31 3 C20.3 0.12, 29.11 -0.67, 35.04 1.08 C40.96 2.83, 47.55 8.03, 50.87 13.5 C54.19 18.97, 55.38 27.61, 54.95 33.92 C54.53 40.22, 52.32 46.95, 48.34 51.35 C44.37 55.74, 37.15 59.83, 31.1 60.27 C25.05 60.71, 17.23 57.65, 12.03 53.98 C6.82 50.32, 1.59 44.51, -0.13 38.27 C-1.85 32.04, -0.9 22.28, 1.72 16.56 C4.33 10.85, 12.97 6.31, 15.57 4 C18.17 1.7, 17.2 2.38, 17.31 2.72" stroke="none" stroke-width="0" fill="#fd7e14"></path><path d="M28.19 -0.59 C33.66 -1.06, 40.33 2.03, 44.86 6.38 C49.38 10.73, 54 18.99, 55.32 25.51 C56.63 32.02, 55.74 39.99, 52.75 45.47 C49.76 50.95, 42.9 56.31, 37.37 58.41 C31.84 60.52, 25.21 60.25, 19.59 58.08 C13.97 55.91, 6.7 50.71, 3.65 45.38 C0.61 40.04, 0.36 32.53, 1.32 26.06 C2.28 19.59, 4.75 11.02, 9.42 6.55 C14.09 2.08, 25.47 0.18, 29.34 -0.74 C33.2 -1.66, 32.5 0.25, 32.6 1.04 M24.28 1.2 C29.84 0.23, 39.09 2.37, 44.12 5.87 C49.15 9.37, 52.68 16.21, 54.47 22.19 C56.25 28.18, 57.42 35.95, 54.84 41.77 C52.26 47.6, 44.36 54.1, 38.99 57.14 C33.62 60.17, 28.47 61.39, 22.63 59.98 C16.79 58.56, 7.82 53.91, 3.96 48.64 C0.1 43.37, -1.03 34.8, -0.52 28.38 C-0.01 21.95, 2.52 14.86, 7.03 10.09 C11.55 5.32, 23.6 1.4, 26.58 -0.24 C29.55 -1.88, 25.24 -0.35, 24.88 0.27" stroke="#000000" stroke-width="1" fill="none"></path></g><g transform="translate(502.17855714285656 480.3571428571428) rotate(0 23 25)"><text x="23" y="18" font-family="Virgil, Segoe UI Emoji" font-size="20px" fill="#000000" text-anchor="middle" style="white-space: pre;" direction="ltr">need</text><text x="23" y="43" font-family="Virgil, Segoe UI Emoji" font-size="20px" fill="#000000" text-anchor="middle" style="white-space: pre;" direction="ltr">key</text></g><g stroke-linecap="round" transform="translate(625.2191573837005 495.5292262716791) rotate(0 65.0189378543937 63.76857366488608)"><path d="M1.27 -0.48 L130.59 1.78 L129.68 127.03 L-1 127.46" stroke="none" stroke-width="0" fill="#fd7e14"></path><path d="M-1.53 -1.52 C38.24 -0.89, 76.29 1.8, 131.38 -0.97 M-0.76 -0.73 C38.18 0.2, 76.57 -0.71, 129.12 0.07 M131.5 -1.08 C132.33 30.56, 129.45 55.88, 130.81 125.59 M130.72 0.25 C128.3 25.82, 128.77 51.97, 129.27 126.54 M128.92 127.39 C92.51 127.23, 57.61 127.65, -0.58 127.79 M129.94 128.16 C85.73 128.48, 40.62 128.11, 0.48 126.58 M-1.74 126.35 C-1.08 93.9, 0.88 59.79, -0.27 -0.52 M0.26 127.87 C1.03 100.37, 0.89 72.42, -0.65 -0.9" stroke="#000000" stroke-width="1" fill="none"></path></g><g stroke-linecap="round" transform="translate(676.9031307024508 504.81941654127667) rotate(0 13.838170744532363 13.838170744532334)"><path d="M14.16 -0.96 C17.08 -1.21, 20.19 0.62, 22.32 2.52 C24.45 4.41, 26.44 7.56, 26.94 10.42 C27.44 13.28, 26.61 16.95, 25.3 19.69 C24 22.43, 21.69 25.65, 19.11 26.83 C16.53 28.01, 12.72 27.89, 9.81 26.76 C6.9 25.62, 3.41 22.54, 1.67 20.02 C-0.07 17.5, -1.19 14.36, -0.62 11.64 C-0.05 8.91, 2.32 5.59, 5.09 3.67 C7.85 1.76, 13.82 0.74, 15.96 0.15 C18.1 -0.44, 18.1 0.06, 17.95 0.14 M19.5 0.43 C22.23 0.95, 23.89 3.02, 25.22 5.8 C26.55 8.57, 27.98 13.93, 27.47 17.09 C26.96 20.25, 24.1 22.91, 22.15 24.75 C20.19 26.6, 18.4 28.13, 15.72 28.13 C13.05 28.13, 8.73 26.43, 6.07 24.76 C3.42 23.09, 0.64 21, -0.21 18.12 C-1.05 15.24, -0.45 10.15, 1 7.49 C2.45 4.82, 5.53 3.26, 8.51 2.15 C11.5 1.03, 17.19 1.06, 18.91 0.82 C20.63 0.58, 19.04 0.5, 18.81 0.69" stroke="none" stroke-width="0" fill="#fd7e14"></path><path d="M18.16 1.11 C20.93 1.48, 22.96 3.33, 24.62 5.73 C26.29 8.13, 28.42 12.68, 28.14 15.53 C27.86 18.38, 25.07 20.64, 22.94 22.81 C20.81 24.99, 18.08 28.17, 15.35 28.59 C12.63 29, 9.23 27.14, 6.6 25.31 C3.97 23.48, 0.6 20.39, -0.42 17.6 C-1.44 14.81, -0.96 11.18, 0.5 8.59 C1.97 6.01, 5.55 3.27, 8.37 2.08 C11.19 0.89, 15.59 1.72, 17.44 1.46 C19.29 1.2, 19.56 0.36, 19.45 0.5 M8.24 2.64 C10.95 1.25, 14.36 -0.96, 17.1 -0.54 C19.84 -0.12, 22.85 2.89, 24.66 5.18 C26.47 7.46, 28.31 10.23, 27.97 13.18 C27.63 16.14, 24.75 20.72, 22.62 22.9 C20.49 25.07, 18.01 25.8, 15.18 26.22 C12.35 26.65, 8.11 26.7, 5.65 25.46 C3.19 24.21, 0.94 21.38, 0.41 18.73 C-0.12 16.09, 1.38 12.41, 2.47 9.59 C3.55 6.77, 5.98 2.92, 6.92 1.8 C7.86 0.69, 7.72 2.73, 8.09 2.88" stroke="#000000" stroke-width="1" fill="none"></path></g><g stroke-linecap="round" transform="translate(681.4319865824829 509.0966693168576) rotate(0 9.4351164167266 9.435116416726572)"><path d="M4.34 0.65 C5.98 -0.46, 9.13 -0.66, 11.1 -0.22 C13.08 0.22, 15.07 1.51, 16.2 3.3 C17.34 5.09, 17.9 8.29, 17.91 10.5 C17.92 12.71, 17.53 15.21, 16.26 16.56 C14.98 17.9, 12.44 18.58, 10.28 18.56 C8.12 18.54, 4.92 17.49, 3.28 16.45 C1.64 15.4, 0.77 14.1, 0.42 12.29 C0.06 10.48, 0.15 7.58, 1.15 5.59 C2.16 3.6, 5.51 1.32, 6.47 0.34 C7.43 -0.64, 7.02 -0.59, 6.92 -0.31 M8.03 -0.31 C9.73 -0.9, 11.88 0.45, 13.83 1.47 C15.78 2.48, 18.92 3.59, 19.73 5.78 C20.55 7.96, 19.64 12.44, 18.71 14.59 C17.79 16.73, 16.06 18.05, 14.17 18.64 C12.28 19.23, 9.15 18.82, 7.35 18.13 C5.54 17.43, 4.54 16.02, 3.35 14.46 C2.16 12.89, 0.15 10.53, 0.21 8.74 C0.26 6.95, 2.33 5.06, 3.7 3.74 C5.07 2.41, 7.7 1.42, 8.42 0.81 C9.15 0.19, 8.06 -0.09, 8.06 0.07" stroke="none" stroke-width="0" fill="#fd7e14"></path><path d="M7.78 -0.19 C9.45 -0.84, 11.64 0.61, 13.45 1.44 C15.26 2.27, 17.91 3, 18.63 4.79 C19.36 6.58, 18.27 10.01, 17.79 12.19 C17.3 14.36, 17.26 16.89, 15.72 17.84 C14.19 18.79, 10.72 18.33, 8.56 17.9 C6.4 17.47, 4.09 16.49, 2.75 15.28 C1.41 14.06, 0.57 12.6, 0.53 10.62 C0.49 8.64, 1.07 5, 2.51 3.39 C3.95 1.78, 8.09 1.64, 9.17 0.97 C10.24 0.3, 9.02 -0.46, 8.97 -0.62 M6.06 1.46 C7.79 0.3, 8.8 -0.29, 10.58 0.12 C12.36 0.54, 15.55 2.59, 16.74 3.95 C17.93 5.32, 17.8 6.43, 17.71 8.31 C17.62 10.18, 17.6 13.6, 16.21 15.2 C14.83 16.81, 11.38 17.62, 9.4 17.94 C7.41 18.27, 5.68 17.85, 4.3 17.16 C2.91 16.46, 1.52 15.73, 1.08 13.77 C0.64 11.82, 0.95 7.45, 1.65 5.44 C2.34 3.42, 4.48 2.2, 5.23 1.69 C5.97 1.18, 6.12 2.18, 6.14 2.37" stroke="#000000" stroke-width="1" fill="none"></path></g><g stroke-linecap="round" transform="translate(670.3614499868569 524.1928555836205) rotate(0 19.87664525123739 17.738018863445973)"><path d="M7.34 -1.52 L31.9 -1 L39.37 3.91 L41.1 7.9 L39.59 27.62 L38.73 31.73 L29.42 35.87 L10.82 36.69 L2.36 31.42 L0.14 25.11 L1.56 5.95 L3.68 1.14 L10.52 1.81" stroke="none" stroke-width="0" fill="#fd7e14"></path><path d="M8.87 0 M8.87 0 C12.17 -2.03, 17.53 1.1, 30.88 0 M8.87 0 C16.92 0.02, 25.29 -0.64, 30.88 0 M30.88 0 C34.81 -0.28, 38.99 1.2, 39.75 8.87 M30.88 0 C35.51 -0.17, 39.35 3.92, 39.75 8.87 M39.75 8.87 C40.09 16.62, 41.07 24.27, 39.75 26.61 M39.75 8.87 C39.85 13.22, 39.51 19.6, 39.75 26.61 M39.75 26.61 C37.83 31.92, 35.55 34.47, 30.88 35.48 M39.75 26.61 C37.75 31.15, 34.65 36.39, 30.88 35.48 M30.88 35.48 C23.67 33.7, 15.89 35.55, 8.87 35.48 M30.88 35.48 C23.69 35.34, 15.71 34.82, 8.87 35.48 M8.87 35.48 C1.15 36.75, -0.48 33.07, 0 26.61 M8.87 35.48 C5 35.07, -0.59 31.37, 0 26.61 M0 26.61 C0.56 23.08, 0.4 17.05, 0 8.87 M0 26.61 C-0.32 21.34, -0.05 16.53, 0 8.87 M0 8.87 C1 3.12, 3.94 -0.35, 8.87 0 M0 8.87 C-0.28 2.89, 4.1 -1.36, 8.87 0" stroke="#000000" stroke-width="1" fill="none"></path></g><g stroke-linecap="round" transform="translate(676.6515275980092 515.8899531369027) rotate(0 2.3902294922373812 5.535268297812934)"><path d="M1.2 0 L3.59 0 L4.78 1.2 L4.78 9.88 L3.59 11.07 L0.3 10.77 L0 9.88 L0 1.2 L1.2 0" stroke="none" stroke-width="0" fill="#fd7e14"></path><path d="M1.2 0 M1.2 0 C1.73 0, 2.27 0, 3.59 0 M1.2 0 C1.77 0, 2.34 0, 3.59 0 M3.59 0 C4.38 0, 4.78 0.4, 4.78 1.2 M3.59 0 C4.38 0, 4.78 0.4, 4.78 1.2 M4.78 1.2 C4.78 3.68, 4.78 6.16, 4.78 9.88 M4.78 1.2 C4.78 4.64, 4.78 8.09, 4.78 9.88 M4.78 9.88 C4.78 10.67, 4.38 11.07, 3.59 11.07 M4.78 9.88 C4.78 10.67, 4.38 11.07, 3.59 11.07 M3.59 11.07 C2.94 11.07, 2.29 11.07, 1.2 11.07 M3.59 11.07 C2.86 11.07, 2.13 11.07, 1.2 11.07 M1.2 11.07 C0.4 11.07, 0 10.67, 0 9.88 M1.2 11.07 C0.4 11.07, 0 10.67, 0 9.88 M0 9.88 C0 6.72, 0 3.56, 0 1.2 M0 9.88 C0 7.31, 0 4.74, 0 1.2 M0 1.2 C0 0.4, 0.4 0, 1.2 0 M0 1.2 C0 0.4, 0.4 0, 1.2 0" stroke="#000000" stroke-width="1" fill="none"></path></g><g stroke-linecap="round" transform="translate(700.0506163114939 515.8899531369027) rotate(0 2.3902294922373812 6.541680715597096)"><path d="M1.2 0 L3.59 0 L4.78 1.2 L4.78 11.89 L3.59 13.08 L0.3 12.78 L0 11.89 L0 1.2 L1.2 0" stroke="none" stroke-width="0" fill="#fd7e14"></path><path d="M1.2 0 M1.2 0 C2.03 0, 2.87 0, 3.59 0 M1.2 0 C1.72 0, 2.24 0, 3.59 0 M3.59 0 C4.38 0, 4.78 0.4, 4.78 1.2 M3.59 0 C4.38 0, 4.78 0.4, 4.78 1.2 M4.78 1.2 C4.78 4, 4.78 6.8, 4.78 11.89 M4.78 1.2 C4.78 5.08, 4.78 8.96, 4.78 11.89 M4.78 11.89 C4.78 12.68, 4.38 13.08, 3.59 13.08 M4.78 11.89 C4.78 12.68, 4.38 13.08, 3.59 13.08 M3.59 13.08 C3.02 13.08, 2.45 13.08, 1.2 13.08 M3.59 13.08 C2.73 13.08, 1.88 13.08, 1.2 13.08 M1.2 13.08 C0.4 13.08, 0 12.68, 0 11.89 M1.2 13.08 C0.4 13.08, 0 12.68, 0 11.89 M0 11.89 C0 8.94, 0 5.99, 0 1.2 M0 11.89 C0 7.77, 0 3.66, 0 1.2 M0 1.2 C0 0.4, 0.4 0, 1.2 0 M0 1.2 C0 0.4, 0.4 0, 1.2 0" stroke="#000000" stroke-width="1" fill="none"></path></g><g stroke-linecap="round" transform="translate(693.8863402525586 517.0850678830204) rotate(0 2.8934357011295333 3.3337411339100527)"><path d="M0 0 L5.79 0 L5.79 6.67 L0 6.67" stroke="none" stroke-width="0" fill="#fd7e14"></path><path d="M0 0 C1.45 0, 2.9 0, 5.79 0 M0 0 C2.3 0, 4.6 0, 5.79 0 M5.79 0 C5.79 2.6, 5.79 5.21, 5.79 6.67 M5.79 0 C5.79 1.96, 5.79 3.92, 5.79 6.67 M5.79 6.67 C3.81 6.67, 1.83 6.67, 0 6.67 M5.79 6.67 C4.06 6.67, 2.34 6.67, 0 6.67 M0 6.67 C0 4.4, 0 2.14, 0 0 M0 6.67 C0 4.68, 0 2.68, 0 0" stroke="#000000" stroke-width="1" fill="none"></path></g><g stroke-linecap="round" transform="translate(681.8093912391515 517.2108694352444) rotate(0 1.0064124177841904 3.3337411339100527)"><path d="M0 0 L2.01 0 L2.01 6.67 L0 6.67" stroke="none" stroke-width="0" fill="#fd7e14"></path><path d="M0 0 C0.79 0, 1.58 0, 2.01 0 M0 0 C0.73 0, 1.45 0, 2.01 0 M2.01 0 C2.01 1.59, 2.01 3.18, 2.01 6.67 M2.01 0 C2.01 1.93, 2.01 3.87, 2.01 6.67 M2.01 6.67 C1.21 6.67, 0.42 6.67, 0 6.67 M2.01 6.67 C1.59 6.67, 1.17 6.67, 0 6.67 M0 6.67 C0 4.64, 0 2.61, 0 0 M0 6.67 C0 4.76, 0 2.85, 0 0" stroke="#000000" stroke-width="1" fill="none"></path></g><g stroke-linecap="round"><g transform="translate(704.6949818965655 524.867781024973) rotate(0 0.24228337668091626 -3.946170844827151)"><path d="M-0.06 0.41 C0.43 -3.71, -0.64 -6.04, 0.78 -7.56 M-0.3 0.2 C0.27 -2.18, -0.14 -4.61, 0.36 -8.3" stroke="#000000" stroke-width="1" fill="none"></path></g></g><g stroke-linecap="round"><g transform="translate(676.4941204102475 524.4880424245068) rotate(0 0.12117284560645203 -3.947361477040573)"><path d="M0.41 0.48 C-0.58 -3.54, 0.2 -5.13, 0.49 -8 M0.2 0.19 C0.29 -1.89, 0.33 -2.98, -0.25 -8.38" stroke="#000000" stroke-width="1" fill="none"></path></g></g><g stroke-linecap="round"><g transform="translate(699.7766886672085 524.1563785183466) rotate(0 0.07339518196511108 -3.9835592655815333)"><path d="M0.45 -0.58 C-0.55 -1.75, 0.74 -3.34, 0.05 -8.24 M0.18 0.28 C-0.15 -2.01, 0.4 -4.87, -0.3 -7.4" stroke="#000000" stroke-width="1" fill="none"></path></g></g><g stroke-linecap="round"><g transform="translate(681.7588361383597 524.129365596003) rotate(0 -0.20951269889098967 -4.059772576552746)"><path d="M-0.58 -0.55 C0.11 -1.47, 0.42 -4.36, -0.7 -7.49 M0.28 -0.2 C0.27 -1.36, -0.27 -3.71, 0.15 -7.92" stroke="#000000" stroke-width="1" fill="none"></path></g></g><g stroke-linecap="round" transform="translate(678.7767708419466 539.4437442170547) rotate(0 11.686161212887441 9.012209070955578)"><path d="M13.86 -0.08 C16.07 -0.06, 18.35 0.99, 19.95 2.58 C21.54 4.18, 23.28 7.43, 23.42 9.49 C23.56 11.56, 22.46 13.59, 20.79 14.97 C19.12 16.35, 16.09 17.61, 13.42 17.79 C10.75 17.97, 7.06 16.93, 4.78 16.05 C2.49 15.17, 0.41 14.2, -0.29 12.52 C-1 10.85, -0.65 7.93, 0.56 6 C1.78 4.07, 4.71 1.96, 6.98 0.92 C9.25 -0.12, 12.89 -0.32, 14.19 -0.25 C15.49 -0.17, 14.9 1.07, 14.79 1.37 M17.18 0.54 C19.52 1.05, 22.99 3.12, 23.96 4.96 C24.93 6.8, 23.82 9.51, 23.01 11.58 C22.19 13.65, 21.2 16.2, 19.07 17.38 C16.94 18.57, 12.95 19.09, 10.23 18.68 C7.51 18.26, 4.48 16.31, 2.77 14.88 C1.06 13.46, 0.17 12.04, -0.03 10.11 C-0.23 8.17, 0.14 4.93, 1.56 3.27 C2.99 1.61, 5.68 0.72, 8.52 0.13 C11.36 -0.45, 17.39 -0.66, 18.6 -0.24 C19.82 0.19, 16.36 2.32, 15.82 2.68" stroke="none" stroke-width="0" fill="#fd7e14"></path><path d="M12.9 -0.88 C15.13 -1.04, 18.29 0.35, 20.11 1.96 C21.93 3.58, 23.54 6.85, 23.84 8.81 C24.14 10.77, 23.32 12.08, 21.92 13.72 C20.51 15.36, 18.07 18.21, 15.41 18.65 C12.76 19.08, 8.35 17.48, 6.02 16.33 C3.69 15.18, 2.52 13.53, 1.43 11.76 C0.33 9.98, -1.25 7.25, -0.54 5.67 C0.17 4.08, 3.31 3.28, 5.68 2.26 C8.05 1.24, 12.31 -0.13, 13.69 -0.46 C15.06 -0.79, 13.97 0.15, 13.93 0.26 M4.79 0.25 C6.83 -0.68, 11.13 -0.85, 13.91 -0.08 C16.68 0.69, 19.73 3.37, 21.46 4.86 C23.2 6.34, 24.45 7.03, 24.31 8.82 C24.18 10.6, 22.28 13.89, 20.63 15.59 C18.98 17.29, 16.96 18.7, 14.43 19.04 C11.9 19.38, 7.76 18.84, 5.44 17.64 C3.12 16.44, 1.52 13.92, 0.52 11.84 C-0.48 9.75, -1.6 7.15, -0.55 5.12 C0.51 3.08, 5.78 0.45, 6.83 -0.35 C7.88 -1.15, 5.92 0.16, 5.77 0.32" stroke="#000000" stroke-width="1" fill="none"></path></g><g stroke-linecap="round" transform="translate(686.2758715044112 529.7758966227846) rotate(0 4.1745244409906945 4.1745244409906945)"><path d="M4 -0.87 C4.62 -0.87, 5.36 0.3, 6.12 1.09 C6.88 1.88, 8.29 3, 8.56 3.87 C8.83 4.74, 8.28 5.75, 7.75 6.32 C7.22 6.89, 6.34 7.17, 5.39 7.31 C4.43 7.45, 2.72 7.39, 2.01 7.16 C1.31 6.94, 1.43 6.43, 1.15 5.95 C0.88 5.46, 0.32 5.14, 0.35 4.26 C0.39 3.38, 0.73 1.38, 1.38 0.67 C2.02 -0.04, 3.45 0.17, 4.23 0 C5 -0.18, 5.88 -0.64, 6.02 -0.4 M4.32 1.5 C4.92 1.61, 6.03 1, 6.67 1.62 C7.31 2.24, 7.91 4.36, 8.16 5.25 C8.41 6.13, 8.58 6.46, 8.17 6.92 C7.77 7.38, 6.75 7.86, 5.72 8 C4.69 8.15, 2.76 8.33, 1.98 7.79 C1.2 7.26, 1.36 5.73, 1.03 4.79 C0.7 3.85, -0.15 2.59, 0 2.13 C0.16 1.68, 1.35 2.62, 1.94 2.07 C2.53 1.52, 2.81 -0.63, 3.54 -1.16 C4.26 -1.69, 6.07 -1.15, 6.29 -1.12" stroke="none" stroke-width="0" fill="#fd7e14"></path><path d="M5.21 0.56 C5.76 0.98, 6.73 2.17, 7.3 3.11 C7.87 4.05, 8.87 5.29, 8.63 6.19 C8.39 7.1, 6.54 8.29, 5.85 8.54 C5.17 8.79, 5.43 7.89, 4.5 7.69 C3.57 7.5, 1.18 8.08, 0.27 7.36 C-0.64 6.63, -0.92 4.21, -0.97 3.35 C-1.02 2.5, -0.86 2.7, -0.04 2.2 C0.79 1.7, 2.98 0.59, 3.98 0.34 C4.99 0.09, 5.51 0.52, 5.97 0.67 C6.44 0.83, 6.83 1.39, 6.76 1.29 M3.04 -0.1 C3.93 0.11, 5.26 0.72, 6.37 1.43 C7.47 2.13, 9.49 3.31, 9.68 4.11 C9.87 4.9, 8.03 5.38, 7.49 6.19 C6.96 7.01, 7.04 8.7, 6.48 9 C5.92 9.31, 4.95 8.48, 4.14 8.05 C3.34 7.62, 2.35 7.37, 1.66 6.43 C0.96 5.48, 0.15 3.14, -0.01 2.38 C-0.17 1.63, 0.27 2.36, 0.68 1.89 C1.09 1.42, 2.06 -0.01, 2.44 -0.44 C2.82 -0.86, 2.92 -0.65, 2.95 -0.66" stroke="#000000" stroke-width="1" fill="none"></path></g><g stroke-linecap="round" transform="translate(676.3999244935609 546.7723537912389) rotate(0 13.963972296755287 5.744045341927716)"><path d="M0 0 L27.93 0 L27.93 11.49 L0 11.49" stroke="none" stroke-width="0" fill="#fd7e14"></path><path d="M0 0 C6.24 0, 12.49 0, 27.93 0 M0 0 C10.42 0, 20.85 0, 27.93 0 M27.93 0 C27.93 4.23, 27.93 8.46, 27.93 11.49 M27.93 0 C27.93 2.8, 27.93 5.6, 27.93 11.49 M27.93 11.49 C19.81 11.49, 11.69 11.49, 0 11.49 M27.93 11.49 C21.98 11.49, 16.02 11.49, 0 11.49 M0 11.49 C0 7.74, 0 4, 0 0 M0 11.49 C0 7.02, 0 2.55, 0 0" stroke="#000000" stroke-width="1" fill="none"></path></g><g stroke-linecap="round"><g transform="translate(679.1766693939823 548.1544619253566) rotate(0 11.89825996688569 0.25404156045533455)"><path d="M1.22 0.14 C3.48 -0.08, 9.15 0.79, 24.41 1.5 M-0.62 -0.81 C6.16 -1.18, 10.57 -1.11, 24.04 0.71" stroke="#000000" stroke-width="1" fill="none"></path></g></g><g transform="translate(669.311903394325 578.0331762884252) rotate(0 29.73721998851238 26.433084434233223)"><text x="29.737219988512393" y="18.433084434233237" font-family="Virgil, Segoe UI Emoji" font-size="21.27172347316841px" fill="#000000" text-anchor="middle" style="white-space: pre;" direction="ltr">Auth </text><text x="29.737219988512393" y="44.866168868466474" font-family="Virgil, Segoe UI Emoji" font-size="21.27172347316841px" fill="#000000" text-anchor="middle" style="white-space: pre;" direction="ltr"> </text></g><g stroke-linecap="round"><g transform="translate(795.7142857142845 110.83775757044486) rotate(0 -79.91531289296756 0.6068607667764638)"><path d="M0.09 -0.57 C-26.54 -0.77, -132.34 -0.26, -158.84 -0.18 M-1.31 1.74 C-28.22 2.18, -133.5 0.98, -159.93 0.82" stroke="#000000" stroke-width="1" fill="none"></path></g><g transform="translate(795.7142857142845 110.83775757044486) rotate(0 -79.91531289296756 0.6068607667764638)"><path d="M-132.6 -9.64 C-144.07 -5.91, -154.65 -0.83, -159.04 1.98 M-131.72 -8.5 C-140.5 -4.93, -149.48 -2.38, -160.74 0.72" stroke="#000000" stroke-width="1" fill="none"></path></g><g transform="translate(795.7142857142845 110.83775757044486) rotate(0 -79.91531289296756 0.6068607667764638)"><path d="M-132.78 10.88 C-144.35 6.78, -154.87 4.04, -159.04 1.98 M-131.89 12.03 C-140.75 9.24, -149.68 5.44, -160.74 0.72" stroke="#000000" stroke-width="1" fill="none"></path></g></g><g stroke-linecap="round" transform="translate(10 28.452380952380906) rotate(0 102.14285714285717 80.00000000000003)"><path d="M0.6 -1.42 L202.91 0.32 L202.29 159.41 L0.44 159.61" stroke="none" stroke-width="0" fill="#82c91e"></path><path d="M-1.24 0.53 C48.59 -1.98, 99.3 -0.23, 203.06 -0.71 M-0.07 -0.8 C59.91 0.42, 119.12 -0.01, 203.75 0.6 M205.85 -1.99 C203.87 59.45, 201.62 117.86, 203.58 161.07 M203.82 -0.12 C202.99 56.67, 204.72 112.52, 204.29 160.85 M203.61 161.41 C154.5 157.89, 102.78 157.13, -1.17 161.23 M203.99 159.22 C145.52 160.09, 87.62 159.38, 0.86 160.26 M-0.49 159.32 C-1.91 121.24, 0.22 82.46, -0.98 0.92 M0.63 160.44 C0.48 109.73, 0.58 59.98, 0.06 -0.68" stroke="#000000" stroke-width="1" fill="none"></path></g><g transform="translate(881.4285714285703 59.45238095238085) rotate(0 61.5 22.5)"><text x="0" y="32" font-family="Virgil, Segoe UI Emoji" font-size="36px" fill="#000000" text-anchor="start" style="white-space: pre;" direction="ltr">Doctor</text></g><g stroke-linecap="round" transform="translate(71.42857142857133 138.45238095238074) rotate(0 45.71428571428572 40)"><path d="M39.3 0.31 C47.05 -1.19, 56.98 0.11, 64.33 3.19 C71.67 6.27, 78.91 12.84, 83.38 18.77 C87.84 24.71, 90.81 31.77, 91.09 38.79 C91.38 45.81, 89.35 54.78, 85.09 60.89 C80.82 67, 72.99 72.36, 65.51 75.44 C58.04 78.52, 48.53 80.22, 40.21 79.38 C31.89 78.54, 21.97 75.15, 15.58 70.4 C9.19 65.66, 4.19 57.69, 1.87 50.91 C-0.45 44.14, -0.75 36.58, 1.65 29.76 C4.04 22.94, 9.77 14.78, 16.22 10 C22.68 5.22, 35.99 2.58, 40.36 1.06 C44.73 -0.45, 42.13 0.28, 42.44 0.9 M35.81 -0.15 C43.52 -2.16, 53.36 -0.1, 60.77 2.2 C68.18 4.5, 75.34 8.08, 80.28 13.65 C85.23 19.22, 89.43 28.07, 90.44 35.61 C91.45 43.14, 89.99 52.14, 86.37 58.87 C82.74 65.6, 75.74 72.43, 68.68 76 C61.61 79.58, 52.16 81.02, 43.99 80.31 C35.81 79.61, 26.6 76.1, 19.61 71.78 C12.62 67.45, 5.31 60.73, 2.04 54.37 C-1.24 48.01, -1.64 40.75, -0.04 33.59 C1.55 26.44, 5.6 16.97, 11.61 11.46 C17.63 5.94, 32.19 1.85, 36.04 0.49 C39.88 -0.86, 34.69 2.82, 34.69 3.34" stroke="none" stroke-width="0" fill="#fa5252"></path><path d="M42.39 1.09 C50.04 -0.07, 60.41 1.64, 67.6 4.95 C74.8 8.26, 81.55 14.85, 85.54 20.96 C89.54 27.08, 91.97 34.36, 91.58 41.64 C91.2 48.93, 88.24 58.65, 83.23 64.66 C78.22 70.67, 69.4 75.44, 61.54 77.7 C53.67 79.97, 44.03 79.93, 36.04 78.26 C28.04 76.58, 19.32 72.55, 13.54 67.66 C7.77 62.78, 3.32 55.82, 1.4 48.94 C-0.53 42.05, -0.67 32.98, 2.01 26.34 C4.7 19.7, 9.2 13.49, 17.48 9.07 C25.77 4.65, 44.51 0.71, 51.71 -0.18 C58.9 -1.06, 60.73 3.14, 60.65 3.78 M31.64 0.5 C39.16 -1.98, 50.46 -0.91, 58.74 1.12 C67.02 3.15, 76.21 7.14, 81.34 12.69 C86.48 18.24, 88.3 27.16, 89.55 34.43 C90.81 41.7, 92 49.65, 88.86 56.3 C85.73 62.94, 77.84 70.26, 70.73 74.3 C63.62 78.35, 54.21 80.4, 46.21 80.55 C38.21 80.69, 29.49 78.96, 22.74 75.19 C15.98 71.41, 9.25 64.67, 5.66 57.88 C2.08 51.08, 0.53 41.6, 1.21 34.41 C1.9 27.23, 4.31 19.98, 9.76 14.77 C15.22 9.57, 29.87 5.19, 33.94 3.16 C38 1.13, 34.38 2.25, 34.15 2.61" stroke="#000000" stroke-width="1" fill="none"></path></g><g transform="translate(76.64287142857131 153.45238095238074) rotate(0 40.5 25)"><text x="40.5" y="18" font-family="Virgil, Segoe UI Emoji" font-size="20px" fill="#000000" text-anchor="middle" style="white-space: pre;" direction="ltr">Get</text><text x="40.5" y="43" font-family="Virgil, Segoe UI Emoji" font-size="20px" fill="#000000" text-anchor="middle" style="white-space: pre;" direction="ltr">keys</text></g><g stroke-linecap="round"><g transform="translate(390 104.62439677285414) rotate(0 -78.92384545720319 1.1637230020806157)"><path d="M-1.12 1.08 C-27.46 1.4, -132.51 0.83, -158.34 0.8 M0.49 0.6 C-25.47 1.12, -130.13 1.55, -156.25 1.73" stroke="#000000" stroke-width="1" fill="none"></path></g><g transform="translate(390 104.62439677285414) rotate(0 -78.92384545720319 1.1637230020806157)"><path d="M-126.32 -10.68 C-137.88 -4.29, -145.44 -3.84, -155.47 3.29 M-128.52 -7.75 C-137.82 -5.28, -146.99 -1.45, -156.11 1.16" stroke="#000000" stroke-width="1" fill="none"></path></g><g transform="translate(390 104.62439677285414) rotate(0 -78.92384545720319 1.1637230020806157)"><path d="M-126.21 9.84 C-137.61 10.6, -145.2 5.43, -155.47 3.29 M-128.41 12.77 C-137.71 8.24, -146.91 5.07, -156.11 1.16" stroke="#000000" stroke-width="1" fill="none"></path></g></g><g stroke-linecap="round"><g transform="translate(178.36028627913993 216.9939743733797) rotate(0 85.66455216418058 122.80688333705808)"><path d="M-0.44 -0.8 C28 39.9, 143.28 203.98, 171.77 245.29 M1.53 1.4 C29.76 42.74, 142.53 205.76, 171.1 246.41" stroke="#000000" stroke-width="1" fill="none"></path></g><g transform="translate(178.36028627913993 216.9939743733797) rotate(0 85.66455216418058 122.80688333705808)"><path d="M145.24 230.04 C155.09 234.77, 167.79 242.6, 169.63 245.77 M146.55 229.59 C153.21 233.5, 158.03 237.51, 171.71 246.83" stroke="#000000" stroke-width="1" fill="none"></path></g><g transform="translate(178.36028627913993 216.9939743733797) rotate(0 85.66455216418058 122.80688333705808)"><path d="M162.08 218.31 C165.39 227.61, 171.44 240.08, 169.63 245.77 M163.39 217.87 C166.11 224.56, 166.96 231.35, 171.71 246.83" stroke="#000000" stroke-width="1" fill="none"></path></g></g><g stroke-linecap="round" transform="translate(644.2857142857148 255.59523809523807) rotate(0 63.571428571428555 55)"><path d="M63.38 0.26 L125.72 57.41 L65.93 110.3 L1.16 54.59" stroke="none" stroke-width="0" fill="#40c057" fill-rule="evenodd"></path><path d="M64.23 0.36 C81.16 13.42, 95.3 29.25, 125.46 57.89 M64.84 0.4 C84.09 19.58, 106.15 38.07, 127.56 55.27 M129.11 56.62 C101.93 74.7, 78.36 98.84, 64.44 110.63 M127.48 55.68 C106.46 74.47, 85.67 91.11, 63.85 109.59 M64.69 109.95 C37.41 88.66, 14.32 66.36, 0.6 55.17 M63.14 110.79 C49.04 98.72, 35.15 85.32, 0.58 56.38 M-1.38 56.26 C21.78 36.18, 43.41 18.42, 65.22 -0.61 M0.19 55.33 C23.44 36.97, 45.95 17.73, 63.57 0.89" stroke="#000000" stroke-width="1" fill="none"></path></g><g transform="translate(649.3572142857148 285.5952380952381) rotate(0 58.5 25)"><text x="58.5" y="18" font-family="Virgil, Segoe UI Emoji" font-size="20px" fill="#fff" text-anchor="middle" style="white-space: pre;" direction="ltr">access </text><text x="58.5" y="43" font-family="Virgil, Segoe UI Emoji" font-size="20px" fill="#fff" text-anchor="middle" style="white-space: pre;" direction="ltr">Point</text></g><g stroke-linecap="round"><g transform="translate(541.3078427243235 213.59477428793673) rotate(0 54.800221646412865 40.11374364341331)"><path d="M-0.66 0.09 C17.71 13.8, 92.01 67.72, 110.26 81.13 M1.2 -0.9 C19.48 12.54, 91.98 65.51, 109.74 79.29" stroke="#000000" stroke-width="1" fill="none"></path></g><g transform="translate(541.3078427243235 213.59477428793673) rotate(0 54.800221646412865 40.11374364341331)"><path d="M81.19 71.96 C90.56 72.36, 98.25 75.42, 109.23 81.06 M81.04 70.36 C88.53 73.27, 94.59 75.24, 109.62 79.56" stroke="#000000" stroke-width="1" fill="none"></path></g><g transform="translate(541.3078427243235 213.59477428793673) rotate(0 54.800221646412865 40.11374364341331)"><path d="M93.5 55.54 C98.99 60.85, 102.94 68.89, 109.23 81.06 M93.35 53.94 C98.1 60.79, 101.25 66.64, 109.62 79.56" stroke="#000000" stroke-width="1" fill="none"></path></g></g><g stroke-linecap="round"><g transform="translate(881.9905011680245 259.88181180092624) rotate(0 -58.572024242418706 19.664399701489863)"><path d="M0.48 1.1 C-18.93 7.57, -97.6 31.54, -117.29 37.64 M-0.73 0.64 C-20.13 7.33, -98.07 32.36, -117.62 38.69" stroke="#000000" stroke-width="1" fill="none"></path></g><g transform="translate(881.9905011680245 259.88181180092624) rotate(0 -58.572024242418706 19.664399701489863)"><path d="M-92.11 22.22 C-101.19 25.97, -106.53 29.21, -119.56 40.3 M-94 20.59 C-100.3 23.87, -106.26 29.87, -118.52 38.31" stroke="#000000" stroke-width="1" fill="none"></path></g><g transform="translate(881.9905011680245 259.88181180092624) rotate(0 -58.572024242418706 19.664399701489863)"><path d="M-85.81 41.75 C-96.16 40.98, -102.96 39.67, -119.56 40.3 M-87.7 40.12 C-95.5 38.37, -103.06 39.38, -118.52 38.31" stroke="#000000" stroke-width="1" fill="none"></path></g></g><g stroke-linecap="round"><g transform="translate(682.8923882051184 359.33359643000347) rotate(0 -34.785940603721144 33.176275854553644)"><path d="M0.31 0.29 C-11.08 11.35, -57.64 56, -69.21 66.96 M-0.99 -0.61 C-12.42 10.05, -58.47 53.84, -69.88 65.14" stroke="#000000" stroke-width="1" fill="none"></path></g><g transform="translate(682.8923882051184 359.33359643000347) rotate(0 -34.785940603721144 33.176275854553644)"><path d="M-56.27 39.03 C-58.66 45.46, -63.24 50.99, -71.49 64.78 M-56.97 38.86 C-62.88 48.19, -66.19 57.77, -70.52 66.01" stroke="#000000" stroke-width="1" fill="none"></path></g><g transform="translate(682.8923882051184 359.33359643000347) rotate(0 -34.785940603721144 33.176275854553644)"><path d="M-42 53.78 C-47.73 56.88, -55.56 59.04, -71.49 64.78 M-42.71 53.62 C-53.9 57.28, -62.6 61.28, -70.52 66.01" stroke="#000000" stroke-width="1" fill="none"></path></g></g><g stroke-linecap="round" transform="translate(200.71428571428555 273.69047619047603) rotate(0 46.42857142857139 42.85714285714283)"><path d="M46.87 0.71 L91.27 43.08 L47.29 84.14 L-0.14 43.13" stroke="none" stroke-width="0" fill="#4c6ef5" fill-rule="evenodd"></path><path d="M47.16 1.95 C62.73 13.72, 77.69 27.32, 91.1 41.22 M47.41 0.12 C56.13 8.83, 66.84 19.84, 92.31 42.46 M94.54 41.83 C79.87 52.31, 72.16 63.57, 46.58 85.09 M93.57 43.45 C78.18 56.5, 62.61 71.21, 46.4 86.48 M45.47 84.97 C31.74 73, 20.44 60.74, -1.19 44.21 M46.25 86.46 C31.12 71.97, 16.27 58.08, 0.64 43.72 M0.82 43.48 C18.82 27.56, 32.27 9.81, 46.28 -0.75 M0.4 43.4 C14.39 29.07, 30.12 14.79, 47.16 0.68" stroke="#000000" stroke-width="1" fill="none"></path></g><g transform="translate(205.71428571428555 304.04761904761887) rotate(0 41.42857142857139 12.5)"><text x="41.428571428571374" y="18" font-family="Virgil, Segoe UI Emoji" font-size="20px" fill="#fff" text-anchor="middle" style="white-space: pre;" direction="ltr">Key</text></g><g stroke-linecap="round" transform="translate(283.57142857142856 66.3095238095238) rotate(0 44.99999999999994 37.85714285714286)"><path d="M44.85 0.95 L88.13 36.29 L46.44 74.24 L-1.19 37.03" stroke="none" stroke-width="0" fill="#4c6ef5" fill-rule="evenodd"></path><path d="M43.3 0.59 C62.51 15.05, 75.21 27.96, 90.12 38.71 M44.88 -0.22 C58.28 11.63, 72.44 21.53, 89.23 37.38 M88.73 37.88 C77.94 46.46, 65.6 58.39, 44.86 76.76 M90.98 38.72 C81.47 45.38, 71.72 52.8, 44.52 75.83 M45.81 76.37 C32 62.18, 17.03 50.64, 1.2 37.9 M44.19 75.7 C27.36 61.51, 11.54 46.24, 0.09 38.82 M1.4 37.13 C13.54 25.36, 26.79 12.76, 46.21 -1.62 M0.37 37.53 C9.29 30.74, 20.3 22.43, 45.28 -0.88" stroke="#000000" stroke-width="1" fill="none"></path></g><g transform="translate(288.57142857142856 91.66666666666666) rotate(0 39.99999999999994 12.5)"><text x="39.99999999999994" y="18" font-family="Virgil, Segoe UI Emoji" font-size="20px" fill="#fff" text-anchor="middle" style="white-space: pre;" direction="ltr">Key</text></g><g stroke-linecap="round" transform="translate(692.1428571428572 72.02380952380946) rotate(0 44.999999999999886 37.85714285714286)"><path d="M46.68 -0.89 L90.77 36.85 L45.05 74.39 L-0.93 36.5" stroke="none" stroke-width="0" fill="#4c6ef5" fill-rule="evenodd"></path><path d="M46.19 -0.81 C53.96 10.42, 63.9 16.71, 89.94 37.6 M45.71 0.43 C58.58 10.14, 71.66 21.85, 89.78 37.65 M90.03 38.66 C77.81 46.07, 66.81 58.91, 43.5 74.69 M89.12 37.33 C74.08 52.53, 58.09 64.12, 45.58 75.04 M43.74 76.8 C28.14 62.02, 10.03 46.14, -1.7 36.2 M44.62 76.37 C27.99 62.24, 11.35 48.1, -0.36 38.9 M-0.42 38.07 C16.84 23.7, 34.98 10.36, 44.94 1.68 M0.35 37.19 C12.13 28.1, 24.39 17.18, 45.53 -0.1" stroke="#000000" stroke-width="1" fill="none"></path></g><g transform="translate(697.1428571428572 97.3809523809523) rotate(0 39.999999999999886 12.5)"><text x="39.99999999999994" y="18" font-family="Virgil, Segoe UI Emoji" font-size="20px" fill="#fff" text-anchor="middle" style="white-space: pre;" direction="ltr">Key</text></g><g transform="translate(69.99999999999994 56.595238095238074) rotate(0 36 22.5)"><text x="0" y="32" font-family="Virgil, Segoe UI Emoji" font-size="36px" fill="#000000" text-anchor="start" style="white-space: pre;" direction="ltr">LAB</text></g></svg>