<svg xmlns="http://www.w3.org/2000/svg" xmlns:xlink="http://www.w3.org/1999/xlink" xmlns:lucid="lucid" width="1008" height="1118.67"><g transform="translate(-680 -140)" lucid:page-tab-id="ko36yzduFiYJ"><path d="M0 0h3228.26v2950.3H0z" fill="#fff"/><a xlink:href="http:///dashboard" target="_blank"><path d="M1138 168c0-4.42 3.58-8 8-8h164c4.42 0 8 3.58 8 8v104c0 4.42-3.58 8-8 8h-164c-4.42 0-8-3.58-8-8z" stroke="#333" fill="#fff"/><path d="M1284.25 225.1c1.9 0 2.8-2.4 1.46-3.5l-55.34-49.4-55.46 49.5c-1.35 1.1-.45 3.4 1.46 3.4h9.68V270h29.47v-37.4h25.33V270h29.58v-44.9h13.85zm-85.6-48.6h-16.77v26.3l16.76-14.9v-11.4z" fill="#f3f3f3"/><path d="M1283.5 267.96h-1.82c-1.57.02-2.9-1.1-2.9-2.43 0-.65.3-1.25.83-1.72.53-.43 1.23-.7 2-.7h6.72c1.38 0 3.74.23 3.74 1.85.04.75.74 1.35 1.62 1.35.88 0 1.57-.62 1.57-1.36-.04-2.77-2.74-4.54-6.93-4.54h-6.73c-1.62.02-3.15.54-4.28 1.52-1.12.98-1.73 2.26-1.73 3.63 0 1.42.7 2.7 1.8 3.63 1.1.93 2.6 1.48 4.28 1.48h1.83c.9 0 1.6-.6 1.6-1.34 0-.74-.7-1.36-1.6-1.36zm23.25-2.47c-.04-2.97-2.4-5.12-5.63-5.12h-2.27c-.88 0-1.62.6-1.62 1.37 0 .74.74 1.34 1.62 1.34h2.27c1.65 0 2.44 1.2 2.44 2.42 0 .64-.28 1.27-.8 1.7-.55.48-1.25.72-2.02.72l-7.15.02c-3.32 0-3.32-1.3-3.32-1.87-.04-.75-.74-1.35-1.6-1.35-.88 0-1.62.6-1.6 1.37 0 1.28.52 2.32 1.44 3.1 1.1.93 2.82 1.43 5.07 1.43h7.16c1.62 0 3.13-.54 4.26-1.5 1.14-.98 1.73-2.28 1.73-3.66z" stroke="#333" fill="#333"/><use xlink:href="#a" transform="matrix(1,0,0,1,1143,165) translate(30.19814814814815 59.48888888888888)"/><path class="lucid-link lucid-hotspot lucid-overlay-hotspot" d="M1138 168c0-4.42 3.58-8 8-8h164c4.42 0 8 3.58 8 8v104c0 4.42-3.58 8-8 8h-164c-4.42 0-8-3.58-8-8z" fill="none"/><path class="lucid-link lucid-hotspot lucid-overlay-hotspot" d="M1284.25 225.1c1.9 0 2.8-2.4 1.46-3.5l-55.34-49.4-55.46 49.5c-1.35 1.1-.45 3.4 1.46 3.4h9.68V270h29.47v-37.4h25.33V270h29.58v-44.9h13.85zm-85.6-48.6h-16.77v26.3l16.76-14.9v-11.4zM1283.5 267.96h-1.82c-1.57.02-2.9-1.1-2.9-2.43 0-.65.3-1.25.83-1.72.53-.43 1.23-.7 2-.7h6.72c1.38 0 3.74.23 3.74 1.85.04.75.74 1.35 1.62 1.35.88 0 1.57-.62 1.57-1.36-.04-2.77-2.74-4.54-6.93-4.54h-6.73c-1.62.02-3.15.54-4.28 1.52-1.12.98-1.73 2.26-1.73 3.63 0 1.42.7 2.7 1.8 3.63 1.1.93 2.6 1.48 4.28 1.48h1.83c.9 0 1.6-.6 1.6-1.34 0-.74-.7-1.36-1.6-1.36zm23.25-2.47c-.04-2.97-2.4-5.12-5.63-5.12h-2.27c-.88 0-1.62.6-1.62 1.37 0 .74.74 1.34 1.62 1.34h2.27c1.65 0 2.44 1.2 2.44 2.42 0 .64-.28 1.27-.8 1.7-.55.48-1.25.72-2.02.72l-7.15.02c-3.32 0-3.32-1.3-3.32-1.87-.04-.75-.74-1.35-1.6-1.35-.88 0-1.62.6-1.6 1.37 0 1.28.52 2.32 1.44 3.1 1.1.93 2.82 1.43 5.07 1.43h7.16c1.62 0 3.13-.54 4.26-1.5 1.14-.98 1.73-2.28 1.73-3.66z" fill="none"/></a><path d="M1155.5 328c0-4.42 3.58-8 8-8h144c4.42 0 8 3.58 8 8v104c0 4.42-3.58 8-8 8h-144c-4.42 0-8-3.58-8-8z" stroke="#333" fill="#fff"/><use xlink:href="#b" transform="matrix(1,0,0,1,1160.5,325) translate(13.99475308641977 59.48888888888888)"/><path d="M1228 281v15.25c0 2.07 1.68 3.75 3.75 3.75 2.07 0 3.75 1.68 3.75 3.75V319" stroke="#333" fill="none"/><path d="M1228.5 281h-1v-.5h1zM1236 319.5h-1v-.5h1z" stroke="#333" stroke-width=".05" fill="#333"/><path d="M788 328c0-4.42 3.58-8 8-8h144c4.42 0 8 3.58 8 8v104c0 4.42-3.58 8-8 8H796c-4.42 0-8-3.58-8-8z" stroke="#333" fill="#fff"/><use xlink:href="#c" transform="matrix(1,0,0,1,793.0000000000001,325) translate(12.747839506172852 59.48888888888888)"/><path d="M1228 281v7c0 6.63-5.37 12-12 12H880c-6.63 0-12 5.37-12 12v7" stroke="#333" fill="none"/><path d="M1228.5 281h-1v-.5h1zM868.5 319.5h-1v-.5h1z" stroke="#333" stroke-width=".05" fill="#333"/><path d="M1328 328c0-4.42 3.58-8 8-8h144c4.42 0 8 3.58 8 8v104c0 4.42-3.58 8-8 8h-144c-4.42 0-8-3.58-8-8z" stroke="#333" fill="#fff"/><use xlink:href="#d" transform="matrix(1,0,0,1,1333,325) translate(47.56790123456791 59.48888888888888)"/><path d="M1228 281v7c0 6.63 5.37 12 12 12h156c6.63 0 12 5.37 12 12v7" stroke="#333" fill="none"/><path d="M1228.5 281h-1v-.5h1zM1408.5 319.5h-1v-.5h1z" stroke="#333" stroke-width=".05" fill="#333"/><path d="M974 328c0-4.42 3.58-8 8-8h144c4.42 0 8 3.58 8 8v104c0 4.42-3.58 8-8 8H982c-4.42 0-8-3.58-8-8z" stroke="#333" fill="#fff"/><path d="M1032.9 373.8c8.4 0 15.3-6.9 15.3-15.3 0-8.5-6.9-15.3-15.3-15.3s-15.3 6.8-15.3 15.3c0 8.4 6.9 15.3 15.3 15.3m.3 6c-14.6 0-26.6 12.3-27.9 28-.2 2 .7 3.9 2.3 5 7.4 4.6 16.2 7.3 25.6 7.3 9.4 0 18.2-2.7 25.6-7.3 1.7-1.1 2.5-3 2.4-5-1.4-15.7-13.4-28-28-28m53.3 1.7v-7.9l7.8-4.5v-4.4h-7.8v-6.4l8.1-5.4v-8.1h-16.2v37.6c-7.1 2.5-12.2 9.2-12.2 17.2 0 10 8.2 18.2 18.3 18.2 10.1 0 18.3-8.2 18.3-18.2 0-9.4-7.2-17.1-16.3-18.1m-2 28.2c-5.6 0-10.1-4.5-10.1-10.1s4.5-10.2 10.1-10.2 10.1 4.6 10.1 10.2-4.5 10.1-10.1 10.1" fill="#f3f3f3"/><use xlink:href="#e" transform="matrix(1,0,0,1,979,325) translate(34.47530864197532 59.48888888888888)"/><path d="M1228 281v7c0 6.63-5.37 12-12 12h-150c-6.63 0-12 5.37-12 12v7" stroke="#333" fill="none"/><path d="M1228.5 281h-1v-.5h1zM1054.5 319.5h-1v-.5h1z" stroke="#333" stroke-width=".05" fill="#333"/><path d="M1508 328c0-4.42 3.58-8 8-8h144c4.42 0 8 3.58 8 8v104c0 4.42-3.58 8-8 8h-144c-4.42 0-8-3.58-8-8z" stroke="#333" fill="#fff"/><use xlink:href="#f" transform="matrix(1,0,0,1,1513,325) translate(56.296296296296305 59.48888888888888)"/><path d="M1228 281v7c0 6.63 5.37 12 12 12h336c6.63 0 12 5.37 12 12v7" stroke="#333" fill="none"/><path d="M1228.5 281h-1v-.5h1zM1588.5 319.5h-1v-.5h1z" stroke="#333" stroke-width=".05" fill="#333"/><path d="M974 506.42c0-4.42 3.58-8 8-8h128c4.42 0 8 3.58 8 8v92c0 4.4-3.58 8-8 8H982c-4.42 0-8-3.6-8-8z" stroke="#333" fill="#fff"/><path d="M990 518.42c0-4.42 3.58-8 8-8h128c4.42 0 8 3.58 8 8v92c0 4.4-3.58 8-8 8H998c-4.42 0-8-3.6-8-8z" stroke="#333" fill="#fff"/><use xlink:href="#g" transform="matrix(1,0,0,1,995,515.4166666666666) translate(35.29722222222223 40.022222222222226)"/><use xlink:href="#h" transform="matrix(1,0,0,1,995,515.4166666666666) translate(34.64259259259261 66.95555555555555)"/><path d="M993.5 441v16.46c0 6.63-5.37 12-12 12h-36c-6.63 0-12 5.37-12 12v64.96c0 6.62 5.37 12 12 12H973" stroke="#333" fill="none"/><path d="M994 441h-1v-.5h1zM973.5 558.92h-.5v-1h.5z" stroke="#333" stroke-width=".05" fill="#333"/><path d="M974 666.42c0-4.42 3.58-8 8-8h128c4.42 0 8 3.58 8 8v92c0 4.4-3.58 8-8 8H982c-4.42 0-8-3.6-8-8z" stroke="#333" fill="#fff"/><path d="M990 678.42c0-4.42 3.58-8 8-8h128c4.42 0 8 3.58 8 8v92c0 4.4-3.58 8-8 8H998c-4.42 0-8-3.6-8-8z" stroke="#333" fill="#fff"/><use xlink:href="#i" transform="matrix(1,0,0,1,995,675.4166666666666) translate(15.377777777777794 53.48888888888888)"/><use xlink:href="#j" transform="matrix(1,0,0,1,995,675.4166666666666) translate(81.21481481481482 53.48888888888888)"/><path d="M993.5 441v27.5c0 6.63-5.37 12-12 12h-36c-6.63 0-12 5.37-12 12v213.92c0 6.62 5.37 12 12 12H973" stroke="#333" fill="none"/><path d="M994 441h-1v-.5h1zM973.5 718.92h-.5v-1h.5z" stroke="#333" stroke-width=".05" fill="#333"/><path d="M700 486.67c0-4.42 3.58-8 8-8h144c4.42 0 8 3.58 8 8v104c0 4.4-3.58 8-8 8H708c-4.42 0-8-3.6-8-8z" stroke="#333" fill="#fff"/><use xlink:href="#k" transform="matrix(1,0,0,1,705,483.66666666666663) translate(40.8033950617284 59.48888888888888)"/><path d="M868 441v6.33c0 6.63-5.37 12-12 12h-64c-6.63 0-12 5.38-12 12v6.34" stroke="#333" fill="none"/><path d="M868.5 441h-1v-.5h1zM780.5 478.17h-1v-.52h1z" stroke="#333" stroke-width=".05" fill="#333"/><path d="M700 646.67c0-4.42 3.58-8 8-8h144c4.42 0 8 3.58 8 8v104c0 4.4-3.58 8-8 8H708c-4.42 0-8-3.6-8-8z" stroke="#333" fill="#fff"/><use xlink:href="#l" transform="matrix(1,0,0,1,705,643.6666666666666) translate(30.765740740740746 59.48888888888888)"/><path d="M780 599.67v38" stroke="#333" fill="none"/><path d="M780.5 599.68h-1v-.5h1zM780.5 638.17h-1v-.52h1z" stroke="#333" stroke-width=".05" fill="#333"/><path d="M974 826.42c0-4.42 3.58-8 8-8h144c4.42 0 8 3.58 8 8v104c0 4.4-3.58 8-8 8H982c-4.42 0-8-3.6-8-8z" stroke="#333" fill="#fff"/><use xlink:href="#m" transform="matrix(1,0,0,1,979,823.4166666666666) translate(38.2783950617284 59.48888888888888)"/><path d="M993.5 441v27.5c0 6.63-5.37 12-12 12h-36c-6.63 0-12 5.37-12 12v373.92c0 6.62 5.37 12 12 12H973" stroke="#333" fill="none"/><path d="M994 441h-1v-.5h1zM973.5 878.92h-.5v-1h.5z" stroke="#333" stroke-width=".05" fill="#333"/><path d="M700 806.67c0-4.42 3.58-8 8-8h144c4.42 0 8 3.58 8 8v104c0 4.4-3.58 8-8 8H708c-4.42 0-8-3.6-8-8z" stroke="#333" fill="#fff"/><use xlink:href="#n" transform="matrix(1,0,0,1,705,803.6666666666666) translate(9.4746913580247 59.48888888888888)"/><use xlink:href="#o" transform="matrix(1,0,0,1,705,803.6666666666666) translate(89.52654320987654 59.48888888888888)"/><path d="M780 759.67v38" stroke="#333" fill="none"/><path d="M780.5 759.68h-1v-.5h1zM780.5 798.17h-1v-.52h1z" stroke="#333" stroke-width=".05" fill="#333"/><path d="M780 919.67v38" stroke="#333" fill="none"/><path d="M780.5 919.68h-1v-.5h1zM780.5 958.17h-1v-.52h1z" stroke="#333" stroke-width=".05" fill="#333"/><path d="M700 966.67c0-4.42 3.58-8 8-8h144c4.42 0 8 3.58 8 8v104c0 4.4-3.58 8-8 8H708c-4.42 0-8-3.6-8-8z" stroke="#333" fill="#fff"/><path d="M825.4 989.47l-17.6 14.7v-7.4c0-6.1-5-11.1-11.1-11.1h-55.6c-6.1 0-11.1 5-11.1 11.1v44.4c0 6.2 5 11.2 11.1 11.2h55.6c6.1 0 11.1-5 11.1-11.2v-7.4l17.6 14.8c1.9 1.5 4.6.2 4.6-2.2v-54.8c0-2.3-2.7-3.6-4.6-2.1m-40.7 31.2l-21.9 19.5c-1.3 1.2-3.2.2-3.2-1.5l.1-39.3c.1-1.8 1.9-2.7 3.3-1.5l21.7 19.8c.9.8.9 2.2 0 3" fill="#f3f3f3"/><use xlink:href="#p" transform="matrix(1,0,0,1,705,963.6666666666666) translate(55.766358024691364 59.48888888888888)"/><path d="M780 1079.67v38" stroke="#333" fill="none"/><path d="M780.5 1079.68h-1v-.5h1zM780.5 1118.17h-1v-.52h1z" stroke="#333" stroke-width=".05" fill="#333"/><path d="M700 1126.67c0-4.42 3.58-8 8-8h144c4.42 0 8 3.58 8 8v104c0 4.4-3.58 8-8 8H708c-4.42 0-8-3.6-8-8z" stroke="#333" fill="#fff"/><use xlink:href="#q" transform="matrix(1,0,0,1,705,1123.6666666666665) translate(25.77808641975311 59.48888888888888)"/><path d="M1155.5 488c0-4.42 3.58-8 8-8h144c4.42 0 8 3.58 8 8v104c0 4.42-3.58 8-8 8h-144c-4.42 0-8-3.58-8-8z" stroke="#333" fill="#fff"/><use xlink:href="#r" transform="matrix(1,0,0,1,1160.5,485) translate(19.605864197530877 46.022222222222226)"/><use xlink:href="#h" transform="matrix(1,0,0,1,1160.5,485) translate(42.64259259259261 72.95555555555555)"/><path d="M1235.5 441v38" stroke="#333" fill="none"/><path d="M1236 441h-1v-.5h1zM1236 479.5h-1v-.5h1z" stroke="#333" stroke-width=".05" fill="#333"/><path d="M1155.5 648c0-4.42 3.58-8 8-8h144c4.42 0 8 3.58 8 8v104c0 4.42-3.58 8-8 8h-144c-4.42 0-8-3.58-8-8z" stroke="#333" fill="#fff"/><use xlink:href="#q" transform="matrix(1,0,0,1,1160.5,645) translate(25.77808641975311 59.48888888888888)"/><path d="M1235.5 601v38" stroke="#333" fill="none"/><path d="M1236 601h-1v-.5h1zM1236 639.5h-1v-.5h1z" stroke="#333" stroke-width=".05" fill="#333"/><defs><path fill="#333" d="M30-248c118-7 216 8 213 122C240-48 200 0 122 0H30v-248zM63-27c89 8 146-16 146-99s-60-101-146-95v194" id="s"/><path fill="#333" d="M141-36C126-15 110 5 73 4 37 3 15-17 15-53c-1-64 63-63 125-63 3-35-9-54-41-54-24 1-41 7-42 31l-33-3c5-37 33-52 76-52 45 0 72 20 72 64v82c-1 20 7 32 28 27v20c-31 9-61-2-59-35zM48-53c0 20 12 33 32 33 41-3 63-29 60-74-43 2-92-5-92 41" id="t"/><path fill="#333" d="M135-143c-3-34-86-38-87 0 15 53 115 12 119 90S17 21 10-45l28-5c4 36 97 45 98 0-10-56-113-15-118-90-4-57 82-63 122-42 12 7 21 19 24 35" id="u"/><path fill="#333" d="M106-169C34-169 62-67 57 0H25v-261h32l-1 103c12-21 28-36 61-36 89 0 53 116 60 194h-32v-121c2-32-8-49-39-48" id="v"/><path fill="#333" d="M115-194c53 0 69 39 70 98 0 66-23 100-70 100C84 3 66-7 56-30L54 0H23l1-261h32v101c10-23 28-34 59-34zm-8 174c40 0 45-34 45-75 0-40-5-75-45-74-42 0-51 32-51 76 0 43 10 73 51 73" id="w"/><path fill="#333" d="M100-194c62-1 85 37 85 99 1 63-27 99-86 99S16-35 15-95c0-66 28-99 85-99zM99-20c44 1 53-31 53-75 0-43-8-75-51-75s-53 32-53 75 10 74 51 75" id="x"/><path fill="#333" d="M114-163C36-179 61-72 57 0H25l-1-190h30c1 12-1 29 2 39 6-27 23-49 58-41v29" id="y"/><path fill="#333" d="M85-194c31 0 48 13 60 33l-1-100h32l1 261h-30c-2-10 0-23-3-31C134-8 116 4 85 4 32 4 16-35 15-94c0-66 23-100 70-100zm9 24c-40 0-46 34-46 75 0 40 6 74 45 74 42 0 51-32 51-76 0-42-9-74-50-73" id="z"/><g id="a"><use transform="matrix(0.06234567901234567,0,0,0.06234567901234567,0,0)" xlink:href="#s"/><use transform="matrix(0.06234567901234567,0,0,0.06234567901234567,16.147530864197527,0)" xlink:href="#t"/><use transform="matrix(0.06234567901234567,0,0,0.06234567901234567,28.61666666666666,0)" xlink:href="#u"/><use transform="matrix(0.06234567901234567,0,0,0.06234567901234567,39.83888888888888,0)" xlink:href="#v"/><use transform="matrix(0.06234567901234567,0,0,0.06234567901234567,52.308024691358014,0)" xlink:href="#w"/><use transform="matrix(0.06234567901234567,0,0,0.06234567901234567,64.77716049382715,0)" xlink:href="#x"/><use transform="matrix(0.06234567901234567,0,0,0.06234567901234567,77.2462962962963,0)" xlink:href="#t"/><use transform="matrix(0.06234567901234567,0,0,0.06234567901234567,89.71543209876543,0)" xlink:href="#y"/><use transform="matrix(0.06234567901234567,0,0,0.06234567901234567,97.13456790123456,0)" xlink:href="#z"/></g><path fill="#333" d="M30-248c87 1 191-15 191 75 0 78-77 80-158 76V0H30v-248zm33 125c57 0 124 11 124-50 0-59-68-47-124-48v98" id="A"/><path fill="#333" d="M100-194c63 0 86 42 84 106H49c0 40 14 67 53 68 26 1 43-12 49-29l28 8c-11 28-37 45-77 45C44 4 14-33 15-96c1-61 26-98 85-98zm52 81c6-60-76-77-97-28-3 7-6 17-6 28h103" id="B"/><path fill="#333" d="M96-169c-40 0-48 33-48 73s9 75 48 75c24 0 41-14 43-38l32 2c-6 37-31 61-74 61-59 0-76-41-82-99-10-93 101-131 147-64 4 7 5 14 7 22l-32 3c-4-21-16-35-41-35" id="C"/><path fill="#333" d="M24-231v-30h32v30H24zM24 0v-190h32V0H24" id="D"/><path fill="#333" d="M115-194c55 1 70 41 70 98S169 2 115 4C84 4 66-9 55-30l1 105H24l-1-265h31l2 30c10-21 28-34 59-34zm-8 174c40 0 45-34 45-75s-6-73-45-74c-42 0-51 32-51 76 0 43 10 73 51 73" id="E"/><path fill="#333" d="M59-47c-2 24 18 29 38 22v24C64 9 27 4 27-40v-127H5v-23h24l9-43h21v43h35v23H59v120" id="F"/><path fill="#333" d="M117-194c89-4 53 116 60 194h-32v-121c0-31-8-49-39-48C34-167 62-67 57 0H25l-1-190h30c1 10-1 24 2 32 11-22 29-35 61-36" id="G"/><g id="b"><use transform="matrix(0.06234567901234567,0,0,0.06234567901234567,0,0)" xlink:href="#A"/><use transform="matrix(0.06234567901234567,0,0,0.06234567901234567,14.96296296296296,0)" xlink:href="#B"/><use transform="matrix(0.06234567901234567,0,0,0.06234567901234567,27.432098765432094,0)" xlink:href="#u"/><use transform="matrix(0.06234567901234567,0,0,0.06234567901234567,38.654320987654316,0)" xlink:href="#C"/><use transform="matrix(0.06234567901234567,0,0,0.06234567901234567,49.87654320987654,0)" xlink:href="#y"/><use transform="matrix(0.06234567901234567,0,0,0.06234567901234567,57.29567901234567,0)" xlink:href="#D"/><use transform="matrix(0.06234567901234567,0,0,0.06234567901234567,62.22098765432098,0)" xlink:href="#E"/><use transform="matrix(0.06234567901234567,0,0,0.06234567901234567,74.6901234567901,0)" xlink:href="#F"/><use transform="matrix(0.06234567901234567,0,0,0.06234567901234567,80.92469135802467,0)" xlink:href="#D"/><use transform="matrix(0.06234567901234567,0,0,0.06234567901234567,85.84999999999998,0)" xlink:href="#x"/><use transform="matrix(0.06234567901234567,0,0,0.06234567901234567,98.3191358024691,0)" xlink:href="#G"/><use transform="matrix(0.06234567901234567,0,0,0.06234567901234567,110.78827160493825,0)" xlink:href="#u"/></g><path fill="#333" d="M212-179c-10-28-35-45-73-45-59 0-87 40-87 99 0 60 29 101 89 101 43 0 62-24 78-52l27 14C228-24 195 4 139 4 59 4 22-46 18-125c-6-104 99-153 187-111 19 9 31 26 39 46" id="H"/><path fill="#333" d="M84 4C-5 8 30-112 23-190h32v120c0 31 7 50 39 49 72-2 45-101 50-169h31l1 190h-30c-1-10 1-25-2-33-11 22-28 36-60 37" id="I"/><path fill="#333" d="M24 0v-261h32V0H24" id="J"/><g id="c"><use transform="matrix(0.06234567901234567,0,0,0.06234567901234567,0,0)" xlink:href="#H"/><use transform="matrix(0.06234567901234567,0,0,0.06234567901234567,16.147530864197527,0)" xlink:href="#x"/><use transform="matrix(0.06234567901234567,0,0,0.06234567901234567,28.61666666666666,0)" xlink:href="#G"/><use transform="matrix(0.06234567901234567,0,0,0.06234567901234567,41.08580246913579,0)" xlink:href="#u"/><use transform="matrix(0.06234567901234567,0,0,0.06234567901234567,52.308024691358014,0)" xlink:href="#I"/><use transform="matrix(0.06234567901234567,0,0,0.06234567901234567,64.77716049382715,0)" xlink:href="#J"/><use transform="matrix(0.06234567901234567,0,0,0.06234567901234567,69.70246913580246,0)" xlink:href="#F"/><use transform="matrix(0.06234567901234567,0,0,0.06234567901234567,75.93703703703703,0)" xlink:href="#t"/><use transform="matrix(0.06234567901234567,0,0,0.06234567901234567,88.40617283950616,0)" xlink:href="#F"/><use transform="matrix(0.06234567901234567,0,0,0.06234567901234567,94.64074074074072,0)" xlink:href="#D"/><use transform="matrix(0.06234567901234567,0,0,0.06234567901234567,99.56604938271603,0)" xlink:href="#x"/><use transform="matrix(0.06234567901234567,0,0,0.06234567901234567,112.03518518518516,0)" xlink:href="#G"/></g><path fill="#333" d="M33 0v-248h34V0H33" id="K"/><path fill="#333" d="M141 0L90-78 38 0H4l68-98-65-92h35l48 74 47-74h35l-64 92 68 98h-35" id="L"/><g id="d"><use transform="matrix(0.06234567901234567,0,0,0.06234567901234567,0,0)" xlink:href="#K"/><use transform="matrix(0.06234567901234567,0,0,0.06234567901234567,6.234567901234566,0)" xlink:href="#G"/><use transform="matrix(0.06234567901234567,0,0,0.06234567901234567,18.7037037037037,0)" xlink:href="#w"/><use transform="matrix(0.06234567901234567,0,0,0.06234567901234567,31.17283950617283,0)" xlink:href="#x"/><use transform="matrix(0.06234567901234567,0,0,0.06234567901234567,43.64197530864196,0)" xlink:href="#L"/></g><path fill="#333" d="M205 0l-28-72H64L36 0H1l101-248h38L239 0h-34zm-38-99l-47-123c-12 45-31 82-46 123h93" id="M"/><g id="e"><use transform="matrix(0.06234567901234567,0,0,0.06234567901234567,0,0)" xlink:href="#M"/><use transform="matrix(0.06234567901234567,0,0,0.06234567901234567,14.96296296296296,0)" xlink:href="#C"/><use transform="matrix(0.06234567901234567,0,0,0.06234567901234567,26.18518518518518,0)" xlink:href="#C"/><use transform="matrix(0.06234567901234567,0,0,0.06234567901234567,37.4074074074074,0)" xlink:href="#x"/><use transform="matrix(0.06234567901234567,0,0,0.06234567901234567,49.87654320987653,0)" xlink:href="#I"/><use transform="matrix(0.06234567901234567,0,0,0.06234567901234567,62.34567901234566,0)" xlink:href="#G"/><use transform="matrix(0.06234567901234567,0,0,0.06234567901234567,74.8148148148148,0)" xlink:href="#F"/></g><path fill="#333" d="M155-56V0h-30v-56H8v-25l114-167h33v167h35v25h-35zm-30-156c-27 46-58 90-88 131h88v-131" id="N"/><path fill="#333" d="M101-251c68 0 85 55 85 127S166 4 100 4C33 4 14-52 14-124c0-73 17-127 87-127zm-1 229c47 0 54-49 54-102s-4-102-53-102c-51 0-55 48-55 102 0 53 5 102 54 102" id="O"/><g id="f"><use transform="matrix(0.06234567901234567,0,0,0.06234567901234567,0,0)" xlink:href="#N"/><use transform="matrix(0.06234567901234567,0,0,0.06234567901234567,12.469135802469133,0)" xlink:href="#O"/><use transform="matrix(0.06234567901234567,0,0,0.06234567901234567,24.938271604938265,0)" xlink:href="#N"/></g><path fill="#333" d="M101-234c-31-9-42 10-38 44h38v23H63V0H32v-167H5v-23h27c-7-52 17-82 69-68v24" id="P"/><g id="g"><use transform="matrix(0.06234567901234567,0,0,0.06234567901234567,0,0)" xlink:href="#A"/><use transform="matrix(0.06234567901234567,0,0,0.06234567901234567,14.96296296296296,0)" xlink:href="#y"/><use transform="matrix(0.06234567901234567,0,0,0.06234567901234567,22.382098765432094,0)" xlink:href="#x"/><use transform="matrix(0.06234567901234567,0,0,0.06234567901234567,34.85123456790123,0)" xlink:href="#P"/><use transform="matrix(0.06234567901234567,0,0,0.06234567901234567,41.0858024691358,0)" xlink:href="#D"/><use transform="matrix(0.06234567901234567,0,0,0.06234567901234567,46.011111111111106,0)" xlink:href="#J"/><use transform="matrix(0.06234567901234567,0,0,0.06234567901234567,50.93641975308641,0)" xlink:href="#B"/></g><g id="h"><use transform="matrix(0.06234567901234567,0,0,0.06234567901234567,0,0)" xlink:href="#z"/><use transform="matrix(0.06234567901234567,0,0,0.06234567901234567,12.469135802469133,0)" xlink:href="#B"/><use transform="matrix(0.06234567901234567,0,0,0.06234567901234567,24.938271604938265,0)" xlink:href="#F"/><use transform="matrix(0.06234567901234567,0,0,0.06234567901234567,31.17283950617283,0)" xlink:href="#t"/><use transform="matrix(0.06234567901234567,0,0,0.06234567901234567,43.64197530864196,0)" xlink:href="#D"/><use transform="matrix(0.06234567901234567,0,0,0.06234567901234567,48.567283950617266,0)" xlink:href="#J"/><use transform="matrix(0.06234567901234567,0,0,0.06234567901234567,53.49259259259257,0)" xlink:href="#u"/></g><path fill="#333" d="M160-131c35 5 61 23 61 61C221 17 115-2 30 0v-248c76 3 177-17 177 60 0 33-19 50-47 57zm-97-11c50-1 110 9 110-42 0-47-63-36-110-37v79zm0 115c55-2 124 14 124-45 0-56-70-42-124-44v89" id="Q"/><path fill="#333" d="M177-190C167-65 218 103 67 71c-23-6-38-20-44-43l32-5c15 47 100 32 89-28v-30C133-14 115 1 83 1 29 1 15-40 15-95c0-56 16-97 71-98 29-1 48 16 59 35 1-10 0-23 2-32h30zM94-22c36 0 50-32 50-73 0-42-14-75-50-75-39 0-46 34-46 75s6 73 46 73" id="R"/><g id="i"><use transform="matrix(0.06234567901234567,0,0,0.06234567901234567,0,0)" xlink:href="#Q"/><use transform="matrix(0.06234567901234567,0,0,0.06234567901234567,14.96296296296296,0)" xlink:href="#D"/><use transform="matrix(0.06234567901234567,0,0,0.06234567901234567,19.888271604938268,0)" xlink:href="#J"/><use transform="matrix(0.06234567901234567,0,0,0.06234567901234567,24.813580246913574,0)" xlink:href="#J"/><use transform="matrix(0.06234567901234567,0,0,0.06234567901234567,29.73888888888888,0)" xlink:href="#D"/><use transform="matrix(0.06234567901234567,0,0,0.06234567901234567,34.664197530864186,0)" xlink:href="#G"/><use transform="matrix(0.06234567901234567,0,0,0.06234567901234567,47.13333333333332,0)" xlink:href="#R"/></g><g id="j"><use transform="matrix(0.06234567901234567,0,0,0.06234567901234567,0,0)" xlink:href="#K"/><use transform="matrix(0.06234567901234567,0,0,0.06234567901234567,6.234567901234566,0)" xlink:href="#G"/><use transform="matrix(0.06234567901234567,0,0,0.06234567901234567,18.7037037037037,0)" xlink:href="#P"/><use transform="matrix(0.06234567901234567,0,0,0.06234567901234567,24.938271604938265,0)" xlink:href="#x"/></g><g id="k"><use transform="matrix(0.06234567901234567,0,0,0.06234567901234567,0,0)" xlink:href="#s"/><use transform="matrix(0.06234567901234567,0,0,0.06234567901234567,16.147530864197527,0)" xlink:href="#B"/><use transform="matrix(0.06234567901234567,0,0,0.06234567901234567,28.61666666666666,0)" xlink:href="#F"/><use transform="matrix(0.06234567901234567,0,0,0.06234567901234567,34.85123456790123,0)" xlink:href="#t"/><use transform="matrix(0.06234567901234567,0,0,0.06234567901234567,47.32037037037036,0)" xlink:href="#D"/><use transform="matrix(0.06234567901234567,0,0,0.06234567901234567,52.24567901234567,0)" xlink:href="#J"/><use transform="matrix(0.06234567901234567,0,0,0.06234567901234567,57.170987654320975,0)" xlink:href="#u"/></g><path fill="#333" d="M179-190L93 31C79 59 56 82 12 73V49c39 6 53-20 64-50L1-190h34L92-34l54-156h33" id="S"/><path fill="#333" d="M210-169c-67 3-38 105-44 169h-31v-121c0-29-5-50-35-48C34-165 62-65 56 0H25l-1-190h30c1 10-1 24 2 32 10-44 99-50 107 0 11-21 27-35 58-36 85-2 47 119 55 194h-31v-121c0-29-5-49-35-48" id="T"/><g id="l"><use transform="matrix(0.06234567901234567,0,0,0.06234567901234567,0,0)" xlink:href="#A"/><use transform="matrix(0.06234567901234567,0,0,0.06234567901234567,14.96296296296296,0)" xlink:href="#t"/><use transform="matrix(0.06234567901234567,0,0,0.06234567901234567,27.432098765432094,0)" xlink:href="#S"/><use transform="matrix(0.06234567901234567,0,0,0.06234567901234567,38.654320987654316,0)" xlink:href="#T"/><use transform="matrix(0.06234567901234567,0,0,0.06234567901234567,57.29567901234567,0)" xlink:href="#B"/><use transform="matrix(0.06234567901234567,0,0,0.06234567901234567,69.7648148148148,0)" xlink:href="#G"/><use transform="matrix(0.06234567901234567,0,0,0.06234567901234567,82.23395061728394,0)" xlink:href="#F"/></g><path fill="#333" d="M153-248C145-148 188 4 80 4 36 3 13-21 6-62l32-5c4 25 16 42 43 43 27 0 39-20 39-49v-147H72v-28h81" id="U"/><g id="m"><use transform="matrix(0.06234567901234567,0,0,0.06234567901234567,0,0)" xlink:href="#U"/><use transform="matrix(0.06234567901234567,0,0,0.06234567901234567,11.22222222222222,0)" xlink:href="#x"/><use transform="matrix(0.06234567901234567,0,0,0.06234567901234567,23.691358024691354,0)" xlink:href="#I"/><use transform="matrix(0.06234567901234567,0,0,0.06234567901234567,36.16049382716049,0)" xlink:href="#y"/><use transform="matrix(0.06234567901234567,0,0,0.06234567901234567,43.57962962962962,0)" xlink:href="#G"/><use transform="matrix(0.06234567901234567,0,0,0.06234567901234567,56.048765432098755,0)" xlink:href="#t"/><use transform="matrix(0.06234567901234567,0,0,0.06234567901234567,68.51790123456789,0)" xlink:href="#J"/></g><path fill="#333" d="M266 0h-40l-56-210L115 0H75L2-248h35L96-30l15-64 43-154h32l59 218 59-218h35" id="V"/><g id="n"><use transform="matrix(0.06234567901234567,0,0,0.06234567901234567,0,0)" xlink:href="#V"/><use transform="matrix(0.06234567901234567,0,0,0.06234567901234567,20.32469135802469,0)" xlink:href="#t"/><use transform="matrix(0.06234567901234567,0,0,0.06234567901234567,32.79382716049382,0)" xlink:href="#D"/><use transform="matrix(0.06234567901234567,0,0,0.06234567901234567,37.719135802469125,0)" xlink:href="#F"/><use transform="matrix(0.06234567901234567,0,0,0.06234567901234567,43.953703703703695,0)" xlink:href="#D"/><use transform="matrix(0.06234567901234567,0,0,0.06234567901234567,48.879012345679,0)" xlink:href="#G"/><use transform="matrix(0.06234567901234567,0,0,0.06234567901234567,61.348148148148134,0)" xlink:href="#R"/></g><g id="o"><use transform="matrix(0.06234567901234567,0,0,0.06234567901234567,0,0)" xlink:href="#y"/><use transform="matrix(0.06234567901234567,0,0,0.06234567901234567,7.4191358024691345,0)" xlink:href="#x"/><use transform="matrix(0.06234567901234567,0,0,0.06234567901234567,19.888271604938268,0)" xlink:href="#x"/><use transform="matrix(0.06234567901234567,0,0,0.06234567901234567,32.3574074074074,0)" xlink:href="#T"/></g><g id="p"><use transform="matrix(0.06234567901234567,0,0,0.06234567901234567,0,0)" xlink:href="#H"/><use transform="matrix(0.06234567901234567,0,0,0.06234567901234567,16.147530864197527,0)" xlink:href="#t"/><use transform="matrix(0.06234567901234567,0,0,0.06234567901234567,28.61666666666666,0)" xlink:href="#J"/><use transform="matrix(0.06234567901234567,0,0,0.06234567901234567,33.541975308641966,0)" xlink:href="#J"/></g><path fill="#333" d="M63-220v92h138v28H63V0H30v-248h175v28H63" id="W"/><path fill="#333" d="M143 0L79-87 56-68V0H24v-261h32v163l83-92h37l-77 82L181 0h-38" id="X"/><g id="q"><use transform="matrix(0.06234567901234567,0,0,0.06234567901234567,0,0)" xlink:href="#W"/><use transform="matrix(0.06234567901234567,0,0,0.06234567901234567,13.653703703703702,0)" xlink:href="#B"/><use transform="matrix(0.06234567901234567,0,0,0.06234567901234567,26.122839506172834,0)" xlink:href="#B"/><use transform="matrix(0.06234567901234567,0,0,0.06234567901234567,38.59197530864196,0)" xlink:href="#z"/><use transform="matrix(0.06234567901234567,0,0,0.06234567901234567,51.061111111111096,0)" xlink:href="#w"/><use transform="matrix(0.06234567901234567,0,0,0.06234567901234567,63.53024691358023,0)" xlink:href="#t"/><use transform="matrix(0.06234567901234567,0,0,0.06234567901234567,75.99938271604935,0)" xlink:href="#C"/><use transform="matrix(0.06234567901234567,0,0,0.06234567901234567,87.22160493827157,0)" xlink:href="#X"/></g><g id="r"><use transform="matrix(0.06234567901234567,0,0,0.06234567901234567,0,0)" xlink:href="#A"/><use transform="matrix(0.06234567901234567,0,0,0.06234567901234567,14.96296296296296,0)" xlink:href="#B"/><use transform="matrix(0.06234567901234567,0,0,0.06234567901234567,27.432098765432094,0)" xlink:href="#u"/><use transform="matrix(0.06234567901234567,0,0,0.06234567901234567,38.654320987654316,0)" xlink:href="#C"/><use transform="matrix(0.06234567901234567,0,0,0.06234567901234567,49.87654320987654,0)" xlink:href="#y"/><use transform="matrix(0.06234567901234567,0,0,0.06234567901234567,57.29567901234567,0)" xlink:href="#D"/><use transform="matrix(0.06234567901234567,0,0,0.06234567901234567,62.22098765432098,0)" xlink:href="#E"/><use transform="matrix(0.06234567901234567,0,0,0.06234567901234567,74.6901234567901,0)" xlink:href="#F"/><use transform="matrix(0.06234567901234567,0,0,0.06234567901234567,80.92469135802467,0)" xlink:href="#D"/><use transform="matrix(0.06234567901234567,0,0,0.06234567901234567,85.84999999999998,0)" xlink:href="#x"/><use transform="matrix(0.06234567901234567,0,0,0.06234567901234567,98.3191358024691,0)" xlink:href="#G"/></g></defs></g></svg>